<?xml version="1.0" encoding="utf-8"?>
<!-- Generator: Adobe Illustrator 16.0.0, SVG Export Plug-In . SVG Version: 6.00 Build 0)  -->
<!DOCTYPE svg PUBLIC "-//W3C//DTD SVG 1.1//EN" "http://www.w3.org/Graphics/SVG/1.1/DTD/svg11.dtd">
<svg version="1.1" xmlns="http://www.w3.org/2000/svg" xmlns:xlink="http://www.w3.org/1999/xlink" x="0px" y="0px"
	 width="676.373px" height="397.109px" viewBox="0 0 676.373 397.109" enable-background="new 0 0 676.373 397.109"
	 xml:space="preserve">
<g id="Layer_2">
</g>
<g id="Layer_1">
	
		<rect x="5.565" y="5.565" fill="#337C98" stroke="#72B5CF" stroke-width="11.1307" stroke-linecap="round" stroke-linejoin="round" stroke-miterlimit="10" width="665.242" height="385.979"/>
	<g>
		<g>
			<path fill="#FFFFFF" d="M281.629,39.29c1.42,0,2.635,0.136,3.645,0.405c1.01,0.271,1.838,0.655,2.483,1.155
				s1.117,1.104,1.417,1.814c0.3,0.711,0.45,1.511,0.45,2.4c0,0.51-0.075,0.997-0.225,1.463c-0.15,0.465-0.382,0.899-0.697,1.305
				s-0.715,0.772-1.2,1.103s-1.063,0.61-1.732,0.84c2.98,0.67,4.47,2.28,4.47,4.83c0,0.92-0.175,1.77-0.525,2.55
				c-0.351,0.78-0.86,1.453-1.53,2.018c-0.67,0.565-1.495,1.008-2.475,1.327c-0.98,0.32-2.1,0.48-3.36,0.48h-8.19V39.29H281.629z
				 M278.195,42.41v6.271h3.21c1.38,0,2.422-0.25,3.127-0.75s1.058-1.295,1.058-2.385c0-1.13-0.32-1.936-0.96-2.415
				c-0.64-0.48-1.64-0.721-3-0.721H278.195z M282.274,57.83c0.75,0,1.38-0.09,1.89-0.27c0.51-0.18,0.917-0.42,1.223-0.72
				c0.305-0.301,0.525-0.65,0.66-1.051c0.135-0.399,0.202-0.824,0.202-1.274c0-0.47-0.075-0.893-0.225-1.268
				c-0.15-0.375-0.385-0.695-0.705-0.96c-0.32-0.265-0.733-0.468-1.238-0.607s-1.112-0.21-1.822-0.21h-4.065v6.359H282.274z"/>
			<path fill="#FFFFFF" d="M297.41,41.105c0,0.32-0.065,0.62-0.195,0.9c-0.13,0.279-0.302,0.524-0.518,0.734
				c-0.215,0.21-0.467,0.378-0.757,0.503s-0.6,0.188-0.93,0.188c-0.32,0-0.622-0.063-0.907-0.188s-0.533-0.293-0.743-0.503
				s-0.377-0.455-0.502-0.734c-0.125-0.28-0.188-0.58-0.188-0.9c0-0.33,0.063-0.64,0.188-0.93s0.292-0.54,0.502-0.75
				s0.458-0.378,0.743-0.503s0.587-0.188,0.907-0.188c0.33,0,0.64,0.063,0.93,0.188s0.542,0.293,0.757,0.503
				c0.215,0.21,0.388,0.46,0.518,0.75S297.41,40.775,297.41,41.105z M296.9,45.591v15.39h-3.72v-15.39H296.9z"/>
			<path fill="#FFFFFF" d="M304.385,47.48c0.62-0.65,1.307-1.167,2.063-1.553c0.755-0.385,1.617-0.577,2.587-0.577
				c0.89,0,1.692,0.175,2.407,0.524c0.715,0.351,1.325,0.854,1.83,1.508c0.505,0.655,0.893,1.447,1.163,2.378
				c0.27,0.93,0.405,1.975,0.405,3.135c0,1.25-0.155,2.385-0.465,3.405c-0.31,1.02-0.752,1.893-1.328,2.617
				c-0.575,0.726-1.267,1.288-2.077,1.688s-1.71,0.6-2.7,0.6c-0.48,0-0.915-0.047-1.305-0.143c-0.39-0.095-0.75-0.227-1.08-0.397
				c-0.33-0.17-0.633-0.377-0.908-0.622s-0.538-0.518-0.788-0.817l-0.165,1.035c-0.06,0.26-0.163,0.444-0.307,0.555
				c-0.145,0.11-0.343,0.165-0.593,0.165h-2.445V38.69h3.705V47.48z M304.385,56.99c0.42,0.51,0.877,0.87,1.373,1.08
				c0.495,0.21,1.017,0.315,1.567,0.315c0.57,0,1.082-0.103,1.538-0.308c0.455-0.205,0.842-0.525,1.162-0.96
				c0.32-0.436,0.565-0.99,0.735-1.665c0.17-0.675,0.255-1.482,0.255-2.423c0-1.689-0.28-2.912-0.84-3.667
				c-0.561-0.755-1.365-1.133-2.415-1.133c-0.71,0-1.33,0.163-1.86,0.487c-0.53,0.325-1.035,0.783-1.515,1.373V56.99z"/>
			<path fill="#FFFFFF" d="M321.455,38.69v22.29h-3.705V38.69H321.455z"/>
			<path fill="#FFFFFF" d="M329.509,41.105c0,0.32-0.065,0.62-0.195,0.9c-0.13,0.279-0.302,0.524-0.518,0.734
				c-0.215,0.21-0.467,0.378-0.757,0.503s-0.6,0.188-0.93,0.188c-0.32,0-0.622-0.063-0.907-0.188s-0.533-0.293-0.743-0.503
				s-0.377-0.455-0.502-0.734c-0.125-0.28-0.188-0.58-0.188-0.9c0-0.33,0.063-0.64,0.188-0.93s0.292-0.54,0.502-0.75
				s0.458-0.378,0.743-0.503s0.587-0.188,0.907-0.188c0.33,0,0.64,0.063,0.93,0.188s0.542,0.293,0.757,0.503
				c0.215,0.21,0.388,0.46,0.518,0.75S329.509,40.775,329.509,41.105z M328.999,45.591v15.39h-3.72v-15.39H328.999z"/>
			<path fill="#FFFFFF" d="M339.589,45.351c1.14,0,2.177,0.185,3.112,0.555s1.735,0.896,2.4,1.575s1.178,1.51,1.538,2.49
				c0.36,0.979,0.54,2.075,0.54,3.285c0,1.22-0.18,2.319-0.54,3.3c-0.36,0.979-0.873,1.814-1.538,2.505
				c-0.665,0.689-1.465,1.22-2.4,1.59s-1.973,0.555-3.112,0.555c-1.15,0-2.195-0.185-3.135-0.555s-1.743-0.9-2.407-1.59
				c-0.666-0.69-1.18-1.525-1.545-2.505c-0.365-0.98-0.548-2.08-0.548-3.3c0-1.21,0.183-2.306,0.548-3.285
				c0.365-0.98,0.879-1.811,1.545-2.49c0.665-0.68,1.467-1.205,2.407-1.575S338.439,45.351,339.589,45.351z M339.589,58.355
				c1.28,0,2.228-0.43,2.842-1.29c0.615-0.86,0.922-2.12,0.922-3.78c0-1.659-0.307-2.925-0.922-3.795
				c-0.615-0.87-1.563-1.305-2.842-1.305c-1.3,0-2.263,0.438-2.888,1.313s-0.938,2.138-0.938,3.787c0,1.65,0.313,2.908,0.938,3.772
				C337.327,57.923,338.289,58.355,339.589,58.355z"/>
			<path fill="#FFFFFF" d="M354.844,61.221c-1.34,0-2.368-0.378-3.083-1.133s-1.072-1.797-1.072-3.127v-8.596h-1.575
				c-0.2,0-0.37-0.064-0.51-0.194c-0.14-0.13-0.21-0.325-0.21-0.585v-1.471l2.475-0.404l0.78-4.2c0.05-0.2,0.145-0.355,0.285-0.465
				c0.14-0.11,0.32-0.165,0.54-0.165h1.92v4.845h4.11v2.64h-4.11v8.34c0,0.48,0.118,0.855,0.353,1.125
				c0.235,0.271,0.558,0.405,0.968,0.405c0.23,0,0.422-0.027,0.578-0.082c0.155-0.056,0.29-0.113,0.405-0.173
				c0.115-0.06,0.217-0.117,0.308-0.173c0.09-0.055,0.18-0.082,0.27-0.082c0.11,0,0.2,0.027,0.27,0.082
				c0.07,0.056,0.145,0.138,0.225,0.248l1.11,1.8c-0.54,0.45-1.16,0.79-1.86,1.02C356.319,61.105,355.594,61.221,354.844,61.221z"/>
			<path fill="#FFFFFF" d="M363.604,53.75c0.06,0.791,0.2,1.473,0.42,2.048c0.22,0.575,0.51,1.05,0.87,1.425
				c0.36,0.375,0.787,0.655,1.282,0.84c0.495,0.186,1.042,0.278,1.643,0.278s1.118-0.07,1.552-0.21
				c0.435-0.141,0.815-0.295,1.14-0.466c0.325-0.17,0.61-0.324,0.855-0.465c0.245-0.14,0.482-0.21,0.712-0.21
				c0.31,0,0.54,0.115,0.69,0.346l1.065,1.35c-0.41,0.479-0.87,0.883-1.38,1.207c-0.51,0.325-1.042,0.585-1.597,0.78
				c-0.555,0.195-1.12,0.332-1.695,0.413c-0.575,0.079-1.132,0.119-1.672,0.119c-1.07,0-2.065-0.178-2.985-0.532
				c-0.92-0.354-1.72-0.88-2.4-1.575c-0.68-0.694-1.215-1.555-1.605-2.58c-0.39-1.024-0.585-2.212-0.585-3.563
				c0-1.05,0.17-2.037,0.51-2.962s0.827-1.73,1.462-2.415s1.41-1.228,2.325-1.628c0.915-0.399,1.947-0.6,3.097-0.6
				c0.97,0,1.865,0.155,2.685,0.465c0.82,0.311,1.525,0.763,2.115,1.357c0.59,0.595,1.052,1.325,1.387,2.19s0.503,1.853,0.503,2.962
				c0,0.561-0.06,0.938-0.18,1.133s-0.35,0.292-0.69,0.292H363.604z M370.669,51.516c0-0.48-0.067-0.933-0.203-1.357
				c-0.135-0.425-0.337-0.798-0.607-1.118c-0.27-0.319-0.613-0.572-1.027-0.757c-0.416-0.186-0.898-0.277-1.448-0.277
				c-1.07,0-1.913,0.305-2.527,0.915c-0.615,0.609-1.008,1.475-1.178,2.595H370.669z"/>
			<path fill="#FFFFFF" d="M387.799,48.846c-0.11,0.14-0.217,0.25-0.322,0.33s-0.258,0.12-0.458,0.12
				c-0.19,0-0.375-0.058-0.555-0.173s-0.395-0.245-0.645-0.39c-0.25-0.146-0.547-0.275-0.893-0.391
				c-0.345-0.114-0.772-0.172-1.282-0.172c-0.65,0-1.22,0.117-1.71,0.353c-0.49,0.234-0.898,0.572-1.223,1.012
				c-0.325,0.44-0.568,0.973-0.728,1.598c-0.16,0.625-0.24,1.333-0.24,2.123c0,0.819,0.087,1.55,0.263,2.189
				c0.175,0.641,0.428,1.178,0.757,1.612c0.33,0.436,0.73,0.766,1.2,0.99c0.47,0.226,1,0.338,1.59,0.338s1.067-0.072,1.433-0.218
				c0.365-0.145,0.672-0.305,0.922-0.48c0.25-0.175,0.467-0.334,0.653-0.479c0.185-0.145,0.392-0.218,0.623-0.218
				c0.3,0,0.525,0.115,0.675,0.346l1.065,1.35c-0.41,0.479-0.855,0.883-1.335,1.207c-0.48,0.325-0.978,0.585-1.493,0.78
				s-1.045,0.332-1.59,0.413c-0.545,0.079-1.087,0.119-1.627,0.119c-0.95,0-1.845-0.178-2.685-0.532s-1.575-0.872-2.205-1.553
				c-0.63-0.68-1.127-1.512-1.492-2.497c-0.365-0.985-0.548-2.107-0.548-3.367c0-1.13,0.163-2.178,0.488-3.143
				c0.325-0.965,0.802-1.801,1.432-2.505c0.63-0.705,1.41-1.258,2.34-1.658c0.93-0.399,2-0.6,3.21-0.6
				c1.15,0,2.157,0.185,3.022,0.555c0.865,0.37,1.643,0.9,2.333,1.59L387.799,48.846z"/>
			<path fill="#FFFFFF" d="M390.874,47.735c1.77-1.62,3.9-2.43,6.39-2.43c0.9,0,1.705,0.147,2.415,0.442s1.31,0.705,1.8,1.229
				c0.49,0.525,0.862,1.153,1.117,1.883c0.255,0.73,0.383,1.53,0.383,2.4v9.72h-1.68c-0.35,0-0.62-0.053-0.81-0.157
				c-0.19-0.105-0.34-0.317-0.45-0.638l-0.33-1.11c-0.39,0.351-0.771,0.658-1.14,0.923c-0.37,0.265-0.755,0.487-1.155,0.667
				c-0.4,0.181-0.827,0.317-1.282,0.413c-0.455,0.095-0.958,0.143-1.507,0.143c-0.65,0-1.25-0.088-1.8-0.263
				s-1.025-0.438-1.425-0.787c-0.4-0.351-0.71-0.785-0.93-1.306c-0.22-0.52-0.33-1.125-0.33-1.814c0-0.391,0.065-0.777,0.195-1.163
				c0.13-0.385,0.342-0.752,0.637-1.103c0.295-0.35,0.677-0.68,1.147-0.989c0.47-0.311,1.047-0.58,1.732-0.811
				c0.685-0.229,1.482-0.417,2.393-0.563c0.91-0.145,1.95-0.232,3.12-0.263v-0.899c0-1.03-0.22-1.793-0.66-2.288
				s-1.075-0.742-1.905-0.742c-0.6,0-1.098,0.07-1.493,0.21c-0.395,0.141-0.742,0.298-1.042,0.473
				c-0.3,0.175-0.572,0.332-0.817,0.473c-0.245,0.14-0.518,0.21-0.817,0.21c-0.26,0-0.48-0.067-0.66-0.203
				c-0.18-0.135-0.325-0.292-0.435-0.472L390.874,47.735z M399.364,54.41c-1.07,0.051-1.97,0.143-2.7,0.277
				c-0.73,0.136-1.315,0.308-1.755,0.518s-0.755,0.455-0.945,0.735s-0.285,0.585-0.285,0.915c0,0.65,0.192,1.115,0.578,1.395
				c0.385,0.28,0.887,0.421,1.507,0.421c0.76,0,1.417-0.138,1.973-0.413c0.555-0.274,1.097-0.692,1.627-1.252V54.41z"/>
		</g>
	</g>
	<g>
		<g>
			<path fill="#FFFFFF" d="M51.026,145.686v22.29h-3.705v-22.29H51.026z"/>
			<path fill="#FFFFFF" d="M59.081,148.101c0,0.32-0.065,0.62-0.195,0.9c-0.13,0.279-0.302,0.524-0.518,0.734
				c-0.215,0.21-0.467,0.378-0.757,0.503s-0.6,0.188-0.93,0.188c-0.32,0-0.622-0.063-0.907-0.188s-0.533-0.293-0.743-0.503
				s-0.377-0.455-0.502-0.734c-0.125-0.28-0.188-0.58-0.188-0.9c0-0.33,0.063-0.64,0.188-0.93s0.292-0.54,0.502-0.75
				s0.458-0.378,0.743-0.503s0.587-0.188,0.907-0.188c0.33,0,0.64,0.063,0.93,0.188s0.542,0.293,0.757,0.503
				c0.215,0.21,0.388,0.46,0.518,0.75S59.081,147.771,59.081,148.101z M58.571,152.586v15.39h-3.72v-15.39H58.571z"/>
			<path fill="#FFFFFF" d="M66.056,154.476c0.62-0.65,1.307-1.167,2.063-1.553c0.755-0.385,1.617-0.577,2.587-0.577
				c0.89,0,1.692,0.175,2.407,0.524c0.715,0.351,1.325,0.854,1.83,1.508c0.505,0.655,0.893,1.447,1.163,2.378
				c0.27,0.93,0.405,1.975,0.405,3.135c0,1.25-0.155,2.385-0.465,3.405c-0.31,1.02-0.752,1.893-1.328,2.617
				c-0.575,0.726-1.267,1.288-2.077,1.688s-1.71,0.6-2.7,0.6c-0.48,0-0.915-0.047-1.305-0.143c-0.39-0.095-0.75-0.227-1.08-0.397
				c-0.33-0.17-0.633-0.377-0.908-0.622s-0.538-0.518-0.788-0.817l-0.165,1.035c-0.06,0.26-0.163,0.444-0.307,0.555
				c-0.145,0.11-0.343,0.165-0.593,0.165h-2.445v-22.29h3.705V154.476z M66.056,163.985c0.42,0.51,0.877,0.87,1.373,1.08
				c0.495,0.21,1.017,0.315,1.567,0.315c0.57,0,1.082-0.103,1.538-0.308c0.455-0.205,0.842-0.525,1.162-0.96
				c0.32-0.436,0.565-0.99,0.735-1.665c0.17-0.675,0.255-1.482,0.255-2.423c0-1.689-0.28-2.912-0.84-3.667
				c-0.561-0.755-1.365-1.133-2.415-1.133c-0.71,0-1.33,0.163-1.86,0.487c-0.53,0.325-1.035,0.783-1.515,1.373V163.985z"/>
			<path fill="#FFFFFF" d="M82.871,155.256c0.48-0.92,1.05-1.643,1.71-2.168c0.66-0.524,1.44-0.787,2.34-0.787
				c0.71,0,1.28,0.155,1.71,0.465l-0.24,2.775c-0.05,0.18-0.123,0.307-0.218,0.382s-0.223,0.112-0.382,0.112
				c-0.15,0-0.373-0.024-0.667-0.074c-0.295-0.05-0.583-0.075-0.863-0.075c-0.41,0-0.775,0.06-1.095,0.18
				c-0.32,0.12-0.607,0.293-0.863,0.518c-0.255,0.225-0.48,0.498-0.675,0.817c-0.195,0.32-0.377,0.686-0.547,1.095v9.48h-3.705
				v-15.39h2.175c0.38,0,0.645,0.067,0.795,0.202c0.15,0.135,0.25,0.378,0.3,0.728L82.871,155.256z"/>
			<path fill="#FFFFFF" d="M96.94,152.346c1.14,0,2.177,0.185,3.112,0.555s1.735,0.896,2.4,1.575s1.178,1.51,1.538,2.49
				c0.36,0.979,0.54,2.075,0.54,3.285c0,1.22-0.18,2.319-0.54,3.3c-0.36,0.979-0.873,1.814-1.538,2.505
				c-0.665,0.689-1.465,1.22-2.4,1.59S98.08,168.2,96.94,168.2c-1.15,0-2.195-0.185-3.135-0.555s-1.743-0.9-2.407-1.59
				c-0.666-0.69-1.18-1.525-1.545-2.505c-0.365-0.98-0.548-2.08-0.548-3.3c0-1.21,0.183-2.306,0.548-3.285
				c0.365-0.98,0.879-1.811,1.545-2.49c0.665-0.68,1.467-1.205,2.407-1.575S95.79,152.346,96.94,152.346z M96.94,165.351
				c1.28,0,2.228-0.43,2.842-1.29c0.615-0.86,0.922-2.12,0.922-3.78c0-1.659-0.307-2.925-0.922-3.795
				c-0.615-0.87-1.563-1.305-2.842-1.305c-1.3,0-2.263,0.438-2.888,1.313s-0.938,2.138-0.938,3.787c0,1.65,0.313,2.908,0.938,3.772
				C94.678,164.918,95.64,165.351,96.94,165.351z"/>
			<path fill="#FFFFFF" d="M116.755,155.586c-0.1,0.16-0.205,0.272-0.315,0.337c-0.11,0.065-0.25,0.098-0.42,0.098
				c-0.18,0-0.373-0.05-0.577-0.15c-0.205-0.1-0.443-0.212-0.713-0.337s-0.577-0.237-0.922-0.338
				c-0.345-0.1-0.752-0.149-1.223-0.149c-0.73,0-1.302,0.155-1.717,0.465s-0.623,0.715-0.623,1.215c0,0.33,0.107,0.607,0.323,0.832
				c0.215,0.226,0.5,0.423,0.855,0.593c0.354,0.17,0.757,0.322,1.208,0.458c0.45,0.135,0.907,0.282,1.372,0.442
				c0.465,0.16,0.923,0.343,1.373,0.547c0.45,0.205,0.853,0.466,1.208,0.78c0.355,0.315,0.64,0.692,0.855,1.133
				s0.323,0.97,0.323,1.59c0,0.74-0.133,1.423-0.397,2.048c-0.265,0.625-0.658,1.165-1.178,1.62s-1.163,0.81-1.927,1.064
				c-0.765,0.255-1.648,0.383-2.647,0.383c-0.53,0-1.048-0.048-1.553-0.143c-0.505-0.096-0.99-0.228-1.455-0.397
				c-0.465-0.17-0.895-0.37-1.29-0.601c-0.395-0.229-0.742-0.479-1.042-0.75l0.855-1.409c0.11-0.17,0.24-0.301,0.39-0.391
				s0.34-0.135,0.57-0.135s0.448,0.065,0.653,0.195c0.205,0.13,0.442,0.27,0.712,0.42c0.27,0.149,0.587,0.29,0.953,0.42
				c0.365,0.13,0.827,0.194,1.387,0.194c0.44,0,0.817-0.052,1.133-0.157c0.315-0.104,0.575-0.242,0.78-0.412s0.355-0.368,0.45-0.593
				c0.095-0.225,0.142-0.457,0.142-0.697c0-0.36-0.107-0.655-0.322-0.885c-0.215-0.23-0.5-0.431-0.855-0.601
				s-0.76-0.322-1.215-0.457c-0.456-0.136-0.92-0.282-1.395-0.442c-0.475-0.16-0.94-0.348-1.395-0.563
				c-0.455-0.215-0.86-0.488-1.215-0.818c-0.355-0.329-0.64-0.734-0.855-1.215c-0.215-0.479-0.322-1.06-0.322-1.739
				c0-0.631,0.125-1.23,0.375-1.801c0.25-0.569,0.617-1.067,1.103-1.492c0.485-0.425,1.09-0.765,1.815-1.02
				c0.725-0.256,1.563-0.383,2.513-0.383c1.06,0,2.025,0.175,2.895,0.524c0.87,0.351,1.595,0.811,2.175,1.381L116.755,155.586z"/>
		</g>
	</g>
	<g>
		<g>
			<g>
				<path fill="#FFFFFF" d="M58.346,295.985v2.4h-11.82v-2.4H58.346z"/>
				<path fill="#FFFFFF" d="M72.341,295.985v2.4h-11.82v-2.4H72.341z"/>
				<path fill="#FFFFFF" d="M79.616,274.101c0,0.32-0.065,0.62-0.195,0.9c-0.13,0.279-0.302,0.524-0.518,0.734
					c-0.215,0.21-0.467,0.378-0.757,0.503s-0.6,0.188-0.93,0.188c-0.32,0-0.622-0.063-0.907-0.188s-0.533-0.293-0.743-0.503
					s-0.377-0.455-0.502-0.734c-0.125-0.28-0.188-0.58-0.188-0.9c0-0.33,0.063-0.64,0.188-0.93s0.292-0.54,0.502-0.75
					s0.458-0.378,0.743-0.503s0.587-0.188,0.907-0.188c0.33,0,0.64,0.063,0.93,0.188s0.542,0.293,0.757,0.503
					c0.215,0.21,0.388,0.46,0.518,0.75S79.616,273.771,79.616,274.101z M79.105,278.586v15.39h-3.72v-15.39H79.105z"/>
				<path fill="#FFFFFF" d="M86.351,280.476c0.31-0.31,0.638-0.598,0.982-0.862c0.345-0.265,0.71-0.49,1.095-0.675
					c0.385-0.186,0.797-0.33,1.237-0.436c0.44-0.104,0.92-0.157,1.44-0.157c0.84,0,1.585,0.143,2.235,0.428
					c0.65,0.284,1.192,0.685,1.627,1.199c0.435,0.516,0.765,1.131,0.99,1.846c0.225,0.715,0.338,1.502,0.338,2.362v9.795h-3.705
					v-9.795c0-0.939-0.215-1.667-0.645-2.183c-0.43-0.515-1.085-0.772-1.965-0.772c-0.64,0-1.24,0.146-1.8,0.435
					c-0.56,0.291-1.09,0.686-1.59,1.186v11.13h-3.705v-15.39h2.265c0.48,0,0.795,0.225,0.945,0.675L86.351,280.476z"/>
				<path fill="#FFFFFF" d="M104.156,274.101c0,0.32-0.065,0.62-0.195,0.9c-0.13,0.279-0.302,0.524-0.518,0.734
					c-0.215,0.21-0.467,0.378-0.757,0.503s-0.6,0.188-0.93,0.188c-0.32,0-0.622-0.063-0.907-0.188s-0.533-0.293-0.743-0.503
					s-0.377-0.455-0.502-0.734c-0.125-0.28-0.188-0.58-0.188-0.9c0-0.33,0.063-0.64,0.188-0.93s0.292-0.54,0.502-0.75
					s0.458-0.378,0.743-0.503s0.587-0.188,0.907-0.188c0.33,0,0.64,0.063,0.93,0.188s0.542,0.293,0.757,0.503
					c0.215,0.21,0.388,0.46,0.518,0.75S104.156,273.771,104.156,274.101z M103.646,278.586v15.39h-3.72v-15.39H103.646z"/>
				<path fill="#FFFFFF" d="M112.556,294.216c-1.34,0-2.368-0.378-3.083-1.133s-1.072-1.797-1.072-3.127v-8.596h-1.575
					c-0.2,0-0.37-0.064-0.51-0.194c-0.14-0.13-0.21-0.325-0.21-0.585v-1.471l2.475-0.404l0.78-4.2c0.05-0.2,0.145-0.355,0.285-0.465
					c0.14-0.11,0.32-0.165,0.54-0.165h1.92v4.845h4.11v2.64h-4.11v8.34c0,0.48,0.118,0.855,0.353,1.125
					c0.235,0.271,0.558,0.405,0.968,0.405c0.23,0,0.422-0.027,0.578-0.082c0.155-0.056,0.29-0.113,0.405-0.173
					c0.115-0.06,0.217-0.117,0.308-0.173c0.09-0.055,0.18-0.082,0.27-0.082c0.11,0,0.2,0.027,0.27,0.082
					c0.07,0.056,0.145,0.138,0.225,0.248l1.11,1.8c-0.54,0.45-1.16,0.79-1.86,1.02C114.031,294.101,113.306,294.216,112.556,294.216
					z"/>
				<path fill="#FFFFFF" d="M129.655,295.985v2.4h-11.82v-2.4H129.655z"/>
				<path fill="#FFFFFF" d="M143.65,295.985v2.4h-11.82v-2.4H143.65z"/>
				<path fill="#FFFFFF" d="M149.05,284.57c0,2.061,0.25,4.085,0.75,6.075c0.5,1.99,1.215,3.86,2.145,5.61
					c0.1,0.199,0.157,0.377,0.172,0.532s0.002,0.29-0.038,0.405c-0.04,0.114-0.103,0.215-0.188,0.3s-0.178,0.157-0.277,0.218
					l-1.65,1.005c-0.74-1.141-1.371-2.285-1.89-3.436c-0.52-1.149-0.945-2.31-1.275-3.479c-0.33-1.17-0.573-2.355-0.728-3.556
					c-0.155-1.199-0.232-2.425-0.232-3.675s0.077-2.478,0.232-3.683c0.155-1.204,0.397-2.393,0.728-3.563
					c0.33-1.17,0.755-2.327,1.275-3.472c0.52-1.146,1.15-2.288,1.89-3.428l1.65,0.99c0.1,0.06,0.192,0.132,0.277,0.217
					s0.147,0.186,0.188,0.3c0.04,0.115,0.053,0.251,0.038,0.405c-0.015,0.155-0.073,0.338-0.172,0.548
					c-0.93,1.74-1.646,3.607-2.145,5.603C149.299,280.483,149.05,282.511,149.05,284.57z"/>
				<path fill="#FFFFFF" d="M163.66,281.586c-0.1,0.16-0.205,0.272-0.315,0.337c-0.11,0.065-0.25,0.098-0.42,0.098
					c-0.18,0-0.373-0.05-0.577-0.15c-0.205-0.1-0.443-0.212-0.713-0.337s-0.577-0.237-0.922-0.338
					c-0.345-0.1-0.752-0.149-1.223-0.149c-0.73,0-1.302,0.155-1.717,0.465s-0.623,0.715-0.623,1.215c0,0.33,0.107,0.607,0.323,0.832
					c0.215,0.226,0.5,0.423,0.855,0.593c0.354,0.17,0.757,0.322,1.208,0.458c0.45,0.135,0.907,0.282,1.372,0.442
					c0.465,0.16,0.923,0.343,1.373,0.547c0.45,0.205,0.853,0.466,1.208,0.78c0.355,0.315,0.64,0.692,0.855,1.133
					s0.323,0.97,0.323,1.59c0,0.74-0.133,1.423-0.397,2.048c-0.265,0.625-0.658,1.165-1.178,1.62s-1.163,0.81-1.927,1.064
					c-0.765,0.255-1.648,0.383-2.647,0.383c-0.53,0-1.048-0.048-1.553-0.143c-0.505-0.096-0.99-0.228-1.455-0.397
					c-0.465-0.17-0.895-0.37-1.29-0.601c-0.395-0.229-0.742-0.479-1.042-0.75l0.855-1.409c0.11-0.17,0.24-0.301,0.39-0.391
					s0.34-0.135,0.57-0.135s0.448,0.065,0.653,0.195c0.205,0.13,0.442,0.27,0.712,0.42c0.27,0.149,0.587,0.29,0.953,0.42
					c0.365,0.13,0.827,0.194,1.387,0.194c0.44,0,0.817-0.052,1.133-0.157c0.315-0.104,0.575-0.242,0.78-0.412
					s0.355-0.368,0.45-0.593c0.095-0.225,0.142-0.457,0.142-0.697c0-0.36-0.107-0.655-0.322-0.885
					c-0.215-0.23-0.5-0.431-0.855-0.601s-0.76-0.322-1.215-0.457c-0.456-0.136-0.92-0.282-1.395-0.442
					c-0.475-0.16-0.94-0.348-1.395-0.563c-0.455-0.215-0.86-0.488-1.215-0.818c-0.355-0.329-0.64-0.734-0.855-1.215
					c-0.215-0.479-0.322-1.06-0.322-1.739c0-0.631,0.125-1.23,0.375-1.801c0.25-0.569,0.617-1.067,1.103-1.492
					c0.485-0.425,1.09-0.765,1.815-1.02c0.725-0.256,1.563-0.383,2.513-0.383c1.06,0,2.025,0.175,2.895,0.524
					c0.87,0.351,1.595,0.811,2.175,1.381L163.66,281.586z"/>
				<path fill="#FFFFFF" d="M170.305,286.745c0.06,0.791,0.2,1.473,0.42,2.048c0.22,0.575,0.51,1.05,0.87,1.425
					c0.36,0.375,0.787,0.655,1.282,0.84c0.495,0.186,1.042,0.278,1.643,0.278s1.118-0.07,1.552-0.21
					c0.435-0.141,0.815-0.295,1.14-0.466c0.325-0.17,0.61-0.324,0.855-0.465c0.245-0.14,0.482-0.21,0.712-0.21
					c0.31,0,0.54,0.115,0.69,0.346l1.065,1.35c-0.41,0.479-0.87,0.883-1.38,1.207c-0.51,0.325-1.042,0.585-1.597,0.78
					c-0.555,0.195-1.12,0.332-1.695,0.413c-0.575,0.079-1.132,0.119-1.672,0.119c-1.07,0-2.065-0.178-2.985-0.532
					c-0.92-0.354-1.72-0.88-2.4-1.575c-0.68-0.694-1.215-1.555-1.605-2.58c-0.39-1.024-0.585-2.212-0.585-3.563
					c0-1.05,0.17-2.037,0.51-2.962s0.827-1.73,1.462-2.415s1.41-1.228,2.325-1.628c0.915-0.399,1.947-0.6,3.097-0.6
					c0.97,0,1.865,0.155,2.685,0.465c0.82,0.311,1.525,0.763,2.115,1.357c0.59,0.595,1.052,1.325,1.387,2.19
					s0.503,1.853,0.503,2.962c0,0.561-0.06,0.938-0.18,1.133s-0.35,0.292-0.69,0.292H170.305z M177.37,284.511
					c0-0.48-0.067-0.933-0.203-1.357c-0.135-0.425-0.337-0.798-0.607-1.118c-0.27-0.319-0.613-0.572-1.027-0.757
					c-0.416-0.186-0.898-0.277-1.448-0.277c-1.07,0-1.913,0.305-2.527,0.915c-0.615,0.609-1.008,1.475-1.178,2.595H177.37z"/>
				<path fill="#FFFFFF" d="M187.225,271.686v22.29h-3.705v-22.29H187.225z"/>
				<path fill="#FFFFFF" d="M192.01,293.976v-12.6l-1.335-0.21c-0.291-0.061-0.523-0.163-0.698-0.308
					c-0.175-0.146-0.262-0.353-0.262-0.623v-1.515h2.295v-1.14c0-0.88,0.132-1.67,0.397-2.37c0.265-0.7,0.645-1.295,1.14-1.785
					c0.495-0.49,1.098-0.865,1.808-1.125s1.51-0.391,2.4-0.391c0.71,0,1.37,0.096,1.98,0.285l-0.075,1.86
					c-0.01,0.14-0.05,0.253-0.12,0.338s-0.163,0.149-0.277,0.194c-0.115,0.045-0.248,0.075-0.397,0.09
					c-0.15,0.016-0.31,0.022-0.48,0.022c-0.44,0-0.833,0.048-1.178,0.143c-0.345,0.096-0.637,0.261-0.877,0.495
					c-0.24,0.235-0.422,0.545-0.547,0.931c-0.125,0.385-0.188,0.862-0.188,1.432v1.021h4.005v2.64h-3.885v12.615H192.01z"/>
				<path fill="#FFFFFF" d="M203.934,284.57c0-2.06-0.248-4.087-0.743-6.082c-0.495-1.995-1.208-3.862-2.137-5.603
					c-0.11-0.21-0.173-0.393-0.188-0.548c-0.015-0.154-0.003-0.29,0.037-0.405c0.04-0.114,0.103-0.215,0.188-0.3
					s0.183-0.157,0.293-0.217l1.65-0.99c0.74,1.14,1.37,2.282,1.89,3.428c0.52,1.145,0.945,2.302,1.275,3.472
					c0.33,1.17,0.57,2.358,0.72,3.563c0.15,1.205,0.225,2.433,0.225,3.683s-0.075,2.476-0.225,3.675
					c-0.15,1.2-0.39,2.386-0.72,3.556c-0.33,1.17-0.755,2.33-1.275,3.479c-0.52,1.15-1.15,2.295-1.89,3.436l-1.65-1.005
					c-0.11-0.061-0.208-0.133-0.293-0.218s-0.147-0.186-0.188-0.3c-0.04-0.115-0.052-0.25-0.037-0.405
					c0.015-0.155,0.077-0.333,0.188-0.532c0.93-1.75,1.643-3.62,2.137-5.61C203.687,288.655,203.934,286.631,203.934,284.57z"/>
			</g>
		</g>
		<g>
			<g>
				<path fill="#FFFFFF" d="M46.917,343.472c1.77-1.62,3.9-2.43,6.39-2.43c0.9,0,1.705,0.147,2.415,0.442s1.31,0.705,1.8,1.229
					c0.49,0.525,0.862,1.153,1.117,1.883c0.255,0.73,0.383,1.53,0.383,2.4v9.72h-1.68c-0.35,0-0.62-0.053-0.81-0.157
					c-0.19-0.105-0.34-0.317-0.45-0.638l-0.33-1.11c-0.39,0.351-0.771,0.658-1.14,0.923c-0.37,0.265-0.755,0.487-1.155,0.667
					c-0.4,0.181-0.827,0.317-1.282,0.413c-0.455,0.095-0.958,0.143-1.507,0.143c-0.65,0-1.25-0.088-1.8-0.263
					s-1.025-0.438-1.425-0.787c-0.4-0.351-0.71-0.785-0.93-1.306c-0.22-0.52-0.33-1.125-0.33-1.814c0-0.391,0.065-0.777,0.195-1.163
					c0.13-0.385,0.342-0.752,0.637-1.103c0.295-0.35,0.677-0.68,1.147-0.989c0.47-0.311,1.047-0.58,1.732-0.811
					c0.685-0.229,1.482-0.417,2.393-0.563c0.91-0.145,1.95-0.232,3.12-0.263v-0.899c0-1.03-0.22-1.793-0.66-2.288
					s-1.075-0.742-1.905-0.742c-0.6,0-1.098,0.07-1.493,0.21c-0.395,0.141-0.742,0.298-1.042,0.473
					c-0.3,0.175-0.572,0.332-0.817,0.473c-0.245,0.14-0.518,0.21-0.817,0.21c-0.26,0-0.48-0.067-0.66-0.203
					c-0.18-0.135-0.325-0.292-0.435-0.472L46.917,343.472z M55.406,350.146c-1.07,0.051-1.97,0.143-2.7,0.277
					c-0.73,0.136-1.315,0.308-1.755,0.518s-0.755,0.455-0.945,0.735s-0.285,0.585-0.285,0.915c0,0.65,0.192,1.115,0.578,1.395
					c0.385,0.28,0.887,0.421,1.507,0.421c0.76,0,1.417-0.138,1.973-0.413c0.555-0.274,1.097-0.692,1.627-1.252V350.146z"/>
				<path fill="#FFFFFF" d="M76.001,341.852v1.38c0,0.44-0.265,0.711-0.795,0.811l-1.38,0.255c0.21,0.53,0.315,1.11,0.315,1.74
					c0,0.76-0.153,1.447-0.458,2.063c-0.305,0.614-0.728,1.138-1.268,1.567s-1.178,0.763-1.913,0.997
					c-0.735,0.235-1.528,0.353-2.377,0.353c-0.3,0-0.59-0.015-0.87-0.045c-0.28-0.03-0.555-0.069-0.825-0.12
					c-0.48,0.29-0.72,0.615-0.72,0.976c0,0.31,0.143,0.537,0.427,0.683c0.285,0.145,0.663,0.247,1.133,0.307
					c0.47,0.061,1.005,0.098,1.605,0.113c0.6,0.015,1.215,0.047,1.845,0.097c0.63,0.051,1.245,0.138,1.845,0.263
					s1.135,0.322,1.605,0.593c0.47,0.27,0.848,0.638,1.132,1.103c0.285,0.465,0.428,1.063,0.428,1.792
					c0,0.681-0.167,1.341-0.502,1.98c-0.335,0.64-0.82,1.21-1.455,1.71c-0.635,0.5-1.415,0.902-2.34,1.207
					c-0.925,0.306-1.978,0.458-3.158,0.458c-1.16,0-2.17-0.112-3.03-0.338c-0.86-0.225-1.575-0.524-2.145-0.899
					c-0.57-0.375-0.995-0.808-1.275-1.298c-0.28-0.49-0.42-1-0.42-1.53c0-0.72,0.218-1.322,0.653-1.807
					c0.435-0.485,1.032-0.873,1.792-1.163c-0.41-0.21-0.735-0.489-0.975-0.84c-0.24-0.35-0.36-0.81-0.36-1.38
					c0-0.23,0.042-0.468,0.127-0.713c0.084-0.245,0.21-0.487,0.375-0.728c0.165-0.239,0.372-0.467,0.623-0.683
					c0.25-0.215,0.545-0.407,0.885-0.577c-0.78-0.42-1.393-0.979-1.837-1.68c-0.445-0.7-0.667-1.521-0.667-2.46
					c0-0.76,0.152-1.448,0.458-2.063c0.305-0.615,0.729-1.141,1.275-1.575c0.545-0.436,1.19-0.768,1.935-0.998
					c0.745-0.229,1.557-0.345,2.438-0.345c0.66,0,1.28,0.067,1.86,0.203c0.58,0.135,1.11,0.332,1.59,0.592H76.001z M72.311,357.407
					c0-0.301-0.09-0.546-0.27-0.735c-0.18-0.189-0.425-0.338-0.735-0.442c-0.31-0.105-0.672-0.183-1.087-0.232
					s-0.855-0.088-1.32-0.112c-0.465-0.025-0.945-0.048-1.44-0.068c-0.495-0.02-0.978-0.06-1.448-0.119
					c-0.41,0.229-0.742,0.5-0.998,0.81c-0.255,0.31-0.382,0.67-0.382,1.08c0,0.27,0.067,0.522,0.203,0.758
					c0.135,0.234,0.35,0.437,0.645,0.607c0.295,0.17,0.677,0.302,1.147,0.397c0.47,0.095,1.045,0.143,1.725,0.143
					c0.69,0,1.285-0.053,1.785-0.158c0.5-0.104,0.913-0.25,1.238-0.435c0.325-0.186,0.563-0.405,0.712-0.66
					S72.311,357.707,72.311,357.407z M68.126,348.646c0.46,0,0.86-0.063,1.2-0.188s0.623-0.297,0.848-0.518
					c0.225-0.22,0.395-0.484,0.51-0.795c0.115-0.31,0.172-0.649,0.172-1.02c0-0.76-0.228-1.362-0.683-1.808
					s-1.138-0.668-2.047-0.668c-0.91,0-1.593,0.223-2.047,0.668c-0.456,0.445-0.683,1.048-0.683,1.808
					c0,0.359,0.057,0.695,0.172,1.005c0.115,0.31,0.285,0.577,0.51,0.803c0.225,0.225,0.51,0.399,0.855,0.524
					C67.278,348.584,67.676,348.646,68.126,348.646z"/>
				<path fill="#FFFFFF" d="M81.836,343.997c0.48-0.92,1.05-1.643,1.71-2.168c0.66-0.524,1.44-0.787,2.34-0.787
					c0.71,0,1.28,0.155,1.71,0.465l-0.24,2.775c-0.05,0.18-0.123,0.307-0.218,0.382s-0.223,0.112-0.382,0.112
					c-0.15,0-0.373-0.024-0.667-0.074c-0.295-0.05-0.583-0.075-0.863-0.075c-0.41,0-0.775,0.06-1.095,0.18
					c-0.32,0.12-0.607,0.293-0.863,0.518c-0.255,0.225-0.48,0.498-0.675,0.817c-0.195,0.32-0.377,0.686-0.547,1.095v9.48h-3.705
					v-15.39h2.175c0.38,0,0.645,0.067,0.795,0.202c0.15,0.135,0.25,0.378,0.3,0.728L81.836,343.997z"/>
				<path fill="#FFFFFF" d="M91.946,349.486c0.06,0.791,0.2,1.473,0.42,2.048c0.22,0.575,0.51,1.05,0.87,1.425
					c0.36,0.375,0.787,0.655,1.282,0.84c0.495,0.186,1.042,0.278,1.643,0.278s1.118-0.07,1.552-0.21
					c0.435-0.141,0.815-0.295,1.14-0.466c0.325-0.17,0.61-0.324,0.855-0.465c0.245-0.14,0.482-0.21,0.712-0.21
					c0.31,0,0.54,0.115,0.69,0.346l1.065,1.35c-0.41,0.479-0.87,0.883-1.38,1.207c-0.51,0.325-1.042,0.585-1.597,0.78
					c-0.555,0.195-1.12,0.332-1.695,0.413c-0.575,0.079-1.132,0.119-1.672,0.119c-1.07,0-2.065-0.178-2.985-0.532
					c-0.92-0.354-1.72-0.88-2.4-1.575c-0.68-0.694-1.215-1.555-1.605-2.58c-0.39-1.024-0.585-2.212-0.585-3.563
					c0-1.05,0.17-2.037,0.51-2.962s0.827-1.73,1.462-2.415s1.41-1.228,2.325-1.628c0.915-0.399,1.947-0.6,3.097-0.6
					c0.97,0,1.865,0.155,2.685,0.465c0.82,0.311,1.525,0.763,2.115,1.357c0.59,0.595,1.052,1.325,1.387,2.19
					s0.503,1.853,0.503,2.962c0,0.561-0.06,0.938-0.18,1.133s-0.35,0.292-0.69,0.292H91.946z M99.011,347.252
					c0-0.48-0.067-0.933-0.203-1.357c-0.135-0.425-0.337-0.798-0.607-1.118c-0.27-0.319-0.613-0.572-1.027-0.757
					c-0.416-0.186-0.898-0.277-1.448-0.277c-1.07,0-1.913,0.305-2.527,0.915c-0.615,0.609-1.008,1.475-1.178,2.595H99.011z"/>
				<path fill="#FFFFFF" d="M118.616,341.852v1.38c0,0.44-0.265,0.711-0.795,0.811l-1.38,0.255c0.21,0.53,0.315,1.11,0.315,1.74
					c0,0.76-0.153,1.447-0.458,2.063c-0.305,0.614-0.728,1.138-1.268,1.567s-1.178,0.763-1.913,0.997
					c-0.735,0.235-1.528,0.353-2.377,0.353c-0.3,0-0.59-0.015-0.87-0.045c-0.28-0.03-0.555-0.069-0.825-0.12
					c-0.48,0.29-0.72,0.615-0.72,0.976c0,0.31,0.143,0.537,0.427,0.683c0.285,0.145,0.663,0.247,1.133,0.307
					c0.47,0.061,1.005,0.098,1.605,0.113c0.6,0.015,1.215,0.047,1.845,0.097c0.63,0.051,1.245,0.138,1.845,0.263
					s1.135,0.322,1.605,0.593c0.47,0.27,0.848,0.638,1.132,1.103c0.285,0.465,0.428,1.063,0.428,1.792
					c0,0.681-0.167,1.341-0.502,1.98c-0.335,0.64-0.82,1.21-1.455,1.71c-0.635,0.5-1.415,0.902-2.34,1.207
					c-0.925,0.306-1.978,0.458-3.158,0.458c-1.16,0-2.17-0.112-3.03-0.338c-0.86-0.225-1.575-0.524-2.145-0.899
					c-0.57-0.375-0.995-0.808-1.275-1.298c-0.28-0.49-0.42-1-0.42-1.53c0-0.72,0.218-1.322,0.653-1.807
					c0.435-0.485,1.032-0.873,1.792-1.163c-0.41-0.21-0.735-0.489-0.975-0.84c-0.24-0.35-0.36-0.81-0.36-1.38
					c0-0.23,0.042-0.468,0.127-0.713c0.084-0.245,0.21-0.487,0.375-0.728c0.165-0.239,0.372-0.467,0.623-0.683
					c0.25-0.215,0.545-0.407,0.885-0.577c-0.78-0.42-1.393-0.979-1.837-1.68c-0.445-0.7-0.667-1.521-0.667-2.46
					c0-0.76,0.152-1.448,0.458-2.063c0.305-0.615,0.729-1.141,1.275-1.575c0.545-0.436,1.19-0.768,1.935-0.998
					c0.745-0.229,1.557-0.345,2.438-0.345c0.66,0,1.28,0.067,1.86,0.203c0.58,0.135,1.11,0.332,1.59,0.592H118.616z
					 M114.926,357.407c0-0.301-0.09-0.546-0.27-0.735c-0.18-0.189-0.425-0.338-0.735-0.442c-0.31-0.105-0.672-0.183-1.087-0.232
					s-0.855-0.088-1.32-0.112c-0.465-0.025-0.945-0.048-1.44-0.068c-0.495-0.02-0.978-0.06-1.448-0.119
					c-0.41,0.229-0.742,0.5-0.998,0.81c-0.255,0.31-0.382,0.67-0.382,1.08c0,0.27,0.067,0.522,0.203,0.758
					c0.135,0.234,0.35,0.437,0.645,0.607c0.295,0.17,0.677,0.302,1.147,0.397c0.47,0.095,1.045,0.143,1.725,0.143
					c0.69,0,1.285-0.053,1.785-0.158c0.5-0.104,0.913-0.25,1.238-0.435c0.325-0.186,0.563-0.405,0.712-0.66
					S114.926,357.707,114.926,357.407z M110.741,348.646c0.46,0,0.86-0.063,1.2-0.188s0.623-0.297,0.848-0.518
					c0.225-0.22,0.395-0.484,0.51-0.795c0.115-0.31,0.172-0.649,0.172-1.02c0-0.76-0.228-1.362-0.683-1.808
					s-1.138-0.668-2.047-0.668c-0.91,0-1.593,0.223-2.047,0.668c-0.456,0.445-0.683,1.048-0.683,1.808
					c0,0.359,0.057,0.695,0.172,1.005c0.115,0.31,0.285,0.577,0.51,0.803c0.225,0.225,0.51,0.399,0.855,0.524
					C109.893,348.584,110.291,348.646,110.741,348.646z"/>
				<path fill="#FFFFFF" d="M120.596,343.472c1.77-1.62,3.9-2.43,6.39-2.43c0.9,0,1.705,0.147,2.415,0.442s1.31,0.705,1.8,1.229
					c0.49,0.525,0.862,1.153,1.117,1.883c0.255,0.73,0.383,1.53,0.383,2.4v9.72h-1.68c-0.35,0-0.62-0.053-0.81-0.157
					c-0.19-0.105-0.34-0.317-0.45-0.638l-0.33-1.11c-0.39,0.351-0.771,0.658-1.14,0.923c-0.37,0.265-0.755,0.487-1.155,0.667
					c-0.4,0.181-0.827,0.317-1.282,0.413c-0.455,0.095-0.958,0.143-1.507,0.143c-0.65,0-1.25-0.088-1.8-0.263
					s-1.025-0.438-1.425-0.787c-0.4-0.351-0.71-0.785-0.93-1.306c-0.22-0.52-0.33-1.125-0.33-1.814c0-0.391,0.065-0.777,0.195-1.163
					c0.13-0.385,0.342-0.752,0.637-1.103c0.295-0.35,0.677-0.68,1.147-0.989c0.47-0.311,1.047-0.58,1.732-0.811
					c0.685-0.229,1.482-0.417,2.393-0.563c0.91-0.145,1.95-0.232,3.12-0.263v-0.899c0-1.03-0.22-1.793-0.66-2.288
					s-1.075-0.742-1.905-0.742c-0.6,0-1.098,0.07-1.493,0.21c-0.395,0.141-0.742,0.298-1.042,0.473
					c-0.3,0.175-0.572,0.332-0.817,0.473c-0.245,0.14-0.518,0.21-0.817,0.21c-0.26,0-0.48-0.067-0.66-0.203
					c-0.18-0.135-0.325-0.292-0.435-0.472L120.596,343.472z M129.085,350.146c-1.07,0.051-1.97,0.143-2.7,0.277
					c-0.73,0.136-1.315,0.308-1.755,0.518s-0.755,0.455-0.945,0.735s-0.285,0.585-0.285,0.915c0,0.65,0.192,1.115,0.578,1.395
					c0.385,0.28,0.887,0.421,1.507,0.421c0.76,0,1.417-0.138,1.973-0.413c0.555-0.274,1.097-0.692,1.627-1.252V350.146z"/>
				<path fill="#FFFFFF" d="M139.676,343.997c0.48-0.92,1.05-1.643,1.71-2.168c0.66-0.524,1.44-0.787,2.34-0.787
					c0.71,0,1.28,0.155,1.71,0.465l-0.24,2.775c-0.05,0.18-0.123,0.307-0.218,0.382s-0.223,0.112-0.382,0.112
					c-0.15,0-0.373-0.024-0.667-0.074c-0.295-0.05-0.583-0.075-0.863-0.075c-0.41,0-0.775,0.06-1.095,0.18
					c-0.32,0.12-0.607,0.293-0.863,0.518c-0.255,0.225-0.48,0.498-0.675,0.817c-0.195,0.32-0.377,0.686-0.547,1.095v9.48h-3.705
					v-15.39h2.175c0.38,0,0.645,0.067,0.795,0.202c0.15,0.135,0.25,0.378,0.3,0.728L139.676,343.997z"/>
				<path fill="#FFFFFF" d="M158.44,358.727v2.4h-11.82v-2.4H158.44z"/>
				<path fill="#FFFFFF" d="M165.115,334.427v22.29h-3.705v-22.29H165.115z"/>
				<path fill="#FFFFFF" d="M173.169,336.842c0,0.32-0.065,0.62-0.195,0.9c-0.13,0.279-0.302,0.524-0.518,0.734
					c-0.215,0.21-0.467,0.378-0.757,0.503s-0.6,0.188-0.93,0.188c-0.32,0-0.622-0.063-0.907-0.188s-0.533-0.293-0.743-0.503
					s-0.377-0.455-0.502-0.734c-0.125-0.28-0.188-0.58-0.188-0.9c0-0.33,0.063-0.64,0.188-0.93s0.292-0.54,0.502-0.75
					s0.458-0.378,0.743-0.503s0.587-0.188,0.907-0.188c0.33,0,0.64,0.063,0.93,0.188s0.542,0.293,0.757,0.503
					c0.215,0.21,0.388,0.46,0.518,0.75S173.169,336.512,173.169,336.842z M172.659,341.327v15.39h-3.72v-15.39H172.659z"/>
				<path fill="#FFFFFF" d="M180.145,343.217c0.62-0.65,1.307-1.167,2.063-1.553c0.755-0.385,1.617-0.577,2.587-0.577
					c0.89,0,1.692,0.175,2.407,0.524c0.715,0.351,1.325,0.854,1.83,1.508c0.505,0.655,0.893,1.447,1.163,2.378
					c0.27,0.93,0.405,1.975,0.405,3.135c0,1.25-0.155,2.385-0.465,3.405c-0.31,1.02-0.752,1.893-1.328,2.617
					c-0.575,0.726-1.267,1.288-2.077,1.688s-1.71,0.6-2.7,0.6c-0.48,0-0.915-0.047-1.305-0.143c-0.39-0.095-0.75-0.227-1.08-0.397
					c-0.33-0.17-0.633-0.377-0.908-0.622s-0.538-0.518-0.788-0.817l-0.165,1.035c-0.06,0.26-0.163,0.444-0.307,0.555
					c-0.145,0.11-0.343,0.165-0.593,0.165h-2.445v-22.29h3.705V343.217z M180.145,352.727c0.42,0.51,0.877,0.87,1.373,1.08
					c0.495,0.21,1.017,0.315,1.567,0.315c0.57,0,1.082-0.103,1.538-0.308c0.455-0.205,0.842-0.525,1.162-0.96
					c0.32-0.436,0.565-0.99,0.735-1.665c0.17-0.675,0.255-1.482,0.255-2.423c0-1.689-0.28-2.912-0.84-3.667
					c-0.561-0.755-1.365-1.133-2.415-1.133c-0.71,0-1.33,0.163-1.86,0.487c-0.53,0.325-1.035,0.783-1.515,1.373V352.727z"/>
				<path fill="#FFFFFF" d="M196.959,343.997c0.48-0.92,1.05-1.643,1.71-2.168c0.66-0.524,1.44-0.787,2.34-0.787
					c0.71,0,1.28,0.155,1.71,0.465l-0.24,2.775c-0.05,0.18-0.123,0.307-0.218,0.382s-0.223,0.112-0.382,0.112
					c-0.15,0-0.373-0.024-0.667-0.074c-0.295-0.05-0.583-0.075-0.863-0.075c-0.41,0-0.775,0.06-1.095,0.18
					c-0.32,0.12-0.607,0.293-0.863,0.518c-0.255,0.225-0.48,0.498-0.675,0.817c-0.195,0.32-0.377,0.686-0.547,1.095v9.48h-3.705
					v-15.39h2.175c0.38,0,0.645,0.067,0.795,0.202c0.15,0.135,0.25,0.378,0.3,0.728L196.959,343.997z"/>
				<path fill="#FFFFFF" d="M211.029,341.087c1.14,0,2.177,0.185,3.112,0.555s1.735,0.896,2.4,1.575s1.178,1.51,1.538,2.49
					c0.36,0.979,0.54,2.075,0.54,3.285c0,1.22-0.18,2.319-0.54,3.3c-0.36,0.979-0.873,1.814-1.538,2.505
					c-0.665,0.689-1.465,1.22-2.4,1.59s-1.973,0.555-3.112,0.555c-1.15,0-2.195-0.185-3.135-0.555s-1.743-0.9-2.407-1.59
					c-0.666-0.69-1.18-1.525-1.545-2.505c-0.365-0.98-0.548-2.08-0.548-3.3c0-1.21,0.183-2.306,0.548-3.285
					c0.365-0.98,0.879-1.811,1.545-2.49c0.665-0.68,1.467-1.205,2.407-1.575S209.878,341.087,211.029,341.087z M211.029,354.092
					c1.28,0,2.228-0.43,2.842-1.29c0.615-0.86,0.922-2.12,0.922-3.78c0-1.659-0.307-2.925-0.922-3.795
					c-0.615-0.87-1.563-1.305-2.842-1.305c-1.3,0-2.263,0.438-2.888,1.313s-0.938,2.138-0.938,3.787c0,1.65,0.313,2.908,0.938,3.772
					C208.766,353.659,209.729,354.092,211.029,354.092z"/>
				<path fill="#FFFFFF" d="M223.929,347.312c0,2.061,0.25,4.085,0.75,6.075c0.5,1.99,1.215,3.86,2.145,5.61
					c0.1,0.199,0.157,0.377,0.172,0.532s0.002,0.29-0.038,0.405c-0.04,0.114-0.103,0.215-0.188,0.3s-0.178,0.157-0.277,0.218
					l-1.65,1.005c-0.74-1.141-1.371-2.285-1.89-3.436c-0.52-1.149-0.945-2.31-1.275-3.479c-0.33-1.17-0.573-2.355-0.728-3.556
					c-0.155-1.199-0.232-2.425-0.232-3.675s0.077-2.478,0.232-3.683c0.155-1.204,0.397-2.393,0.728-3.563
					c0.33-1.17,0.755-2.327,1.275-3.472c0.52-1.146,1.15-2.288,1.89-3.428l1.65,0.99c0.1,0.06,0.192,0.132,0.277,0.217
					s0.147,0.186,0.188,0.3c0.04,0.115,0.053,0.251,0.038,0.405c-0.015,0.155-0.073,0.338-0.172,0.548
					c-0.93,1.74-1.646,3.607-2.145,5.603C224.178,343.225,223.929,345.252,223.929,347.312z"/>
				<path fill="#FFFFFF" d="M238.539,344.327c-0.1,0.16-0.205,0.272-0.315,0.337c-0.11,0.065-0.25,0.098-0.42,0.098
					c-0.18,0-0.373-0.05-0.577-0.15c-0.205-0.1-0.443-0.212-0.713-0.337s-0.577-0.237-0.922-0.338
					c-0.345-0.1-0.752-0.149-1.223-0.149c-0.73,0-1.302,0.155-1.717,0.465s-0.623,0.715-0.623,1.215c0,0.33,0.107,0.607,0.323,0.832
					c0.215,0.226,0.5,0.423,0.855,0.593c0.354,0.17,0.757,0.322,1.208,0.458c0.45,0.135,0.907,0.282,1.372,0.442
					c0.465,0.16,0.923,0.343,1.373,0.547c0.45,0.205,0.853,0.466,1.208,0.78c0.355,0.315,0.64,0.692,0.855,1.133
					s0.323,0.97,0.323,1.59c0,0.74-0.133,1.423-0.397,2.048c-0.265,0.625-0.658,1.165-1.178,1.62s-1.163,0.81-1.927,1.064
					c-0.765,0.255-1.648,0.383-2.647,0.383c-0.53,0-1.048-0.048-1.553-0.143c-0.505-0.096-0.99-0.228-1.455-0.397
					c-0.465-0.17-0.895-0.37-1.29-0.601c-0.395-0.229-0.742-0.479-1.042-0.75l0.855-1.409c0.11-0.17,0.24-0.301,0.39-0.391
					s0.34-0.135,0.57-0.135s0.448,0.065,0.653,0.195c0.205,0.13,0.442,0.27,0.712,0.42c0.27,0.149,0.587,0.29,0.953,0.42
					c0.365,0.13,0.827,0.194,1.387,0.194c0.44,0,0.817-0.052,1.133-0.157c0.315-0.104,0.575-0.242,0.78-0.412
					s0.355-0.368,0.45-0.593c0.095-0.225,0.142-0.457,0.142-0.697c0-0.36-0.107-0.655-0.322-0.885
					c-0.215-0.23-0.5-0.431-0.855-0.601s-0.76-0.322-1.215-0.457c-0.456-0.136-0.92-0.282-1.395-0.442
					c-0.475-0.16-0.94-0.348-1.395-0.563c-0.455-0.215-0.86-0.488-1.215-0.818c-0.355-0.329-0.64-0.734-0.855-1.215
					c-0.215-0.479-0.322-1.06-0.322-1.739c0-0.631,0.125-1.23,0.375-1.801c0.25-0.569,0.617-1.067,1.103-1.492
					c0.485-0.425,1.09-0.765,1.815-1.02c0.725-0.256,1.563-0.383,2.513-0.383c1.06,0,2.025,0.175,2.895,0.524
					c0.87,0.351,1.595,0.811,2.175,1.381L238.539,344.327z"/>
				<path fill="#FFFFFF" d="M245.184,349.486c0.06,0.791,0.2,1.473,0.42,2.048c0.22,0.575,0.51,1.05,0.87,1.425
					c0.36,0.375,0.787,0.655,1.282,0.84c0.495,0.186,1.042,0.278,1.643,0.278s1.118-0.07,1.552-0.21
					c0.435-0.141,0.816-0.295,1.14-0.466c0.324-0.17,0.609-0.324,0.855-0.465c0.244-0.14,0.482-0.21,0.713-0.21
					c0.309,0,0.539,0.115,0.689,0.346l1.064,1.35c-0.41,0.479-0.869,0.883-1.379,1.207c-0.512,0.325-1.043,0.585-1.598,0.78
					s-1.121,0.332-1.696,0.413c-0.575,0.079-1.132,0.119-1.672,0.119c-1.07,0-2.065-0.178-2.985-0.532
					c-0.92-0.354-1.72-0.88-2.4-1.575c-0.68-0.694-1.215-1.555-1.605-2.58c-0.39-1.024-0.585-2.212-0.585-3.563
					c0-1.05,0.17-2.037,0.51-2.962s0.827-1.73,1.462-2.415s1.41-1.228,2.325-1.628c0.915-0.399,1.947-0.6,3.097-0.6
					c0.97,0,1.865,0.155,2.685,0.465c0.82,0.311,1.525,0.763,2.115,1.357s1.053,1.325,1.387,2.19
					c0.336,0.865,0.504,1.853,0.504,2.962c0,0.561-0.061,0.938-0.182,1.133c-0.119,0.195-0.35,0.292-0.689,0.292H245.184z
					 M252.249,347.252c0-0.48-0.068-0.933-0.203-1.357s-0.338-0.798-0.607-1.118c-0.27-0.319-0.613-0.572-1.027-0.757
					c-0.416-0.186-0.898-0.277-1.448-0.277c-1.07,0-1.913,0.305-2.527,0.915c-0.615,0.609-1.008,1.475-1.178,2.595H252.249z"/>
				<path fill="#FFFFFF" d="M262.104,334.427v22.29h-3.705v-22.29H262.104z"/>
				<path fill="#FFFFFF" d="M266.889,356.717v-12.6l-1.335-0.21c-0.29-0.061-0.522-0.163-0.697-0.308
					c-0.176-0.146-0.263-0.353-0.263-0.623v-1.515h2.295v-1.14c0-0.88,0.132-1.67,0.397-2.37c0.265-0.7,0.645-1.295,1.14-1.785
					s1.098-0.865,1.808-1.125s1.51-0.391,2.4-0.391c0.71,0,1.37,0.096,1.979,0.285l-0.075,1.86c-0.01,0.14-0.05,0.253-0.119,0.338
					c-0.07,0.085-0.163,0.149-0.278,0.194c-0.114,0.045-0.247,0.075-0.397,0.09c-0.149,0.016-0.31,0.022-0.479,0.022
					c-0.44,0-0.833,0.048-1.178,0.143c-0.345,0.096-0.638,0.261-0.877,0.495c-0.24,0.235-0.423,0.545-0.548,0.931
					c-0.125,0.385-0.188,0.862-0.188,1.432v1.021h4.005v2.64h-3.885v12.615H266.889z"/>
				<path fill="#FFFFFF" d="M275.843,360.392c-0.18-0.149-0.27-0.335-0.27-0.555c0-0.08,0.027-0.17,0.082-0.271
					c0.056-0.1,0.123-0.189,0.203-0.27c0.109-0.12,0.245-0.268,0.405-0.442c0.159-0.175,0.319-0.375,0.479-0.601
					c0.16-0.225,0.308-0.47,0.442-0.734c0.135-0.266,0.237-0.548,0.308-0.848c-0.32,0-0.61-0.058-0.87-0.173
					c-0.26-0.114-0.482-0.272-0.667-0.473c-0.186-0.199-0.33-0.435-0.436-0.704c-0.104-0.271-0.157-0.565-0.157-0.886
					c0-0.279,0.053-0.542,0.157-0.787c0.105-0.245,0.253-0.46,0.442-0.646c0.19-0.185,0.42-0.33,0.69-0.435
					c0.27-0.105,0.564-0.157,0.885-0.157c0.38,0,0.713,0.067,0.998,0.202c0.284,0.135,0.52,0.32,0.705,0.555
					c0.185,0.235,0.324,0.506,0.42,0.811c0.095,0.305,0.143,0.628,0.143,0.968c0,0.479-0.073,0.984-0.218,1.515
					c-0.146,0.53-0.357,1.06-0.638,1.59s-0.628,1.045-1.043,1.545s-0.887,0.96-1.417,1.38L275.843,360.392z"/>
				<path fill="#FFFFFF" d="M293.963,334.427v22.29h-3.705v-22.29H293.963z"/>
				<path fill="#FFFFFF" d="M302.018,336.842c0,0.32-0.064,0.62-0.194,0.9c-0.131,0.279-0.303,0.524-0.518,0.734
					c-0.216,0.21-0.468,0.378-0.758,0.503s-0.6,0.188-0.93,0.188c-0.32,0-0.623-0.063-0.908-0.188
					c-0.284-0.125-0.532-0.293-0.742-0.503s-0.378-0.455-0.502-0.734c-0.126-0.28-0.188-0.58-0.188-0.9
					c0-0.33,0.062-0.64,0.188-0.93c0.124-0.29,0.292-0.54,0.502-0.75s0.458-0.378,0.742-0.503c0.285-0.125,0.588-0.188,0.908-0.188
					c0.33,0,0.64,0.063,0.93,0.188s0.542,0.293,0.758,0.503c0.215,0.21,0.387,0.46,0.518,0.75
					C301.953,336.202,302.018,336.512,302.018,336.842z M301.508,341.327v15.39h-3.72v-15.39H301.508z"/>
				<path fill="#FFFFFF" d="M308.992,343.217c0.62-0.65,1.308-1.167,2.063-1.553c0.755-0.385,1.617-0.577,2.587-0.577
					c0.891,0,1.692,0.175,2.408,0.524c0.715,0.351,1.324,0.854,1.83,1.508c0.505,0.655,0.893,1.447,1.162,2.378
					c0.271,0.93,0.405,1.975,0.405,3.135c0,1.25-0.155,2.385-0.465,3.405c-0.311,1.02-0.753,1.893-1.328,2.617
					c-0.575,0.726-1.268,1.288-2.077,1.688c-0.811,0.399-1.71,0.6-2.7,0.6c-0.479,0-0.915-0.047-1.305-0.143
					c-0.391-0.095-0.75-0.227-1.08-0.397c-0.33-0.17-0.633-0.377-0.907-0.622c-0.275-0.245-0.538-0.518-0.788-0.817l-0.165,1.035
					c-0.06,0.26-0.162,0.444-0.308,0.555c-0.145,0.11-0.343,0.165-0.592,0.165h-2.445v-22.29h3.705V343.217z M308.992,352.727
					c0.42,0.51,0.877,0.87,1.372,1.08s1.018,0.315,1.567,0.315c0.57,0,1.083-0.103,1.538-0.308s0.842-0.525,1.162-0.96
					c0.32-0.436,0.565-0.99,0.735-1.665s0.255-1.482,0.255-2.423c0-1.689-0.28-2.912-0.84-3.667
					c-0.561-0.755-1.365-1.133-2.415-1.133c-0.71,0-1.33,0.163-1.86,0.487c-0.53,0.325-1.035,0.783-1.515,1.373V352.727z"/>
				<path fill="#FFFFFF" d="M325.808,343.997c0.479-0.92,1.05-1.643,1.71-2.168c0.66-0.524,1.439-0.787,2.34-0.787
					c0.71,0,1.28,0.155,1.71,0.465l-0.24,2.775c-0.05,0.18-0.122,0.307-0.217,0.382c-0.096,0.075-0.223,0.112-0.383,0.112
					c-0.15,0-0.373-0.024-0.668-0.074s-0.582-0.075-0.862-0.075c-0.41,0-0.775,0.06-1.095,0.18c-0.32,0.12-0.607,0.293-0.862,0.518
					s-0.48,0.498-0.676,0.817c-0.194,0.32-0.377,0.686-0.547,1.095v9.48h-3.705v-15.39h2.175c0.38,0,0.646,0.067,0.795,0.202
					c0.15,0.135,0.25,0.378,0.3,0.728L325.808,343.997z"/>
				<path fill="#FFFFFF" d="M339.877,341.087c1.141,0,2.178,0.185,3.113,0.555c0.935,0.37,1.734,0.896,2.399,1.575
					s1.178,1.51,1.538,2.49c0.359,0.979,0.54,2.075,0.54,3.285c0,1.22-0.181,2.319-0.54,3.3c-0.36,0.979-0.873,1.814-1.538,2.505
					c-0.665,0.689-1.465,1.22-2.399,1.59c-0.936,0.37-1.973,0.555-3.113,0.555c-1.149,0-2.194-0.185-3.135-0.555
					s-1.742-0.9-2.407-1.59c-0.665-0.69-1.181-1.525-1.545-2.505c-0.365-0.98-0.548-2.08-0.548-3.3c0-1.21,0.183-2.306,0.548-3.285
					c0.364-0.98,0.88-1.811,1.545-2.49s1.467-1.205,2.407-1.575S338.728,341.087,339.877,341.087z M339.877,354.092
					c1.28,0,2.228-0.43,2.843-1.29s0.923-2.12,0.923-3.78c0-1.659-0.308-2.925-0.923-3.795s-1.563-1.305-2.843-1.305
					c-1.3,0-2.263,0.438-2.887,1.313c-0.626,0.875-0.938,2.138-0.938,3.787c0,1.65,0.312,2.908,0.938,3.772
					C337.614,353.659,338.577,354.092,339.877,354.092z"/>
				<path fill="#FFFFFF" d="M351.502,347.312c0-2.06-0.247-4.087-0.742-6.082s-1.208-3.862-2.138-5.603
					c-0.11-0.21-0.173-0.393-0.188-0.548c-0.016-0.154-0.003-0.29,0.037-0.405c0.04-0.114,0.103-0.215,0.188-0.3
					s0.183-0.157,0.293-0.217l1.649-0.99c0.74,1.14,1.37,2.282,1.891,3.428c0.52,1.145,0.944,2.302,1.274,3.472
					s0.57,2.358,0.721,3.563c0.149,1.205,0.225,2.433,0.225,3.683s-0.075,2.476-0.225,3.675c-0.15,1.2-0.391,2.386-0.721,3.556
					s-0.755,2.33-1.274,3.479c-0.521,1.15-1.15,2.295-1.891,3.436l-1.649-1.005c-0.11-0.061-0.208-0.133-0.293-0.218
					s-0.147-0.186-0.188-0.3c-0.04-0.115-0.053-0.25-0.037-0.405c0.015-0.155,0.077-0.333,0.188-0.532
					c0.93-1.75,1.643-3.62,2.138-5.61S351.502,349.372,351.502,347.312z"/>
			</g>
		</g>
	</g>
	
		<line fill="#337C98" stroke="#72B5CF" stroke-width="11.1307" stroke-linecap="round" stroke-linejoin="round" stroke-miterlimit="10" x1="6.851" y1="88.823" x2="667.243" y2="88.823"/>
	
		<line fill="#337C98" stroke="#72B5CF" stroke-width="11.1307" stroke-linecap="round" stroke-linejoin="round" stroke-miterlimit="10" x1="6.851" y1="228.823" x2="667.243" y2="228.823"/>
</g>
</svg>
