<?xml version="1.0" encoding="utf-8"?>
<!-- Generator: Adobe Illustrator 16.0.0, SVG Export Plug-In . SVG Version: 6.00 Build 0)  -->
<!DOCTYPE svg PUBLIC "-//W3C//DTD SVG 1.1//EN" "http://www.w3.org/Graphics/SVG/1.1/DTD/svg11.dtd">
<svg version="1.1" xmlns="http://www.w3.org/2000/svg" xmlns:xlink="http://www.w3.org/1999/xlink" x="0px" y="0px"
	 width="876.087px" height="825.082px" viewBox="0 0 876.087 825.082" enable-background="new 0 0 876.087 825.082"
	 xml:space="preserve">
<g id="Layer_2">
</g>
<g id="Layer_1">
	<path fill="#72B5CF" d="M761.067,452.538c0-178.396-144.628-323.017-323.021-323.017c-178.397,0-323.024,144.621-323.024,323.017
		c0,178.401,144.627,323.022,323.024,323.022C616.439,775.561,761.067,630.939,761.067,452.538z"/>
	<g>
		<g>
			<path fill="#FF2455" d="M43.444,73.966c0.62-0.65,1.307-1.167,2.063-1.553c0.755-0.385,1.617-0.577,2.587-0.577
				c0.89,0,1.692,0.175,2.407,0.524c0.715,0.351,1.325,0.854,1.83,1.508c0.505,0.655,0.893,1.447,1.163,2.378
				c0.27,0.93,0.405,1.975,0.405,3.135c0,1.25-0.155,2.385-0.465,3.405c-0.31,1.02-0.752,1.893-1.328,2.617
				c-0.575,0.726-1.267,1.288-2.077,1.688s-1.71,0.6-2.7,0.6c-0.48,0-0.915-0.047-1.305-0.143c-0.39-0.095-0.75-0.227-1.08-0.397
				c-0.33-0.17-0.633-0.377-0.908-0.622s-0.538-0.518-0.788-0.817l-0.165,1.035c-0.06,0.26-0.163,0.444-0.307,0.555
				c-0.145,0.11-0.343,0.165-0.593,0.165h-2.445v-22.29h3.705V73.966z M43.444,83.476c0.42,0.51,0.877,0.87,1.373,1.08
				c0.495,0.21,1.017,0.315,1.567,0.315c0.57,0,1.082-0.103,1.538-0.308c0.455-0.205,0.842-0.525,1.162-0.96
				c0.32-0.436,0.565-0.99,0.735-1.665c0.17-0.675,0.255-1.482,0.255-2.423c0-1.689-0.28-2.912-0.84-3.667
				c-0.561-0.755-1.365-1.133-2.415-1.133c-0.71,0-1.33,0.163-1.86,0.487c-0.53,0.325-1.035,0.783-1.515,1.373V83.476z"/>
			<path fill="#FF2455" d="M61.114,67.591c0,0.32-0.065,0.62-0.195,0.9c-0.13,0.279-0.302,0.524-0.518,0.734
				c-0.215,0.21-0.467,0.378-0.757,0.503s-0.6,0.188-0.93,0.188c-0.32,0-0.622-0.063-0.907-0.188s-0.533-0.293-0.743-0.503
				s-0.377-0.455-0.502-0.734c-0.125-0.28-0.188-0.58-0.188-0.9c0-0.33,0.063-0.64,0.188-0.93s0.292-0.54,0.502-0.75
				s0.458-0.378,0.743-0.503s0.587-0.188,0.907-0.188c0.33,0,0.64,0.063,0.93,0.188s0.542,0.293,0.757,0.503
				c0.215,0.21,0.388,0.46,0.518,0.75S61.114,67.261,61.114,67.591z M60.604,72.076v15.39h-3.72v-15.39H60.604z"/>
			<path fill="#FF2455" d="M68.088,73.966c0.62-0.65,1.307-1.167,2.063-1.553c0.755-0.385,1.617-0.577,2.587-0.577
				c0.89,0,1.692,0.175,2.407,0.524c0.715,0.351,1.325,0.854,1.83,1.508c0.505,0.655,0.893,1.447,1.163,2.378
				c0.27,0.93,0.405,1.975,0.405,3.135c0,1.25-0.155,2.385-0.465,3.405c-0.31,1.02-0.752,1.893-1.328,2.617
				c-0.575,0.726-1.267,1.288-2.077,1.688s-1.71,0.6-2.7,0.6c-0.48,0-0.915-0.047-1.305-0.143c-0.39-0.095-0.75-0.227-1.08-0.397
				c-0.33-0.17-0.633-0.377-0.908-0.622s-0.538-0.518-0.788-0.817l-0.165,1.035c-0.06,0.26-0.163,0.444-0.307,0.555
				c-0.145,0.11-0.343,0.165-0.593,0.165h-2.445v-22.29h3.705V73.966z M68.088,83.476c0.42,0.51,0.877,0.87,1.373,1.08
				c0.495,0.21,1.017,0.315,1.567,0.315c0.57,0,1.082-0.103,1.538-0.308c0.455-0.205,0.842-0.525,1.162-0.96
				c0.32-0.436,0.565-0.99,0.735-1.665c0.17-0.675,0.255-1.482,0.255-2.423c0-1.689-0.28-2.912-0.84-3.667
				c-0.561-0.755-1.365-1.133-2.415-1.133c-0.71,0-1.33,0.163-1.86,0.487c-0.53,0.325-1.035,0.783-1.515,1.373V83.476z"/>
			<path fill="#FF2455" d="M85.158,65.176v22.29h-3.705v-22.29H85.158z"/>
			<path fill="#FF2455" d="M93.213,67.591c0,0.32-0.065,0.62-0.195,0.9c-0.13,0.279-0.302,0.524-0.518,0.734
				c-0.215,0.21-0.467,0.378-0.757,0.503s-0.6,0.188-0.93,0.188c-0.32,0-0.622-0.063-0.907-0.188s-0.533-0.293-0.743-0.503
				s-0.377-0.455-0.502-0.734c-0.125-0.28-0.188-0.58-0.188-0.9c0-0.33,0.063-0.64,0.188-0.93s0.292-0.54,0.502-0.75
				s0.458-0.378,0.743-0.503s0.587-0.188,0.907-0.188c0.33,0,0.64,0.063,0.93,0.188s0.542,0.293,0.757,0.503
				c0.215,0.21,0.388,0.46,0.518,0.75S93.213,67.261,93.213,67.591z M92.703,72.076v15.39h-3.72v-15.39H92.703z"/>
			<path fill="#FF2455" d="M103.293,71.836c1.14,0,2.177,0.185,3.112,0.555s1.735,0.896,2.4,1.575s1.178,1.51,1.538,2.49
				c0.36,0.979,0.54,2.075,0.54,3.285c0,1.22-0.18,2.319-0.54,3.3c-0.36,0.979-0.873,1.814-1.538,2.505
				c-0.665,0.689-1.465,1.22-2.4,1.59s-1.973,0.555-3.112,0.555c-1.15,0-2.195-0.185-3.135-0.555s-1.743-0.9-2.407-1.59
				c-0.666-0.69-1.18-1.525-1.545-2.505c-0.365-0.98-0.548-2.08-0.548-3.3c0-1.21,0.183-2.306,0.548-3.285
				c0.365-0.98,0.879-1.811,1.545-2.49c0.665-0.68,1.467-1.205,2.407-1.575S102.143,71.836,103.293,71.836z M103.293,84.841
				c1.28,0,2.228-0.43,2.842-1.29c0.615-0.86,0.922-2.12,0.922-3.78c0-1.659-0.307-2.925-0.922-3.795
				c-0.615-0.87-1.563-1.305-2.842-1.305c-1.3,0-2.263,0.438-2.888,1.313s-0.938,2.138-0.938,3.787c0,1.65,0.313,2.908,0.938,3.772
				C101.03,84.408,101.993,84.841,103.293,84.841z"/>
			<path fill="#FF2455" d="M118.547,87.706c-1.34,0-2.368-0.378-3.083-1.133s-1.072-1.797-1.072-3.127v-8.596h-1.575
				c-0.2,0-0.37-0.064-0.51-0.194c-0.14-0.13-0.21-0.325-0.21-0.585v-1.471l2.475-0.404l0.78-4.2c0.05-0.2,0.145-0.355,0.285-0.465
				c0.14-0.11,0.32-0.165,0.54-0.165h1.92v4.845h4.11v2.64h-4.11v8.34c0,0.48,0.118,0.855,0.353,1.125
				c0.235,0.271,0.558,0.405,0.968,0.405c0.23,0,0.422-0.027,0.578-0.082c0.155-0.056,0.29-0.113,0.405-0.173
				c0.115-0.06,0.217-0.117,0.308-0.173c0.09-0.055,0.18-0.082,0.27-0.082c0.11,0,0.2,0.027,0.27,0.082
				c0.07,0.056,0.145,0.138,0.225,0.248l1.11,1.8c-0.54,0.45-1.16,0.79-1.86,1.02C120.022,87.591,119.297,87.706,118.547,87.706z"/>
			<path fill="#FF2455" d="M127.308,80.235c0.06,0.791,0.2,1.473,0.42,2.048c0.22,0.575,0.51,1.05,0.87,1.425
				c0.36,0.375,0.787,0.655,1.282,0.84c0.495,0.186,1.042,0.278,1.643,0.278s1.118-0.07,1.552-0.21
				c0.435-0.141,0.815-0.295,1.14-0.466c0.325-0.17,0.61-0.324,0.855-0.465c0.245-0.14,0.482-0.21,0.712-0.21
				c0.31,0,0.54,0.115,0.69,0.346l1.065,1.35c-0.41,0.479-0.87,0.883-1.38,1.207c-0.51,0.325-1.042,0.585-1.597,0.78
				c-0.555,0.195-1.12,0.332-1.695,0.413c-0.575,0.079-1.132,0.119-1.672,0.119c-1.07,0-2.065-0.178-2.985-0.532
				c-0.92-0.354-1.72-0.88-2.4-1.575c-0.68-0.694-1.215-1.555-1.605-2.58c-0.39-1.024-0.585-2.212-0.585-3.563
				c0-1.05,0.17-2.037,0.51-2.962s0.827-1.73,1.462-2.415s1.41-1.228,2.325-1.628c0.915-0.399,1.947-0.6,3.097-0.6
				c0.97,0,1.865,0.155,2.685,0.465c0.82,0.311,1.525,0.763,2.115,1.357c0.59,0.595,1.052,1.325,1.387,2.19s0.503,1.853,0.503,2.962
				c0,0.561-0.06,0.938-0.18,1.133s-0.35,0.292-0.69,0.292H127.308z M134.373,78.001c0-0.48-0.067-0.933-0.203-1.357
				c-0.135-0.425-0.337-0.798-0.607-1.118c-0.27-0.319-0.613-0.572-1.027-0.757c-0.416-0.186-0.898-0.277-1.448-0.277
				c-1.07,0-1.913,0.305-2.527,0.915c-0.615,0.609-1.008,1.475-1.178,2.595H134.373z"/>
			<path fill="#FF2455" d="M151.502,75.331c-0.11,0.14-0.217,0.25-0.322,0.33s-0.258,0.12-0.458,0.12
				c-0.19,0-0.375-0.058-0.555-0.173s-0.395-0.245-0.645-0.39c-0.25-0.146-0.547-0.275-0.893-0.391
				c-0.345-0.114-0.772-0.172-1.282-0.172c-0.65,0-1.22,0.117-1.71,0.353c-0.49,0.234-0.898,0.572-1.223,1.012
				c-0.325,0.44-0.568,0.973-0.728,1.598c-0.16,0.625-0.24,1.333-0.24,2.123c0,0.819,0.087,1.55,0.263,2.189
				c0.175,0.641,0.428,1.178,0.757,1.612c0.33,0.436,0.73,0.766,1.2,0.99c0.47,0.226,1,0.338,1.59,0.338s1.067-0.072,1.433-0.218
				c0.365-0.145,0.672-0.305,0.922-0.48c0.25-0.175,0.467-0.334,0.653-0.479c0.185-0.145,0.392-0.218,0.623-0.218
				c0.3,0,0.525,0.115,0.675,0.346l1.065,1.35c-0.41,0.479-0.855,0.883-1.335,1.207c-0.48,0.325-0.978,0.585-1.493,0.78
				s-1.045,0.332-1.59,0.413c-0.545,0.079-1.087,0.119-1.627,0.119c-0.95,0-1.845-0.178-2.685-0.532s-1.575-0.872-2.205-1.553
				c-0.63-0.68-1.127-1.512-1.492-2.497c-0.365-0.985-0.548-2.107-0.548-3.367c0-1.13,0.163-2.178,0.488-3.143
				c0.325-0.965,0.802-1.801,1.432-2.505c0.63-0.705,1.41-1.258,2.34-1.658c0.93-0.399,2-0.6,3.21-0.6
				c1.15,0,2.157,0.185,3.022,0.555c0.865,0.37,1.643,0.9,2.333,1.59L151.502,75.331z"/>
			<path fill="#FF2455" d="M154.578,74.221c1.77-1.62,3.9-2.43,6.39-2.43c0.9,0,1.705,0.147,2.415,0.442s1.31,0.705,1.8,1.229
				c0.49,0.525,0.862,1.153,1.117,1.883c0.255,0.73,0.383,1.53,0.383,2.4v9.72h-1.68c-0.35,0-0.62-0.053-0.81-0.157
				c-0.19-0.105-0.34-0.317-0.45-0.638l-0.33-1.11c-0.39,0.351-0.771,0.658-1.14,0.923c-0.37,0.265-0.755,0.487-1.155,0.667
				c-0.4,0.181-0.827,0.317-1.282,0.413c-0.455,0.095-0.958,0.143-1.507,0.143c-0.65,0-1.25-0.088-1.8-0.263
				s-1.025-0.438-1.425-0.787c-0.4-0.351-0.71-0.785-0.93-1.306c-0.22-0.52-0.33-1.125-0.33-1.814c0-0.391,0.065-0.777,0.195-1.163
				c0.13-0.385,0.342-0.752,0.637-1.103c0.295-0.35,0.677-0.68,1.147-0.989c0.47-0.311,1.047-0.58,1.732-0.811
				c0.685-0.229,1.482-0.417,2.393-0.563c0.91-0.145,1.95-0.232,3.12-0.263v-0.899c0-1.03-0.22-1.793-0.66-2.288
				s-1.075-0.742-1.905-0.742c-0.6,0-1.098,0.07-1.493,0.21c-0.395,0.141-0.742,0.298-1.042,0.473
				c-0.3,0.175-0.572,0.332-0.817,0.473c-0.245,0.14-0.518,0.21-0.817,0.21c-0.26,0-0.48-0.067-0.66-0.203
				c-0.18-0.135-0.325-0.292-0.435-0.472L154.578,74.221z M163.067,80.896c-1.07,0.051-1.97,0.143-2.7,0.277
				c-0.73,0.136-1.315,0.308-1.755,0.518s-0.755,0.455-0.945,0.735s-0.285,0.585-0.285,0.915c0,0.65,0.192,1.115,0.578,1.395
				c0.385,0.28,0.887,0.421,1.507,0.421c0.76,0,1.417-0.138,1.973-0.413c0.555-0.274,1.097-0.692,1.627-1.252V80.896z"/>
			<path fill="#FF2455" d="M181.232,89.476v2.4h-11.82v-2.4H181.232z"/>
			<path fill="#FF2455" d="M197.521,65.176v22.29h-2.265c-0.49,0-0.8-0.225-0.93-0.675l-0.315-1.485
				c-0.62,0.71-1.333,1.285-2.138,1.726c-0.805,0.439-1.743,0.659-2.813,0.659c-0.84,0-1.61-0.175-2.31-0.524
				c-0.7-0.351-1.302-0.857-1.807-1.522c-0.505-0.665-0.895-1.487-1.17-2.468c-0.275-0.979-0.412-2.1-0.412-3.36
				c0-1.14,0.155-2.199,0.465-3.18c0.31-0.979,0.755-1.83,1.335-2.55s1.275-1.282,2.085-1.688s1.72-0.607,2.73-0.607
				c0.86,0,1.595,0.135,2.205,0.405c0.61,0.27,1.155,0.635,1.635,1.095v-8.115H197.521z M193.817,76.006
				c-0.42-0.51-0.878-0.87-1.373-1.08c-0.495-0.21-1.028-0.315-1.598-0.315c-0.56,0-1.065,0.105-1.515,0.315
				c-0.45,0.21-0.835,0.527-1.155,0.952c-0.32,0.426-0.565,0.966-0.735,1.62c-0.17,0.655-0.255,1.428-0.255,2.317
				c0,0.9,0.073,1.663,0.218,2.288c0.145,0.625,0.353,1.135,0.623,1.53c0.27,0.395,0.6,0.68,0.99,0.854s0.825,0.263,1.305,0.263
				c0.77,0,1.425-0.16,1.965-0.48c0.54-0.319,1.05-0.774,1.53-1.364V76.006z"/>
			<path fill="#FF2455" d="M204.032,80.235c0.06,0.791,0.2,1.473,0.42,2.048c0.22,0.575,0.51,1.05,0.87,1.425
				c0.36,0.375,0.787,0.655,1.282,0.84c0.495,0.186,1.042,0.278,1.643,0.278s1.118-0.07,1.552-0.21
				c0.435-0.141,0.815-0.295,1.14-0.466c0.325-0.17,0.61-0.324,0.855-0.465c0.245-0.14,0.482-0.21,0.712-0.21
				c0.31,0,0.54,0.115,0.69,0.346l1.065,1.35c-0.41,0.479-0.87,0.883-1.38,1.207c-0.51,0.325-1.042,0.585-1.597,0.78
				c-0.555,0.195-1.12,0.332-1.695,0.413c-0.575,0.079-1.132,0.119-1.672,0.119c-1.07,0-2.065-0.178-2.985-0.532
				c-0.92-0.354-1.72-0.88-2.4-1.575c-0.68-0.694-1.215-1.555-1.605-2.58c-0.39-1.024-0.585-2.212-0.585-3.563
				c0-1.05,0.17-2.037,0.51-2.962s0.827-1.73,1.462-2.415s1.41-1.228,2.325-1.628c0.915-0.399,1.947-0.6,3.097-0.6
				c0.97,0,1.865,0.155,2.685,0.465c0.82,0.311,1.525,0.763,2.115,1.357c0.59,0.595,1.052,1.325,1.387,2.19s0.503,1.853,0.503,2.962
				c0,0.561-0.06,0.938-0.18,1.133s-0.35,0.292-0.69,0.292H204.032z M211.097,78.001c0-0.48-0.067-0.933-0.203-1.357
				c-0.135-0.425-0.337-0.798-0.607-1.118c-0.27-0.319-0.613-0.572-1.027-0.757c-0.416-0.186-0.898-0.277-1.448-0.277
				c-1.07,0-1.913,0.305-2.527,0.915c-0.615,0.609-1.008,1.475-1.178,2.595H211.097z"/>
			<path fill="#FF2455" d="M228.271,89.476v2.4h-11.82v-2.4H228.271z"/>
			<path fill="#FF2455" d="M231.196,87.466v-15.39h2.265c0.48,0,0.795,0.225,0.945,0.675l0.24,1.14
				c0.27-0.3,0.553-0.575,0.848-0.825c0.295-0.249,0.61-0.465,0.945-0.645s0.695-0.322,1.08-0.428
				c0.385-0.104,0.808-0.157,1.268-0.157c0.97,0,1.768,0.263,2.393,0.787c0.625,0.525,1.092,1.223,1.402,2.093
				c0.24-0.51,0.54-0.947,0.9-1.313c0.36-0.365,0.755-0.662,1.185-0.893c0.43-0.229,0.888-0.399,1.373-0.51s0.973-0.165,1.462-0.165
				c0.85,0,1.605,0.13,2.265,0.39c0.66,0.261,1.215,0.641,1.665,1.141c0.45,0.5,0.792,1.109,1.027,1.83
				c0.235,0.72,0.353,1.545,0.353,2.475v9.795h-3.705v-9.795c0-0.98-0.215-1.718-0.645-2.213c-0.43-0.495-1.06-0.742-1.89-0.742
				c-0.38,0-0.733,0.065-1.058,0.195c-0.325,0.13-0.61,0.317-0.855,0.563s-0.438,0.553-0.578,0.922
				c-0.14,0.37-0.21,0.795-0.21,1.275v9.795h-3.72v-9.795c0-1.03-0.208-1.78-0.623-2.25c-0.415-0.47-1.022-0.705-1.823-0.705
				c-0.54,0-1.042,0.133-1.507,0.397s-0.897,0.628-1.297,1.088v11.265H231.196z"/>
			<path fill="#FF2455" d="M255.961,74.221c1.77-1.62,3.9-2.43,6.39-2.43c0.9,0,1.705,0.147,2.415,0.442s1.31,0.705,1.8,1.229
				c0.49,0.525,0.862,1.153,1.117,1.883c0.255,0.73,0.383,1.53,0.383,2.4v9.72h-1.68c-0.35,0-0.62-0.053-0.81-0.157
				c-0.19-0.105-0.34-0.317-0.45-0.638l-0.33-1.11c-0.39,0.351-0.771,0.658-1.14,0.923c-0.37,0.265-0.755,0.487-1.155,0.667
				c-0.4,0.181-0.827,0.317-1.282,0.413c-0.455,0.095-0.958,0.143-1.507,0.143c-0.65,0-1.25-0.088-1.8-0.263
				s-1.025-0.438-1.425-0.787c-0.4-0.351-0.71-0.785-0.93-1.306c-0.22-0.52-0.33-1.125-0.33-1.814c0-0.391,0.065-0.777,0.195-1.163
				c0.13-0.385,0.342-0.752,0.637-1.103c0.295-0.35,0.677-0.68,1.147-0.989c0.47-0.311,1.047-0.58,1.732-0.811
				c0.685-0.229,1.482-0.417,2.393-0.563c0.91-0.145,1.95-0.232,3.12-0.263v-0.899c0-1.03-0.22-1.793-0.66-2.288
				s-1.075-0.742-1.905-0.742c-0.6,0-1.098,0.07-1.493,0.21c-0.395,0.141-0.742,0.298-1.042,0.473
				c-0.3,0.175-0.572,0.332-0.817,0.473c-0.245,0.14-0.518,0.21-0.817,0.21c-0.26,0-0.48-0.067-0.66-0.203
				c-0.18-0.135-0.325-0.292-0.435-0.472L255.961,74.221z M264.451,80.896c-1.07,0.051-1.97,0.143-2.7,0.277
				c-0.73,0.136-1.315,0.308-1.755,0.518s-0.755,0.455-0.945,0.735s-0.285,0.585-0.285,0.915c0,0.65,0.192,1.115,0.578,1.395
				c0.385,0.28,0.887,0.421,1.507,0.421c0.76,0,1.417-0.138,1.973-0.413c0.555-0.274,1.097-0.692,1.627-1.252V80.896z"/>
			<path fill="#FF2455" d="M275.041,74.746c0.48-0.92,1.05-1.643,1.71-2.168c0.66-0.524,1.44-0.787,2.34-0.787
				c0.71,0,1.28,0.155,1.71,0.465l-0.24,2.775c-0.05,0.18-0.123,0.307-0.218,0.382s-0.223,0.112-0.382,0.112
				c-0.15,0-0.373-0.024-0.667-0.074c-0.295-0.05-0.583-0.075-0.863-0.075c-0.41,0-0.775,0.06-1.095,0.18
				c-0.32,0.12-0.607,0.293-0.863,0.518c-0.255,0.225-0.48,0.498-0.675,0.817c-0.195,0.32-0.377,0.686-0.547,1.095v9.48h-3.705
				v-15.39h2.175c0.38,0,0.645,0.067,0.795,0.202c0.15,0.135,0.25,0.378,0.3,0.728L275.041,74.746z"/>
		</g>
	</g>
	<g>
		<circle fill="#337C98" cx="438.044" cy="407.389" r="43.163"/>
	</g>
	<g>
		
			<line fill="none" stroke="#337C98" stroke-width="10" stroke-linecap="round" stroke-linejoin="round" stroke-miterlimit="10" x1="535.862" y1="530.047" x2="491.742" y2="453.017"/>
		
			<polyline fill="none" stroke="#337C98" stroke-width="10" stroke-linecap="round" stroke-linejoin="round" stroke-miterlimit="10" points="
			542.601,518.947 538.763,535.111 522.877,530.244 		"/>
	</g>
	<g>
		
			<line fill="none" stroke="#337C98" stroke-width="10" stroke-linecap="round" stroke-linejoin="round" stroke-miterlimit="10" x1="438.424" y1="573.4" x2="438.643" y2="476.624"/>
		
			<polyline fill="none" stroke="#337C98" stroke-width="10" stroke-linecap="round" stroke-linejoin="round" stroke-miterlimit="10" points="
			427.086,567.074 438.405,579.24 449.815,567.164 		"/>
	</g>
	<g>
		
			<line fill="none" stroke="#337C98" stroke-width="10" stroke-linecap="round" stroke-linejoin="round" stroke-miterlimit="10" x1="336.481" y1="528.047" x2="380.601" y2="451.017"/>
		
			<polyline fill="none" stroke="#337C98" stroke-width="10" stroke-linecap="round" stroke-linejoin="round" stroke-miterlimit="10" points="
			329.742,516.947 333.58,533.111 349.465,528.244 		"/>
	</g>
	<g>
		<path fill="#337C98" d="M358.201,588.571c0,31.468-40.584,56.977-90.646,56.977c-50.052,0-90.633-25.509-90.633-56.977
			c0-31.467,40.581-56.976,90.633-56.976C317.617,531.596,358.201,557.104,358.201,588.571z"/>
	</g>
	<g>
		<g>
			<path fill="#FFFFFF" d="M207.713,572.37v2.448l-0.187,1.326c-0.045,0.249-0.119,0.44-0.221,0.573
				c-0.102,0.134-0.272,0.2-0.51,0.2c-0.209,0-0.371-0.066-0.484-0.2c-0.113-0.133-0.193-0.324-0.238-0.573l-0.187-1.326v-2.448
				H207.713z M210.841,572.37v2.448l-0.187,1.326c-0.045,0.249-0.119,0.44-0.221,0.573c-0.102,0.134-0.272,0.2-0.51,0.2
				c-0.209,0-0.371-0.066-0.484-0.2c-0.113-0.133-0.193-0.324-0.238-0.573l-0.187-1.326v-2.448H210.841z"/>
			<path fill="#FFFFFF" d="M220.293,582.774v1.887h-7.199V572.37h2.286v10.404H220.293z"/>
			<path fill="#FFFFFF" d="M221.39,577.155c1.003-0.918,2.21-1.377,3.621-1.377c0.51,0,0.966,0.084,1.368,0.251
				s0.743,0.399,1.02,0.697c0.278,0.297,0.489,0.653,0.633,1.066c0.145,0.414,0.217,0.867,0.217,1.36v5.508h-0.952
				c-0.199,0-0.352-0.029-0.459-0.089c-0.108-0.06-0.193-0.181-0.255-0.361l-0.187-0.629c-0.221,0.198-0.436,0.372-0.646,0.522
				c-0.209,0.15-0.428,0.276-0.654,0.378c-0.227,0.103-0.469,0.18-0.727,0.234c-0.258,0.054-0.542,0.08-0.854,0.08
				c-0.369,0-0.708-0.05-1.02-0.148c-0.312-0.1-0.581-0.248-0.808-0.446s-0.402-0.444-0.527-0.739s-0.187-0.638-0.187-1.028
				c0-0.222,0.037-0.441,0.11-0.659s0.194-0.427,0.361-0.625s0.384-0.385,0.65-0.561c0.266-0.176,0.593-0.329,0.981-0.459
				c0.388-0.131,0.84-0.236,1.356-0.319c0.516-0.082,1.105-0.132,1.768-0.148v-0.51c0-0.584-0.125-1.016-0.374-1.297
				c-0.25-0.28-0.609-0.42-1.08-0.42c-0.34,0-0.622,0.039-0.846,0.118c-0.224,0.08-0.421,0.169-0.591,0.269
				c-0.17,0.099-0.324,0.188-0.463,0.268c-0.139,0.079-0.293,0.119-0.463,0.119c-0.147,0-0.272-0.039-0.374-0.115
				s-0.184-0.166-0.247-0.268L221.39,577.155z M226.201,580.938c-0.606,0.028-1.117,0.08-1.53,0.157
				c-0.414,0.076-0.745,0.174-0.994,0.293c-0.25,0.119-0.428,0.258-0.536,0.416c-0.108,0.159-0.162,0.332-0.162,0.519
				c0,0.369,0.109,0.632,0.327,0.791c0.218,0.158,0.503,0.238,0.854,0.238c0.431,0,0.803-0.078,1.118-0.234
				c0.314-0.155,0.622-0.393,0.922-0.71V580.938z"/>
			<path fill="#FFFFFF" d="M236.817,573.398c0,0.182-0.037,0.352-0.11,0.51c-0.074,0.159-0.171,0.298-0.293,0.417
				c-0.122,0.119-0.265,0.214-0.429,0.285c-0.165,0.07-0.34,0.105-0.527,0.105c-0.182,0-0.353-0.035-0.514-0.105
				c-0.162-0.071-0.302-0.166-0.421-0.285s-0.214-0.258-0.285-0.417c-0.071-0.158-0.106-0.328-0.106-0.51
				c0-0.187,0.036-0.362,0.106-0.526c0.071-0.165,0.166-0.307,0.285-0.426s0.259-0.214,0.421-0.284
				c0.161-0.071,0.333-0.106,0.514-0.106c0.187,0,0.362,0.035,0.527,0.106c0.165,0.07,0.308,0.165,0.429,0.284
				c0.122,0.119,0.22,0.261,0.293,0.426C236.78,573.036,236.817,573.212,236.817,573.398z M236.528,575.94v8.721h-2.108v-8.721
				H236.528z"/>
			<path fill="#FFFFFF" d="M240.633,577.011c0.176-0.175,0.361-0.338,0.557-0.488c0.196-0.15,0.402-0.277,0.621-0.383
				c0.218-0.104,0.452-0.187,0.701-0.246s0.521-0.09,0.816-0.09c0.476,0,0.898,0.081,1.267,0.242
				c0.368,0.162,0.676,0.389,0.922,0.681s0.434,0.641,0.561,1.045c0.127,0.405,0.191,0.852,0.191,1.339v5.551h-2.1v-5.551
				c0-0.532-0.122-0.944-0.366-1.236s-0.615-0.438-1.113-0.438c-0.363,0-0.703,0.082-1.02,0.246s-0.618,0.389-0.901,0.672v6.307
				h-2.1v-8.721h1.283c0.272,0,0.451,0.127,0.536,0.382L240.633,577.011z"/>
			<path fill="#FFFFFF" d="M253.579,577.64c-0.057,0.091-0.116,0.155-0.178,0.191c-0.063,0.037-0.142,0.056-0.238,0.056
				c-0.102,0-0.211-0.028-0.327-0.085s-0.251-0.12-0.404-0.191c-0.153-0.07-0.327-0.135-0.522-0.191
				c-0.196-0.057-0.427-0.085-0.693-0.085c-0.414,0-0.738,0.088-0.973,0.264c-0.235,0.176-0.353,0.405-0.353,0.688
				c0,0.187,0.061,0.345,0.183,0.472c0.122,0.128,0.284,0.239,0.485,0.336c0.201,0.097,0.429,0.183,0.684,0.259
				c0.255,0.077,0.514,0.16,0.778,0.251c0.263,0.091,0.522,0.194,0.778,0.311c0.255,0.116,0.483,0.264,0.684,0.441
				c0.201,0.179,0.363,0.393,0.484,0.643c0.122,0.249,0.183,0.549,0.183,0.9c0,0.42-0.075,0.807-0.226,1.16
				c-0.15,0.354-0.373,0.66-0.667,0.918c-0.295,0.258-0.659,0.459-1.092,0.604s-0.934,0.217-1.5,0.217
				c-0.3,0-0.594-0.026-0.879-0.08c-0.287-0.055-0.561-0.129-0.825-0.226s-0.507-0.21-0.731-0.34
				c-0.224-0.131-0.421-0.272-0.591-0.425l0.484-0.8c0.063-0.096,0.136-0.17,0.221-0.221s0.192-0.076,0.323-0.076
				s0.254,0.037,0.37,0.11c0.116,0.073,0.25,0.153,0.403,0.238c0.153,0.085,0.333,0.164,0.54,0.237
				c0.207,0.074,0.469,0.11,0.786,0.11c0.25,0,0.463-0.029,0.642-0.089c0.179-0.06,0.326-0.138,0.442-0.233
				c0.116-0.097,0.201-0.209,0.255-0.336c0.054-0.128,0.081-0.26,0.081-0.396c0-0.204-0.061-0.371-0.183-0.501
				c-0.122-0.131-0.283-0.244-0.484-0.341c-0.201-0.096-0.431-0.183-0.688-0.259c-0.258-0.076-0.521-0.16-0.791-0.251
				c-0.27-0.091-0.533-0.196-0.791-0.318s-0.487-0.276-0.688-0.464c-0.201-0.187-0.363-0.416-0.484-0.688
				c-0.122-0.271-0.183-0.601-0.183-0.985c0-0.357,0.071-0.697,0.212-1.021c0.142-0.322,0.35-0.604,0.625-0.846
				c0.275-0.24,0.618-0.434,1.028-0.578c0.411-0.145,0.885-0.217,1.424-0.217c0.601,0,1.147,0.1,1.641,0.298
				s0.904,0.459,1.232,0.782L253.579,577.64z"/>
			<path fill="#FFFFFF" d="M259.588,575.804c0.646,0,1.234,0.105,1.764,0.314c0.53,0.21,0.983,0.508,1.36,0.893
				c0.377,0.386,0.667,0.856,0.872,1.411c0.204,0.556,0.306,1.176,0.306,1.861c0,0.691-0.102,1.315-0.306,1.87
				c-0.204,0.556-0.495,1.029-0.872,1.42c-0.376,0.391-0.83,0.691-1.36,0.901c-0.53,0.209-1.118,0.314-1.764,0.314
				c-0.652,0-1.244-0.105-1.776-0.314c-0.533-0.21-0.988-0.511-1.364-0.901c-0.377-0.391-0.669-0.864-0.875-1.42
				c-0.207-0.555-0.311-1.179-0.311-1.87c0-0.686,0.104-1.306,0.311-1.861c0.207-0.555,0.499-1.025,0.875-1.411
				c0.376-0.385,0.832-0.683,1.364-0.893C258.344,575.909,258.937,575.804,259.588,575.804z M259.588,583.174
				c0.725,0,1.262-0.244,1.611-0.731s0.522-1.201,0.522-2.142s-0.174-1.657-0.522-2.15s-0.886-0.74-1.611-0.74
				c-0.737,0-1.282,0.248-1.636,0.744s-0.531,1.211-0.531,2.146c0,0.935,0.177,1.647,0.531,2.138S258.852,583.174,259.588,583.174z"
				/>
			<path fill="#FFFFFF" d="M267.484,577.13c0.357-0.402,0.762-0.728,1.216-0.978c0.453-0.249,0.986-0.374,1.598-0.374
				c0.476,0,0.911,0.1,1.305,0.298c0.394,0.198,0.734,0.486,1.02,0.862c0.286,0.377,0.507,0.842,0.663,1.395
				s0.234,1.186,0.234,1.899c0,0.652-0.088,1.256-0.264,1.811c-0.176,0.556-0.426,1.037-0.752,1.445
				c-0.326,0.408-0.72,0.727-1.182,0.956s-0.979,0.345-1.551,0.345c-0.487,0-0.904-0.075-1.25-0.226s-0.654-0.358-0.926-0.625v3.57
				h-2.1V575.94h1.283c0.272,0,0.451,0.127,0.536,0.382L267.484,577.13z M267.595,582.4c0.238,0.289,0.497,0.493,0.777,0.611
				c0.281,0.119,0.585,0.179,0.914,0.179c0.317,0,0.604-0.06,0.858-0.179c0.255-0.118,0.472-0.3,0.65-0.544
				c0.178-0.243,0.315-0.551,0.412-0.922c0.096-0.371,0.145-0.809,0.145-1.313c0-0.51-0.041-0.941-0.124-1.296
				c-0.082-0.354-0.2-0.642-0.353-0.863c-0.153-0.221-0.339-0.382-0.557-0.484c-0.218-0.102-0.466-0.152-0.744-0.152
				c-0.437,0-0.808,0.092-1.114,0.275c-0.306,0.185-0.595,0.444-0.867,0.778V582.4z"/>
			<path fill="#FFFFFF" d="M279.011,575.804c0.646,0,1.234,0.105,1.764,0.314c0.53,0.21,0.983,0.508,1.36,0.893
				c0.377,0.386,0.667,0.856,0.872,1.411c0.204,0.556,0.305,1.176,0.305,1.861c0,0.691-0.102,1.315-0.305,1.87
				c-0.204,0.556-0.495,1.029-0.872,1.42c-0.376,0.391-0.83,0.691-1.36,0.901c-0.53,0.209-1.118,0.314-1.764,0.314
				c-0.652,0-1.244-0.105-1.776-0.314c-0.533-0.21-0.988-0.511-1.364-0.901c-0.377-0.391-0.669-0.864-0.875-1.42
				c-0.207-0.555-0.311-1.179-0.311-1.87c0-0.686,0.104-1.306,0.311-1.861c0.207-0.555,0.499-1.025,0.875-1.411
				c0.376-0.385,0.832-0.683,1.364-0.893C277.767,575.909,278.359,575.804,279.011,575.804z M279.011,583.174
				c0.725,0,1.262-0.244,1.611-0.731s0.522-1.201,0.522-2.142s-0.174-1.657-0.522-2.15s-0.886-0.74-1.611-0.74
				c-0.737,0-1.282,0.248-1.636,0.744s-0.531,1.211-0.531,2.146c0,0.935,0.177,1.647,0.531,2.138S278.274,583.174,279.011,583.174z"
				/>
			<path fill="#FFFFFF" d="M286.899,577.453c0.271-0.521,0.594-0.931,0.969-1.229c0.373-0.297,0.816-0.446,1.326-0.446
				c0.402,0,0.725,0.088,0.969,0.264l-0.137,1.572c-0.027,0.103-0.068,0.175-0.123,0.217c-0.054,0.043-0.126,0.064-0.217,0.064
				c-0.084,0-0.211-0.015-0.378-0.043s-0.33-0.042-0.489-0.042c-0.232,0-0.438,0.033-0.62,0.102
				c-0.181,0.068-0.345,0.166-0.489,0.293c-0.145,0.128-0.271,0.282-0.382,0.464c-0.11,0.181-0.214,0.388-0.31,0.62v5.372h-2.1
				v-8.721h1.232c0.215,0,0.365,0.038,0.45,0.114c0.085,0.077,0.142,0.214,0.17,0.412L286.899,577.453z"/>
			<path fill="#FFFFFF" d="M294.166,584.797c-0.759,0-1.341-0.214-1.747-0.642c-0.404-0.428-0.607-1.019-0.607-1.772v-4.87h-0.893
				c-0.113,0-0.209-0.037-0.289-0.11c-0.079-0.074-0.119-0.185-0.119-0.332v-0.833l1.402-0.229l0.442-2.38
				c0.028-0.113,0.083-0.201,0.161-0.264c0.08-0.062,0.182-0.093,0.307-0.093h1.088v2.745h2.329v1.496h-2.329v4.726
				c0,0.272,0.066,0.484,0.199,0.638c0.134,0.153,0.316,0.229,0.549,0.229c0.131,0,0.239-0.016,0.327-0.047s0.165-0.063,0.229-0.098
				s0.123-0.066,0.174-0.098c0.052-0.031,0.103-0.047,0.153-0.047c0.063,0,0.113,0.016,0.153,0.047
				c0.039,0.031,0.082,0.078,0.127,0.141l0.629,1.02c-0.306,0.255-0.656,0.448-1.054,0.578
				C295.001,584.731,294.59,584.797,294.166,584.797z"/>
			<path fill="#FFFFFF" d="M297.378,577.155c1.003-0.918,2.21-1.377,3.621-1.377c0.51,0,0.966,0.084,1.368,0.251
				s0.742,0.399,1.02,0.697c0.278,0.297,0.489,0.653,0.634,1.066c0.145,0.414,0.217,0.867,0.217,1.36v5.508h-0.952
				c-0.198,0-0.352-0.029-0.459-0.089s-0.192-0.181-0.255-0.361l-0.187-0.629c-0.221,0.198-0.437,0.372-0.646,0.522
				c-0.209,0.15-0.428,0.276-0.654,0.378c-0.227,0.103-0.469,0.18-0.727,0.234c-0.258,0.054-0.543,0.08-0.854,0.08
				c-0.368,0-0.708-0.05-1.021-0.148c-0.311-0.1-0.58-0.248-0.807-0.446s-0.402-0.444-0.527-0.739s-0.188-0.638-0.188-1.028
				c0-0.222,0.037-0.441,0.111-0.659c0.073-0.218,0.193-0.427,0.361-0.625c0.166-0.198,0.383-0.385,0.65-0.561
				c0.266-0.176,0.593-0.329,0.98-0.459c0.389-0.131,0.841-0.236,1.356-0.319c0.516-0.082,1.104-0.132,1.769-0.148v-0.51
				c0-0.584-0.125-1.016-0.375-1.297c-0.249-0.28-0.609-0.42-1.079-0.42c-0.34,0-0.622,0.039-0.846,0.118
				c-0.224,0.08-0.421,0.169-0.591,0.269c-0.17,0.099-0.324,0.188-0.463,0.268s-0.293,0.119-0.463,0.119
				c-0.148,0-0.272-0.039-0.375-0.115c-0.102-0.076-0.184-0.166-0.246-0.268L297.378,577.155z M302.19,580.938
				c-0.607,0.028-1.117,0.08-1.531,0.157c-0.413,0.076-0.744,0.174-0.994,0.293c-0.249,0.119-0.428,0.258-0.535,0.416
				c-0.107,0.159-0.162,0.332-0.162,0.519c0,0.369,0.109,0.632,0.328,0.791c0.218,0.158,0.502,0.238,0.854,0.238
				c0.432,0,0.804-0.078,1.118-0.234c0.314-0.155,0.622-0.393,0.923-0.71V580.938z"/>
			<path fill="#FFFFFF" d="M308.309,577.011c0.352-0.368,0.741-0.661,1.169-0.879c0.428-0.219,0.917-0.328,1.466-0.328
				c0.505,0,0.959,0.1,1.365,0.298c0.404,0.198,0.75,0.483,1.037,0.854c0.285,0.371,0.506,0.82,0.658,1.347
				c0.152,0.527,0.229,1.119,0.229,1.777c0,0.708-0.088,1.351-0.264,1.929s-0.427,1.073-0.752,1.483
				c-0.326,0.411-0.718,0.729-1.177,0.956s-0.97,0.341-1.531,0.341c-0.271,0-0.518-0.027-0.738-0.081
				c-0.222-0.054-0.426-0.129-0.613-0.226c-0.187-0.096-0.357-0.214-0.514-0.353s-0.305-0.293-0.446-0.463l-0.093,0.586
				c-0.035,0.147-0.093,0.252-0.175,0.314s-0.194,0.094-0.336,0.094h-1.386V572.03h2.1V577.011z M308.309,582.4
				c0.238,0.289,0.498,0.493,0.777,0.611c0.281,0.119,0.577,0.179,0.889,0.179c0.323,0,0.613-0.058,0.871-0.174
				s0.478-0.298,0.659-0.544c0.181-0.247,0.319-0.562,0.417-0.943c0.096-0.383,0.145-0.841,0.145-1.373
				c0-0.958-0.159-1.65-0.477-2.078s-0.773-0.642-1.369-0.642c-0.402,0-0.753,0.092-1.053,0.275
				c-0.301,0.185-0.587,0.444-0.859,0.778V582.4z"/>
			<path fill="#FFFFFF" d="M317.983,572.03v12.631h-2.1V572.03H317.983z"/>
			<path fill="#FFFFFF" d="M321.696,580.564c0.035,0.447,0.113,0.834,0.238,1.16s0.289,0.595,0.493,0.808
				c0.204,0.212,0.446,0.371,0.728,0.476c0.279,0.105,0.59,0.157,0.93,0.157s0.634-0.039,0.881-0.119
				c0.246-0.079,0.461-0.167,0.646-0.264c0.185-0.096,0.345-0.184,0.484-0.263c0.139-0.08,0.273-0.119,0.403-0.119
				c0.176,0,0.307,0.065,0.392,0.195l0.604,0.765c-0.232,0.272-0.493,0.5-0.782,0.685s-0.591,0.331-0.905,0.442
				c-0.314,0.11-0.635,0.188-0.96,0.233c-0.326,0.045-0.643,0.068-0.948,0.068c-0.606,0-1.171-0.102-1.691-0.302
				c-0.521-0.201-0.975-0.499-1.36-0.893c-0.385-0.395-0.688-0.882-0.909-1.462c-0.222-0.581-0.331-1.254-0.331-2.02
				c0-0.595,0.096-1.154,0.289-1.679c0.191-0.523,0.469-0.979,0.828-1.368c0.359-0.388,0.799-0.695,1.317-0.922
				s1.104-0.341,1.755-0.341c0.551,0,1.057,0.088,1.521,0.264s0.865,0.433,1.199,0.77s0.596,0.751,0.786,1.241
				s0.284,1.05,0.284,1.679c0,0.317-0.033,0.531-0.102,0.642s-0.198,0.166-0.391,0.166H321.696z M325.7,579.298
				c0-0.272-0.038-0.528-0.115-0.77c-0.076-0.241-0.19-0.452-0.344-0.633c-0.152-0.182-0.348-0.324-0.582-0.43
				c-0.235-0.104-0.509-0.157-0.82-0.157c-0.606,0-1.084,0.173-1.432,0.519c-0.35,0.346-0.571,0.836-0.668,1.471H325.7z"/>
			<path fill="#FFFFFF" d="M209.919,592.431v12.631h-2.1v-12.631H209.919z"/>
			<path fill="#FFFFFF" d="M213.633,600.965c0.034,0.447,0.113,0.834,0.238,1.16c0.125,0.326,0.289,0.595,0.493,0.808
				c0.204,0.212,0.446,0.371,0.727,0.476c0.28,0.105,0.591,0.157,0.931,0.157s0.633-0.039,0.88-0.119
				c0.247-0.079,0.461-0.167,0.646-0.264c0.184-0.096,0.345-0.184,0.484-0.263c0.139-0.08,0.273-0.119,0.404-0.119
				c0.175,0,0.306,0.065,0.391,0.195l0.604,0.765c-0.232,0.272-0.493,0.5-0.782,0.685s-0.591,0.331-0.905,0.442
				c-0.314,0.11-0.635,0.188-0.96,0.233c-0.326,0.045-0.642,0.068-0.948,0.068c-0.606,0-1.17-0.102-1.691-0.302
				c-0.521-0.201-0.975-0.499-1.36-0.893c-0.385-0.395-0.688-0.882-0.909-1.462c-0.221-0.581-0.332-1.254-0.332-2.02
				c0-0.595,0.096-1.154,0.289-1.679c0.192-0.523,0.469-0.979,0.829-1.368c0.36-0.388,0.799-0.695,1.317-0.922
				s1.104-0.341,1.755-0.341c0.55,0,1.057,0.088,1.521,0.264s0.864,0.433,1.199,0.77c0.334,0.337,0.596,0.751,0.786,1.241
				s0.285,1.05,0.285,1.679c0,0.317-0.034,0.531-0.102,0.642s-0.198,0.166-0.391,0.166H213.633z M217.636,599.698
				c0-0.272-0.038-0.528-0.115-0.77c-0.076-0.241-0.191-0.452-0.344-0.633c-0.153-0.182-0.347-0.324-0.582-0.43
				c-0.235-0.104-0.509-0.157-0.82-0.157c-0.606,0-1.083,0.173-1.432,0.519s-0.571,0.836-0.667,1.471H217.636z"/>
			<path fill="#FFFFFF" d="M228.738,596.341l-3.459,8.721h-1.904l-3.459-8.721h1.734c0.159,0,0.29,0.037,0.395,0.11
				s0.174,0.167,0.208,0.28l1.683,4.658c0.09,0.271,0.17,0.538,0.238,0.799s0.127,0.521,0.179,0.782
				c0.057-0.261,0.119-0.521,0.187-0.782c0.068-0.261,0.15-0.527,0.246-0.799l1.717-4.658c0.04-0.113,0.11-0.207,0.212-0.28
				s0.224-0.11,0.366-0.11H228.738z"/>
			<path fill="#FFFFFF" d="M231.194,600.965c0.034,0.447,0.113,0.834,0.238,1.16c0.125,0.326,0.289,0.595,0.493,0.808
				c0.204,0.212,0.446,0.371,0.727,0.476c0.28,0.105,0.591,0.157,0.931,0.157s0.633-0.039,0.88-0.119
				c0.247-0.079,0.461-0.167,0.646-0.264c0.184-0.096,0.345-0.184,0.484-0.263c0.139-0.08,0.273-0.119,0.404-0.119
				c0.175,0,0.306,0.065,0.391,0.195l0.604,0.765c-0.232,0.272-0.493,0.5-0.782,0.685s-0.591,0.331-0.905,0.442
				c-0.314,0.11-0.635,0.188-0.96,0.233c-0.326,0.045-0.642,0.068-0.948,0.068c-0.606,0-1.17-0.102-1.691-0.302
				c-0.521-0.201-0.975-0.499-1.36-0.893c-0.385-0.395-0.688-0.882-0.909-1.462c-0.221-0.581-0.332-1.254-0.332-2.02
				c0-0.595,0.096-1.154,0.289-1.679c0.192-0.523,0.469-0.979,0.829-1.368c0.36-0.388,0.799-0.695,1.317-0.922
				s1.104-0.341,1.755-0.341c0.55,0,1.057,0.088,1.521,0.264s0.864,0.433,1.199,0.77c0.334,0.337,0.596,0.751,0.786,1.241
				s0.285,1.05,0.285,1.679c0,0.317-0.034,0.531-0.102,0.642s-0.198,0.166-0.391,0.166H231.194z M235.198,599.698
				c0-0.272-0.038-0.528-0.115-0.77c-0.076-0.241-0.191-0.452-0.344-0.633c-0.153-0.182-0.347-0.324-0.582-0.43
				c-0.235-0.104-0.509-0.157-0.82-0.157c-0.606,0-1.083,0.173-1.432,0.519s-0.571,0.836-0.667,1.471H235.198z"/>
			<path fill="#FFFFFF" d="M246.231,592.431v12.631h-1.283c-0.278,0-0.454-0.128-0.527-0.383l-0.178-0.841
				c-0.352,0.402-0.755,0.728-1.211,0.978c-0.456,0.249-0.987,0.374-1.594,0.374c-0.476,0-0.912-0.1-1.309-0.298
				c-0.396-0.198-0.738-0.486-1.024-0.863c-0.286-0.376-0.507-0.843-0.663-1.397c-0.156-0.556-0.234-1.19-0.234-1.904
				c0-0.646,0.088-1.247,0.264-1.802c0.175-0.556,0.428-1.037,0.756-1.445s0.723-0.727,1.182-0.956s0.975-0.345,1.547-0.345
				c0.487,0,0.904,0.077,1.25,0.229c0.346,0.153,0.654,0.36,0.927,0.621v-4.599H246.231z M244.132,598.567
				c-0.238-0.289-0.498-0.493-0.778-0.612c-0.281-0.118-0.583-0.178-0.905-0.178c-0.317,0-0.604,0.06-0.858,0.178
				c-0.255,0.119-0.474,0.3-0.655,0.54c-0.181,0.241-0.32,0.547-0.417,0.918s-0.145,0.81-0.145,1.313
				c0,0.51,0.041,0.942,0.124,1.296c0.082,0.354,0.2,0.644,0.353,0.867s0.34,0.386,0.561,0.484c0.221,0.1,0.467,0.149,0.739,0.149
				c0.437,0,0.808-0.091,1.114-0.272s0.595-0.439,0.867-0.773V598.567z"/>
			<path fill="#FFFFFF" d="M248.101,597.556c1.003-0.918,2.21-1.377,3.621-1.377c0.51,0,0.966,0.084,1.368,0.251
				s0.743,0.399,1.02,0.697c0.278,0.297,0.489,0.653,0.633,1.066c0.145,0.414,0.217,0.867,0.217,1.36v5.508h-0.952
				c-0.199,0-0.352-0.029-0.459-0.089c-0.108-0.06-0.193-0.181-0.255-0.361l-0.187-0.629c-0.221,0.198-0.436,0.372-0.646,0.522
				c-0.209,0.15-0.428,0.276-0.654,0.378c-0.227,0.103-0.469,0.18-0.727,0.234c-0.258,0.054-0.542,0.08-0.854,0.08
				c-0.369,0-0.708-0.05-1.02-0.148c-0.312-0.1-0.581-0.248-0.808-0.446s-0.402-0.444-0.527-0.739s-0.187-0.638-0.187-1.028
				c0-0.222,0.037-0.441,0.11-0.659s0.194-0.427,0.361-0.625s0.384-0.385,0.65-0.561c0.266-0.176,0.593-0.329,0.981-0.459
				c0.388-0.131,0.84-0.236,1.356-0.319c0.516-0.082,1.105-0.132,1.768-0.148v-0.51c0-0.584-0.125-1.016-0.374-1.297
				c-0.25-0.28-0.609-0.42-1.08-0.42c-0.34,0-0.622,0.039-0.846,0.118c-0.224,0.08-0.421,0.169-0.591,0.269
				c-0.17,0.099-0.324,0.188-0.463,0.268c-0.139,0.079-0.293,0.119-0.463,0.119c-0.147,0-0.272-0.039-0.374-0.115
				s-0.184-0.166-0.247-0.268L248.101,597.556z M252.912,601.339c-0.606,0.028-1.117,0.08-1.53,0.157
				c-0.414,0.076-0.745,0.174-0.994,0.293c-0.25,0.119-0.428,0.258-0.536,0.416c-0.108,0.159-0.162,0.332-0.162,0.519
				c0,0.369,0.109,0.632,0.327,0.791c0.218,0.158,0.503,0.238,0.854,0.238c0.431,0,0.803-0.078,1.118-0.234
				c0.314-0.155,0.622-0.393,0.922-0.71V601.339z"/>
			<path fill="#FFFFFF" d="M264.505,592.431v12.631h-1.283c-0.278,0-0.454-0.128-0.527-0.383l-0.178-0.841
				c-0.352,0.402-0.755,0.728-1.211,0.978c-0.456,0.249-0.987,0.374-1.594,0.374c-0.476,0-0.912-0.1-1.309-0.298
				c-0.396-0.198-0.738-0.486-1.024-0.863c-0.286-0.376-0.507-0.843-0.663-1.397c-0.156-0.556-0.234-1.19-0.234-1.904
				c0-0.646,0.088-1.247,0.264-1.802c0.175-0.556,0.428-1.037,0.756-1.445s0.723-0.727,1.182-0.956s0.975-0.345,1.547-0.345
				c0.487,0,0.904,0.077,1.25,0.229c0.346,0.153,0.654,0.36,0.927,0.621v-4.599H264.505z M262.406,598.567
				c-0.238-0.289-0.498-0.493-0.778-0.612c-0.281-0.118-0.583-0.178-0.905-0.178c-0.317,0-0.604,0.06-0.858,0.178
				c-0.255,0.119-0.474,0.3-0.655,0.54c-0.181,0.241-0.32,0.547-0.417,0.918s-0.145,0.81-0.145,1.313
				c0,0.51,0.041,0.942,0.124,1.296c0.082,0.354,0.2,0.644,0.353,0.867s0.34,0.386,0.561,0.484c0.221,0.1,0.467,0.149,0.739,0.149
				c0.437,0,0.808-0.091,1.114-0.272s0.595-0.439,0.867-0.773V598.567z"/>
			<path fill="#FFFFFF" d="M278.284,592.431v12.631H277c-0.278,0-0.454-0.128-0.527-0.383l-0.178-0.841
				c-0.352,0.402-0.755,0.728-1.211,0.978c-0.456,0.249-0.987,0.374-1.594,0.374c-0.476,0-0.912-0.1-1.309-0.298
				c-0.396-0.198-0.738-0.486-1.024-0.863c-0.286-0.376-0.507-0.843-0.663-1.397c-0.156-0.556-0.234-1.19-0.234-1.904
				c0-0.646,0.088-1.247,0.264-1.802c0.175-0.556,0.428-1.037,0.756-1.445s0.723-0.727,1.182-0.956s0.975-0.345,1.547-0.345
				c0.487,0,0.904,0.077,1.25,0.229c0.346,0.153,0.654,0.36,0.927,0.621v-4.599H278.284z M276.185,598.567
				c-0.238-0.289-0.498-0.493-0.778-0.612c-0.281-0.118-0.583-0.178-0.905-0.178c-0.317,0-0.604,0.06-0.858,0.178
				c-0.255,0.119-0.474,0.3-0.655,0.54c-0.181,0.241-0.32,0.547-0.417,0.918s-0.145,0.81-0.145,1.313
				c0,0.51,0.041,0.942,0.124,1.296c0.082,0.354,0.2,0.644,0.353,0.867s0.34,0.386,0.561,0.484c0.221,0.1,0.467,0.149,0.739,0.149
				c0.437,0,0.808-0.091,1.114-0.272s0.595-0.439,0.867-0.773V598.567z"/>
			<path fill="#FFFFFF" d="M281.973,600.965c0.034,0.447,0.113,0.834,0.238,1.16c0.125,0.326,0.289,0.595,0.493,0.808
				c0.204,0.212,0.446,0.371,0.727,0.476c0.281,0.105,0.592,0.157,0.932,0.157s0.633-0.039,0.879-0.119
				c0.247-0.079,0.462-0.167,0.646-0.264c0.184-0.096,0.346-0.184,0.484-0.263c0.139-0.08,0.273-0.119,0.404-0.119
				c0.175,0,0.306,0.065,0.391,0.195l0.604,0.765c-0.232,0.272-0.493,0.5-0.782,0.685s-0.591,0.331-0.905,0.442
				c-0.314,0.11-0.635,0.188-0.961,0.233c-0.326,0.045-0.641,0.068-0.947,0.068c-0.606,0-1.17-0.102-1.691-0.302
				c-0.521-0.201-0.975-0.499-1.36-0.893c-0.385-0.395-0.688-0.882-0.909-1.462c-0.221-0.581-0.332-1.254-0.332-2.02
				c0-0.595,0.096-1.154,0.289-1.679c0.192-0.523,0.469-0.979,0.829-1.368c0.36-0.388,0.799-0.695,1.317-0.922
				s1.104-0.341,1.756-0.341c0.549,0,1.057,0.088,1.521,0.264s0.863,0.433,1.198,0.77c0.334,0.337,0.597,0.751,0.786,1.241
				s0.285,1.05,0.285,1.679c0,0.317-0.035,0.531-0.103,0.642s-0.198,0.166-0.392,0.166H281.973z M285.976,599.698
				c0-0.272-0.038-0.528-0.114-0.77s-0.191-0.452-0.345-0.633c-0.153-0.182-0.347-0.324-0.582-0.43
				c-0.235-0.104-0.509-0.157-0.82-0.157c-0.606,0-1.083,0.173-1.432,0.519s-0.571,0.836-0.667,1.471H285.976z"/>
			<path fill="#FFFFFF" d="M291.561,592.431v12.631h-2.1v-12.631H291.561z"/>
			<path fill="#FFFFFF" d="M303.112,598.04c-0.057,0.091-0.116,0.155-0.178,0.191c-0.063,0.037-0.143,0.056-0.238,0.056
				c-0.103,0-0.211-0.028-0.328-0.085c-0.115-0.057-0.25-0.12-0.403-0.191c-0.153-0.07-0.327-0.135-0.522-0.191
				s-0.427-0.085-0.693-0.085c-0.414,0-0.738,0.088-0.973,0.264c-0.235,0.176-0.354,0.405-0.354,0.688
				c0,0.187,0.062,0.345,0.184,0.472c0.121,0.128,0.283,0.239,0.484,0.336s0.43,0.183,0.684,0.259
				c0.256,0.077,0.515,0.16,0.778,0.251c0.263,0.091,0.522,0.194,0.778,0.311c0.254,0.116,0.482,0.264,0.684,0.441
				c0.201,0.179,0.363,0.393,0.484,0.643c0.122,0.249,0.184,0.549,0.184,0.9c0,0.42-0.076,0.807-0.227,1.16
				c-0.149,0.354-0.372,0.66-0.666,0.918c-0.295,0.258-0.659,0.459-1.093,0.604s-0.934,0.217-1.501,0.217
				c-0.3,0-0.594-0.026-0.879-0.08c-0.287-0.055-0.561-0.129-0.824-0.226s-0.508-0.21-0.731-0.34
				c-0.224-0.131-0.421-0.272-0.591-0.425l0.484-0.8c0.063-0.096,0.137-0.17,0.221-0.221c0.086-0.051,0.193-0.076,0.323-0.076
				s0.254,0.037,0.37,0.11c0.115,0.073,0.25,0.153,0.403,0.238s0.333,0.164,0.54,0.237c0.207,0.074,0.469,0.11,0.786,0.11
				c0.249,0,0.464-0.029,0.642-0.089c0.179-0.06,0.326-0.138,0.442-0.233c0.116-0.097,0.2-0.209,0.255-0.336
				c0.054-0.128,0.08-0.26,0.08-0.396c0-0.204-0.061-0.371-0.182-0.501c-0.123-0.131-0.283-0.244-0.484-0.341
				c-0.201-0.096-0.432-0.183-0.689-0.259s-0.521-0.16-0.79-0.251c-0.27-0.091-0.532-0.196-0.79-0.318s-0.488-0.276-0.689-0.464
				c-0.201-0.187-0.362-0.416-0.484-0.688c-0.121-0.271-0.183-0.601-0.183-0.985c0-0.357,0.071-0.697,0.212-1.021
				c0.143-0.322,0.351-0.604,0.625-0.846c0.275-0.24,0.618-0.434,1.029-0.578c0.41-0.145,0.885-0.217,1.424-0.217
				c0.6,0,1.146,0.1,1.641,0.298c0.492,0.198,0.903,0.459,1.232,0.782L303.112,598.04z"/>
			<path fill="#FFFFFF" d="M306.877,600.965c0.034,0.447,0.113,0.834,0.238,1.16s0.289,0.595,0.492,0.808
				c0.205,0.212,0.447,0.371,0.728,0.476c0.28,0.105,0.591,0.157,0.931,0.157s0.633-0.039,0.88-0.119
				c0.247-0.079,0.462-0.167,0.646-0.264c0.185-0.096,0.346-0.184,0.484-0.263c0.139-0.08,0.273-0.119,0.404-0.119
				c0.176,0,0.307,0.065,0.391,0.195l0.604,0.765c-0.232,0.272-0.492,0.5-0.781,0.685s-0.592,0.331-0.906,0.442
				c-0.314,0.11-0.635,0.188-0.96,0.233c-0.326,0.045-0.642,0.068-0.948,0.068c-0.605,0-1.17-0.102-1.691-0.302
				c-0.521-0.201-0.975-0.499-1.359-0.893c-0.386-0.395-0.689-0.882-0.91-1.462c-0.221-0.581-0.331-1.254-0.331-2.02
				c0-0.595,0.097-1.154,0.289-1.679c0.192-0.523,0.469-0.979,0.829-1.368c0.359-0.388,0.799-0.695,1.316-0.922
				c0.52-0.227,1.104-0.341,1.756-0.341c0.55,0,1.057,0.088,1.521,0.264s0.864,0.433,1.199,0.77
				c0.334,0.337,0.596,0.751,0.785,1.241c0.19,0.49,0.285,1.05,0.285,1.679c0,0.317-0.034,0.531-0.102,0.642
				c-0.068,0.11-0.199,0.166-0.392,0.166H306.877z M310.881,599.698c0-0.272-0.039-0.528-0.115-0.77s-0.191-0.452-0.344-0.633
				c-0.153-0.182-0.348-0.324-0.582-0.43c-0.236-0.104-0.51-0.157-0.82-0.157c-0.607,0-1.084,0.173-1.433,0.519
				s-0.571,0.836-0.667,1.471H310.881z"/>
			<path fill="#FFFFFF" d="M316.321,597.854c0.271-0.521,0.595-0.931,0.969-1.229c0.374-0.297,0.816-0.446,1.326-0.446
				c0.402,0,0.725,0.088,0.969,0.264l-0.136,1.572c-0.028,0.103-0.069,0.175-0.123,0.217c-0.054,0.043-0.126,0.064-0.217,0.064
				c-0.085,0-0.212-0.015-0.378-0.043c-0.168-0.028-0.33-0.042-0.489-0.042c-0.232,0-0.438,0.033-0.62,0.102
				s-0.345,0.166-0.489,0.293c-0.145,0.128-0.272,0.282-0.382,0.464c-0.111,0.181-0.215,0.388-0.311,0.62v5.372h-2.1v-8.721h1.232
				c0.215,0,0.365,0.038,0.451,0.114c0.084,0.077,0.141,0.214,0.17,0.412L316.321,597.854z"/>
			<path fill="#FFFFFF" d="M322.356,592.771v2.448l-0.188,1.326c-0.045,0.249-0.119,0.44-0.221,0.573
				c-0.102,0.134-0.271,0.2-0.51,0.2c-0.21,0-0.371-0.066-0.484-0.2c-0.113-0.133-0.193-0.324-0.238-0.573l-0.188-1.326v-2.448
				H322.356z M325.483,592.771v2.448l-0.187,1.326c-0.046,0.249-0.118,0.44-0.221,0.573c-0.103,0.134-0.272,0.2-0.511,0.2
				c-0.209,0-0.371-0.066-0.484-0.2c-0.113-0.133-0.192-0.324-0.237-0.573l-0.187-1.326v-2.448H325.483z"/>
		</g>
	</g>
	<g>
		<path fill="#337C98" d="M527.964,671.945c0,31.468-40.584,56.977-90.645,56.977c-50.052,0-90.634-25.509-90.634-56.977
			c0-31.466,40.582-56.976,90.634-56.976C487.38,614.97,527.964,640.479,527.964,671.945z"/>
	</g>
	<g>
		<g>
			<path fill="#FFFFFF" d="M397.779,668.744v2.448l-0.187,1.326c-0.046,0.249-0.119,0.44-0.221,0.573
				c-0.103,0.134-0.272,0.2-0.511,0.2c-0.21,0-0.371-0.066-0.484-0.2c-0.113-0.133-0.192-0.324-0.238-0.573l-0.187-1.326v-2.448
				H397.779z M400.907,668.744v2.448l-0.188,1.326c-0.045,0.249-0.118,0.44-0.221,0.573c-0.102,0.134-0.271,0.2-0.51,0.2
				c-0.209,0-0.371-0.066-0.484-0.2c-0.113-0.133-0.193-0.324-0.238-0.573l-0.187-1.326v-2.448H400.907z"/>
			<path fill="#FFFFFF" d="M411.6,678.137c0.124,0,0.234,0.048,0.331,0.145l0.901,0.978c-0.499,0.617-1.113,1.091-1.841,1.419
				c-0.728,0.329-1.603,0.493-2.622,0.493c-0.912,0-1.732-0.155-2.461-0.467c-0.729-0.313-1.35-0.745-1.865-1.301
				s-0.912-1.219-1.186-1.989c-0.275-0.771-0.413-1.612-0.413-2.524c0-0.924,0.147-1.77,0.442-2.537s0.709-1.43,1.245-1.985
				c0.536-0.555,1.175-0.987,1.917-1.296s1.563-0.463,2.465-0.463c0.895,0,1.689,0.147,2.385,0.441
				c0.693,0.295,1.284,0.681,1.771,1.156l-0.765,1.063c-0.046,0.068-0.104,0.128-0.175,0.179c-0.07,0.051-0.168,0.076-0.293,0.076
				c-0.085,0-0.173-0.023-0.264-0.072c-0.09-0.048-0.189-0.107-0.297-0.179c-0.107-0.07-0.232-0.148-0.375-0.233
				c-0.141-0.085-0.305-0.163-0.492-0.233c-0.188-0.071-0.404-0.131-0.65-0.179s-0.531-0.072-0.854-0.072
				c-0.55,0-1.053,0.098-1.509,0.293s-0.849,0.479-1.178,0.851c-0.328,0.371-0.583,0.824-0.764,1.359
				c-0.182,0.536-0.272,1.146-0.272,1.832c0,0.691,0.098,1.307,0.293,1.845c0.196,0.538,0.46,0.991,0.795,1.359
				c0.334,0.369,0.728,0.65,1.182,0.846c0.453,0.196,0.94,0.294,1.462,0.294c0.312,0,0.594-0.018,0.846-0.051
				c0.252-0.034,0.484-0.088,0.697-0.162c0.212-0.073,0.413-0.168,0.604-0.284c0.189-0.116,0.378-0.26,0.564-0.43
				c0.057-0.051,0.117-0.092,0.179-0.123C411.466,678.152,411.532,678.137,411.6,678.137z"/>
			<path fill="#FFFFFF" d="M417.754,672.178c0.646,0,1.233,0.105,1.764,0.314c0.529,0.21,0.982,0.508,1.359,0.893
				c0.377,0.386,0.668,0.856,0.871,1.411c0.205,0.556,0.307,1.176,0.307,1.861c0,0.691-0.102,1.315-0.307,1.87
				c-0.203,0.556-0.494,1.029-0.871,1.42s-0.83,0.691-1.359,0.901c-0.53,0.209-1.118,0.314-1.764,0.314
				c-0.652,0-1.244-0.105-1.777-0.314c-0.532-0.21-0.987-0.511-1.363-0.901c-0.377-0.391-0.67-0.864-0.876-1.42
				c-0.207-0.555-0.311-1.179-0.311-1.87c0-0.686,0.104-1.306,0.311-1.861c0.206-0.555,0.499-1.025,0.876-1.411
				c0.376-0.385,0.831-0.683,1.363-0.893C416.51,672.283,417.102,672.178,417.754,672.178z M417.754,679.548
				c0.725,0,1.262-0.244,1.61-0.731s0.522-1.201,0.522-2.142s-0.174-1.657-0.522-2.15s-0.886-0.74-1.61-0.74
				c-0.737,0-1.283,0.248-1.637,0.744s-0.531,1.211-0.531,2.146c0,0.935,0.178,1.647,0.531,2.138S417.017,679.548,417.754,679.548z"
				/>
			<path fill="#FFFFFF" d="M425.625,673.385c0.176-0.175,0.361-0.338,0.557-0.488c0.196-0.15,0.402-0.277,0.62-0.383
				c0.219-0.104,0.452-0.187,0.701-0.246c0.25-0.06,0.521-0.09,0.816-0.09c0.477,0,0.898,0.081,1.267,0.242
				c0.368,0.162,0.676,0.389,0.923,0.681c0.246,0.292,0.434,0.641,0.561,1.045c0.127,0.405,0.191,0.852,0.191,1.339v5.551h-2.1
				v-5.551c0-0.532-0.122-0.944-0.365-1.236c-0.244-0.292-0.615-0.438-1.113-0.438c-0.363,0-0.703,0.082-1.021,0.246
				s-0.618,0.389-0.901,0.672v6.307h-2.1v-8.721h1.283c0.272,0,0.451,0.127,0.536,0.382L425.625,673.385z"/>
			<path fill="#FFFFFF" d="M436.038,681.171c-0.76,0-1.342-0.214-1.747-0.642s-0.608-1.019-0.608-1.772v-4.87h-0.893
				c-0.113,0-0.209-0.037-0.288-0.11c-0.079-0.074-0.119-0.185-0.119-0.332v-0.833l1.402-0.229l0.442-2.38
				c0.027-0.113,0.082-0.201,0.161-0.264c0.079-0.062,0.181-0.093,0.306-0.093h1.088v2.745h2.33v1.496h-2.33v4.726
				c0,0.272,0.066,0.484,0.2,0.638s0.315,0.229,0.548,0.229c0.131,0,0.24-0.016,0.328-0.047s0.164-0.063,0.229-0.098
				c0.065-0.034,0.124-0.066,0.175-0.098c0.052-0.031,0.103-0.047,0.153-0.047c0.063,0,0.113,0.016,0.152,0.047
				c0.04,0.031,0.082,0.078,0.128,0.141l0.629,1.02c-0.306,0.255-0.657,0.448-1.054,0.578S436.462,681.171,436.038,681.171z"/>
			<path fill="#FFFFFF" d="M439.25,673.529c1.002-0.918,2.209-1.377,3.621-1.377c0.51,0,0.965,0.084,1.367,0.251
				s0.743,0.399,1.021,0.697c0.278,0.297,0.489,0.653,0.634,1.066c0.145,0.414,0.217,0.867,0.217,1.36v5.508h-0.952
				c-0.198,0-0.352-0.029-0.459-0.089c-0.108-0.06-0.192-0.181-0.255-0.361l-0.188-0.629c-0.221,0.198-0.436,0.372-0.646,0.522
				c-0.209,0.15-0.428,0.276-0.654,0.378c-0.227,0.103-0.469,0.18-0.727,0.234c-0.258,0.054-0.543,0.08-0.854,0.08
				c-0.369,0-0.709-0.05-1.021-0.148c-0.312-0.1-0.581-0.248-0.808-0.446s-0.402-0.444-0.527-0.739
				c-0.124-0.295-0.187-0.638-0.187-1.028c0-0.222,0.036-0.441,0.11-0.659s0.194-0.427,0.361-0.625s0.384-0.385,0.65-0.561
				c0.266-0.176,0.594-0.329,0.981-0.459c0.388-0.131,0.841-0.236,1.356-0.319c0.516-0.082,1.104-0.132,1.768-0.148v-0.51
				c0-0.584-0.125-1.016-0.374-1.297c-0.249-0.28-0.609-0.42-1.079-0.42c-0.34,0-0.623,0.039-0.846,0.118
				c-0.225,0.08-0.422,0.169-0.592,0.269c-0.17,0.099-0.324,0.188-0.463,0.268s-0.293,0.119-0.463,0.119
				c-0.147,0-0.271-0.039-0.374-0.115s-0.185-0.166-0.247-0.268L439.25,673.529z M444.061,677.313
				c-0.606,0.028-1.117,0.08-1.53,0.157c-0.413,0.076-0.745,0.174-0.994,0.293s-0.429,0.258-0.536,0.416
				c-0.107,0.159-0.161,0.332-0.161,0.519c0,0.369,0.109,0.632,0.327,0.791c0.219,0.158,0.503,0.238,0.854,0.238
				c0.431,0,0.804-0.078,1.118-0.234c0.314-0.155,0.621-0.393,0.922-0.71V677.313z"/>
			<path fill="#FFFFFF" d="M454.329,674.158c-0.063,0.08-0.123,0.143-0.183,0.188s-0.146,0.068-0.259,0.068
				c-0.107,0-0.213-0.033-0.314-0.099c-0.103-0.064-0.225-0.139-0.365-0.221c-0.143-0.082-0.311-0.155-0.506-0.221
				s-0.438-0.098-0.727-0.098c-0.369,0-0.691,0.066-0.97,0.199c-0.278,0.134-0.509,0.325-0.692,0.574
				c-0.185,0.249-0.322,0.551-0.412,0.905c-0.092,0.354-0.137,0.755-0.137,1.202c0,0.465,0.05,0.879,0.148,1.241
				c0.1,0.363,0.242,0.667,0.43,0.914c0.188,0.246,0.414,0.434,0.68,0.561c0.267,0.128,0.566,0.191,0.901,0.191
				s0.604-0.041,0.812-0.123s0.381-0.173,0.523-0.272c0.141-0.099,0.265-0.189,0.369-0.271c0.105-0.082,0.223-0.123,0.354-0.123
				c0.17,0,0.297,0.065,0.382,0.195l0.604,0.765c-0.232,0.272-0.484,0.5-0.757,0.685c-0.271,0.185-0.554,0.331-0.846,0.442
				c-0.291,0.11-0.592,0.188-0.9,0.233c-0.309,0.045-0.616,0.068-0.922,0.068c-0.539,0-1.046-0.102-1.521-0.302
				c-0.477-0.201-0.893-0.495-1.25-0.88c-0.357-0.386-0.639-0.857-0.846-1.416c-0.207-0.558-0.311-1.193-0.311-1.908
				c0-0.64,0.092-1.233,0.276-1.78s0.454-1.021,0.812-1.42s0.799-0.712,1.326-0.938s1.133-0.341,1.819-0.341
				c0.651,0,1.222,0.105,1.712,0.314c0.49,0.21,0.932,0.511,1.322,0.901L454.329,674.158z"/>
			<path fill="#FFFFFF" d="M459.182,681.171c-0.76,0-1.342-0.214-1.746-0.642c-0.406-0.428-0.608-1.019-0.608-1.772v-4.87h-0.893
				c-0.113,0-0.21-0.037-0.288-0.11c-0.08-0.074-0.119-0.185-0.119-0.332v-0.833l1.402-0.229l0.441-2.38
				c0.028-0.113,0.082-0.201,0.162-0.264c0.079-0.062,0.181-0.093,0.306-0.093h1.088v2.745h2.329v1.496h-2.329v4.726
				c0,0.272,0.066,0.484,0.2,0.638c0.133,0.153,0.315,0.229,0.548,0.229c0.13,0,0.239-0.016,0.327-0.047s0.164-0.063,0.229-0.098
				s0.124-0.066,0.175-0.098s0.102-0.047,0.152-0.047c0.063,0,0.113,0.016,0.153,0.047s0.082,0.078,0.128,0.141l0.629,1.02
				c-0.307,0.255-0.658,0.448-1.055,0.578S459.608,681.171,459.182,681.171z"/>
			<path fill="#FFFFFF" d="M466.39,672.178c0.646,0,1.233,0.105,1.764,0.314c0.53,0.21,0.983,0.508,1.36,0.893
				c0.377,0.386,0.667,0.856,0.871,1.411c0.204,0.556,0.306,1.176,0.306,1.861c0,0.691-0.102,1.315-0.306,1.87
				c-0.204,0.556-0.494,1.029-0.871,1.42s-0.83,0.691-1.36,0.901c-0.53,0.209-1.118,0.314-1.764,0.314
				c-0.651,0-1.244-0.105-1.776-0.314c-0.533-0.21-0.988-0.511-1.364-0.901c-0.377-0.391-0.669-0.864-0.876-1.42
				c-0.207-0.555-0.311-1.179-0.311-1.87c0-0.686,0.104-1.306,0.311-1.861c0.207-0.555,0.499-1.025,0.876-1.411
				c0.376-0.385,0.831-0.683,1.364-0.893C465.146,672.283,465.739,672.178,466.39,672.178z M466.39,679.548
				c0.726,0,1.263-0.244,1.61-0.731c0.35-0.487,0.523-1.201,0.523-2.142s-0.174-1.657-0.523-2.15c-0.348-0.493-0.885-0.74-1.61-0.74
				c-0.737,0-1.282,0.248-1.636,0.744c-0.354,0.496-0.531,1.211-0.531,2.146c0,0.935,0.177,1.647,0.531,2.138
				C465.108,679.303,465.653,679.548,466.39,679.548z"/>
			<path fill="#FFFFFF" d="M473.573,668.744v2.448l-0.188,1.326c-0.045,0.249-0.119,0.44-0.221,0.573
				c-0.102,0.134-0.271,0.2-0.51,0.2c-0.209,0-0.371-0.066-0.484-0.2c-0.113-0.133-0.193-0.324-0.238-0.573l-0.188-1.326v-2.448
				H473.573z M476.701,668.744v2.448l-0.187,1.326c-0.046,0.249-0.119,0.44-0.221,0.573c-0.103,0.134-0.272,0.2-0.511,0.2
				c-0.21,0-0.371-0.066-0.484-0.2c-0.113-0.133-0.192-0.324-0.237-0.573l-0.188-1.326v-2.448H476.701z"/>
		</g>
	</g>
	<g>
		<path fill="#337C98" d="M692.806,602.644c0,31.468-40.584,56.977-90.645,56.977c-50.053,0-90.634-25.509-90.634-56.977
			c0-31.467,40.581-56.976,90.634-56.976C652.222,545.668,692.806,571.177,692.806,602.644z"/>
	</g>
	<g>
		<g>
			<path fill="#FFFFFF" d="M557.469,579.584v2.448l-0.188,1.326c-0.045,0.249-0.119,0.44-0.221,0.573
				c-0.102,0.134-0.271,0.2-0.51,0.2c-0.209,0-0.371-0.066-0.484-0.2c-0.113-0.133-0.193-0.324-0.238-0.573l-0.188-1.326v-2.448
				H557.469z M560.597,579.584v2.448l-0.187,1.326c-0.046,0.249-0.119,0.44-0.221,0.573c-0.103,0.134-0.272,0.2-0.511,0.2
				c-0.21,0-0.371-0.066-0.484-0.2c-0.113-0.133-0.192-0.324-0.237-0.573l-0.188-1.326v-2.448H560.597z"/>
			<path fill="#FFFFFF" d="M573.211,579.584v12.291h-2.295v-5.372h-5.771v5.372h-2.295v-12.291h2.295v5.287h5.771v-5.287H573.211z"
				/>
			<path fill="#FFFFFF" d="M577.963,580.612c0,0.182-0.037,0.352-0.111,0.51c-0.073,0.159-0.171,0.298-0.293,0.417
				c-0.121,0.119-0.265,0.214-0.43,0.285c-0.164,0.07-0.34,0.105-0.526,0.105c-0.182,0-0.353-0.035-0.515-0.105
				c-0.161-0.071-0.301-0.166-0.42-0.285s-0.215-0.258-0.285-0.417c-0.07-0.158-0.106-0.328-0.106-0.51
				c0-0.187,0.036-0.362,0.106-0.526c0.07-0.165,0.166-0.307,0.285-0.426s0.259-0.214,0.42-0.284
				c0.162-0.071,0.333-0.106,0.515-0.106c0.187,0,0.362,0.035,0.526,0.106c0.165,0.07,0.309,0.165,0.43,0.284
				c0.122,0.119,0.22,0.261,0.293,0.426C577.926,580.25,577.963,580.426,577.963,580.612z M577.674,583.154v8.721h-2.108v-8.721
				H577.674z"/>
			<path fill="#FFFFFF" d="M585.137,584.854c-0.057,0.091-0.117,0.155-0.179,0.191c-0.063,0.037-0.142,0.056-0.238,0.056
				c-0.103,0-0.211-0.028-0.327-0.085s-0.251-0.12-0.404-0.191c-0.152-0.07-0.326-0.135-0.521-0.191
				c-0.196-0.057-0.428-0.085-0.693-0.085c-0.414,0-0.738,0.088-0.973,0.264c-0.236,0.176-0.354,0.405-0.354,0.688
				c0,0.187,0.061,0.345,0.183,0.472c0.122,0.128,0.284,0.239,0.485,0.336c0.2,0.097,0.429,0.183,0.684,0.259
				c0.255,0.077,0.514,0.16,0.777,0.251s0.523,0.194,0.778,0.311s0.483,0.264,0.685,0.441c0.201,0.179,0.362,0.393,0.484,0.643
				c0.121,0.249,0.183,0.549,0.183,0.9c0,0.42-0.075,0.807-0.226,1.16c-0.15,0.354-0.373,0.66-0.667,0.918
				c-0.295,0.258-0.659,0.459-1.093,0.604s-0.934,0.217-1.5,0.217c-0.301,0-0.594-0.026-0.879-0.08
				c-0.287-0.055-0.562-0.129-0.825-0.226s-0.507-0.21-0.731-0.34c-0.224-0.131-0.42-0.272-0.59-0.425l0.484-0.8
				c0.063-0.096,0.136-0.17,0.221-0.221s0.192-0.076,0.322-0.076c0.131,0,0.254,0.037,0.371,0.11
				c0.115,0.073,0.25,0.153,0.402,0.238c0.154,0.085,0.334,0.164,0.541,0.237c0.206,0.074,0.469,0.11,0.785,0.11
				c0.25,0,0.464-0.029,0.643-0.089c0.178-0.06,0.326-0.138,0.441-0.233c0.116-0.097,0.201-0.209,0.256-0.336
				c0.053-0.128,0.08-0.26,0.08-0.396c0-0.204-0.061-0.371-0.183-0.501c-0.122-0.131-0.283-0.244-0.484-0.341
				c-0.201-0.096-0.431-0.183-0.688-0.259s-0.521-0.16-0.791-0.251s-0.532-0.196-0.79-0.318s-0.487-0.276-0.688-0.464
				c-0.201-0.187-0.363-0.416-0.484-0.688c-0.122-0.271-0.184-0.601-0.184-0.985c0-0.357,0.071-0.697,0.213-1.021
				c0.142-0.322,0.35-0.604,0.625-0.846c0.275-0.24,0.617-0.434,1.028-0.578s0.886-0.217,1.424-0.217c0.601,0,1.147,0.1,1.641,0.298
				s0.903,0.459,1.232,0.782L585.137,584.854z"/>
			<path fill="#FFFFFF" d="M590.194,592.011c-0.76,0-1.342-0.214-1.746-0.642c-0.406-0.428-0.608-1.019-0.608-1.772v-4.87h-0.893
				c-0.113,0-0.21-0.037-0.288-0.11c-0.08-0.074-0.119-0.185-0.119-0.332v-0.833l1.402-0.229l0.441-2.38
				c0.028-0.113,0.082-0.201,0.162-0.264c0.079-0.062,0.181-0.093,0.306-0.093h1.088v2.745h2.329v1.496h-2.329v4.726
				c0,0.272,0.066,0.484,0.2,0.638c0.133,0.153,0.315,0.229,0.548,0.229c0.13,0,0.239-0.016,0.327-0.047s0.164-0.063,0.229-0.098
				s0.124-0.066,0.175-0.098s0.102-0.047,0.152-0.047c0.063,0,0.113,0.016,0.153,0.047s0.082,0.078,0.128,0.141l0.629,1.02
				c-0.307,0.255-0.658,0.448-1.055,0.578S590.62,592.011,590.194,592.011z"/>
			<path fill="#FFFFFF" d="M597.403,583.018c0.646,0,1.233,0.105,1.764,0.314c0.529,0.21,0.982,0.508,1.359,0.893
				c0.377,0.386,0.668,0.856,0.871,1.411c0.205,0.556,0.307,1.176,0.307,1.861c0,0.691-0.102,1.315-0.307,1.87
				c-0.203,0.556-0.494,1.029-0.871,1.42s-0.83,0.691-1.359,0.901c-0.53,0.209-1.118,0.314-1.764,0.314
				c-0.652,0-1.244-0.105-1.777-0.314c-0.532-0.21-0.987-0.511-1.363-0.901c-0.377-0.391-0.67-0.864-0.876-1.42
				c-0.207-0.555-0.311-1.179-0.311-1.87c0-0.686,0.104-1.306,0.311-1.861c0.206-0.555,0.499-1.025,0.876-1.411
				c0.376-0.385,0.831-0.683,1.363-0.893C596.159,583.123,596.75,583.018,597.403,583.018z M597.403,590.388
				c0.725,0,1.262-0.244,1.61-0.731s0.522-1.201,0.522-2.142s-0.174-1.657-0.522-2.15s-0.886-0.74-1.61-0.74
				c-0.737,0-1.283,0.248-1.637,0.744s-0.531,1.211-0.531,2.146c0,0.935,0.178,1.647,0.531,2.138S596.666,590.388,597.403,590.388z"
				/>
			<path fill="#FFFFFF" d="M605.29,584.667c0.272-0.521,0.596-0.931,0.969-1.229c0.375-0.297,0.816-0.446,1.326-0.446
				c0.402,0,0.726,0.088,0.97,0.264l-0.136,1.572c-0.029,0.103-0.07,0.175-0.123,0.217c-0.055,0.043-0.127,0.064-0.217,0.064
				c-0.086,0-0.212-0.015-0.379-0.043s-0.33-0.042-0.488-0.042c-0.232,0-0.439,0.033-0.621,0.102s-0.344,0.166-0.488,0.293
				c-0.145,0.128-0.272,0.282-0.383,0.464c-0.11,0.181-0.214,0.388-0.311,0.62v5.372h-2.1v-8.721h1.232
				c0.216,0,0.365,0.038,0.451,0.114c0.085,0.077,0.142,0.214,0.17,0.412L605.29,584.667z"/>
			<path fill="#FFFFFF" d="M612.116,580.612c0,0.182-0.037,0.352-0.111,0.51c-0.073,0.159-0.171,0.298-0.293,0.417
				c-0.121,0.119-0.265,0.214-0.43,0.285c-0.164,0.07-0.34,0.105-0.526,0.105c-0.182,0-0.353-0.035-0.515-0.105
				c-0.161-0.071-0.301-0.166-0.42-0.285s-0.215-0.258-0.285-0.417c-0.07-0.158-0.106-0.328-0.106-0.51
				c0-0.187,0.036-0.362,0.106-0.526c0.07-0.165,0.166-0.307,0.285-0.426s0.259-0.214,0.42-0.284
				c0.162-0.071,0.333-0.106,0.515-0.106c0.187,0,0.362,0.035,0.526,0.106c0.165,0.07,0.309,0.165,0.43,0.284
				c0.122,0.119,0.22,0.261,0.293,0.426C612.079,580.25,612.116,580.426,612.116,580.612z M611.827,583.154v8.721h-2.108v-8.721
				H611.827z"/>
			<path fill="#FFFFFF" d="M613.764,584.369c1.003-0.918,2.21-1.377,3.621-1.377c0.51,0,0.966,0.084,1.368,0.251
				s0.743,0.399,1.021,0.697c0.277,0.297,0.488,0.653,0.633,1.066c0.145,0.414,0.217,0.867,0.217,1.36v5.508h-0.951
				c-0.199,0-0.352-0.029-0.459-0.089c-0.108-0.06-0.193-0.181-0.256-0.361l-0.188-0.629c-0.221,0.198-0.436,0.372-0.646,0.522
				s-0.428,0.276-0.654,0.378c-0.227,0.103-0.47,0.18-0.728,0.234c-0.258,0.054-0.542,0.08-0.854,0.08
				c-0.369,0-0.709-0.05-1.02-0.148c-0.313-0.1-0.582-0.248-0.809-0.446s-0.402-0.444-0.526-0.739s-0.187-0.638-0.187-1.028
				c0-0.222,0.036-0.441,0.109-0.659c0.074-0.218,0.195-0.427,0.361-0.625c0.168-0.198,0.385-0.385,0.65-0.561
				c0.267-0.176,0.594-0.329,0.982-0.459c0.388-0.131,0.84-0.236,1.355-0.319c0.516-0.082,1.105-0.132,1.768-0.148v-0.51
				c0-0.584-0.124-1.016-0.373-1.297c-0.25-0.28-0.609-0.42-1.08-0.42c-0.34,0-0.622,0.039-0.846,0.118
				c-0.225,0.08-0.421,0.169-0.591,0.269c-0.17,0.099-0.324,0.188-0.464,0.268c-0.139,0.079-0.293,0.119-0.463,0.119
				c-0.146,0-0.271-0.039-0.373-0.115c-0.103-0.076-0.185-0.166-0.247-0.268L613.764,584.369z M618.575,588.152
				c-0.605,0.028-1.116,0.08-1.529,0.157c-0.414,0.076-0.746,0.174-0.994,0.293c-0.25,0.119-0.429,0.258-0.536,0.416
				c-0.108,0.159-0.161,0.332-0.161,0.519c0,0.369,0.109,0.632,0.326,0.791c0.219,0.158,0.504,0.238,0.855,0.238
				c0.43,0,0.803-0.078,1.117-0.234c0.314-0.155,0.622-0.393,0.922-0.71V588.152z"/>
			<path fill="#FFFFFF" d="M627.917,584.854c-0.057,0.091-0.116,0.155-0.178,0.191c-0.063,0.037-0.143,0.056-0.238,0.056
				c-0.103,0-0.211-0.028-0.328-0.085c-0.115-0.057-0.25-0.12-0.403-0.191c-0.153-0.07-0.327-0.135-0.522-0.191
				s-0.427-0.085-0.693-0.085c-0.414,0-0.738,0.088-0.973,0.264c-0.235,0.176-0.354,0.405-0.354,0.688
				c0,0.187,0.062,0.345,0.184,0.472c0.121,0.128,0.283,0.239,0.484,0.336s0.43,0.183,0.684,0.259
				c0.256,0.077,0.515,0.16,0.778,0.251c0.263,0.091,0.522,0.194,0.778,0.311c0.254,0.116,0.482,0.264,0.684,0.441
				c0.201,0.179,0.363,0.393,0.484,0.643c0.122,0.249,0.184,0.549,0.184,0.9c0,0.42-0.076,0.807-0.227,1.16
				c-0.149,0.354-0.372,0.66-0.666,0.918c-0.295,0.258-0.659,0.459-1.093,0.604s-0.934,0.217-1.501,0.217
				c-0.3,0-0.594-0.026-0.879-0.08c-0.287-0.055-0.561-0.129-0.824-0.226s-0.508-0.21-0.731-0.34
				c-0.224-0.131-0.421-0.272-0.591-0.425l0.484-0.8c0.063-0.096,0.137-0.17,0.221-0.221c0.086-0.051,0.193-0.076,0.323-0.076
				s0.254,0.037,0.37,0.11c0.115,0.073,0.25,0.153,0.403,0.238s0.333,0.164,0.54,0.237c0.207,0.074,0.469,0.11,0.786,0.11
				c0.249,0,0.464-0.029,0.642-0.089c0.179-0.06,0.326-0.138,0.442-0.233c0.116-0.097,0.2-0.209,0.255-0.336
				c0.054-0.128,0.08-0.26,0.08-0.396c0-0.204-0.061-0.371-0.182-0.501c-0.123-0.131-0.283-0.244-0.484-0.341
				c-0.201-0.096-0.432-0.183-0.689-0.259s-0.521-0.16-0.79-0.251c-0.27-0.091-0.532-0.196-0.79-0.318s-0.488-0.276-0.689-0.464
				c-0.201-0.187-0.362-0.416-0.484-0.688c-0.121-0.271-0.183-0.601-0.183-0.985c0-0.357,0.071-0.697,0.212-1.021
				c0.143-0.322,0.351-0.604,0.625-0.846c0.275-0.24,0.618-0.434,1.029-0.578c0.41-0.145,0.885-0.217,1.424-0.217
				c0.6,0,1.146,0.1,1.641,0.298c0.492,0.198,0.903,0.459,1.232,0.782L627.917,584.854z"/>
			<path fill="#FFFFFF" d="M641.772,579.244v12.631h-1.283c-0.278,0-0.454-0.128-0.527-0.383l-0.179-0.841
				c-0.352,0.402-0.755,0.728-1.212,0.978c-0.455,0.249-0.986,0.374-1.594,0.374c-0.476,0-0.912-0.1-1.309-0.298
				s-0.738-0.486-1.023-0.863c-0.287-0.376-0.508-0.843-0.664-1.397c-0.155-0.556-0.233-1.19-0.233-1.904
				c0-0.646,0.088-1.247,0.264-1.802c0.175-0.556,0.428-1.037,0.757-1.445c0.328-0.408,0.723-0.727,1.182-0.956
				s0.975-0.345,1.547-0.345c0.486,0,0.903,0.077,1.249,0.229c0.346,0.153,0.654,0.36,0.927,0.621v-4.599H641.772z M639.672,585.381
				c-0.238-0.289-0.498-0.493-0.777-0.612c-0.281-0.118-0.583-0.178-0.906-0.178c-0.316,0-0.604,0.06-0.857,0.178
				c-0.256,0.119-0.475,0.3-0.655,0.54c-0.181,0.241-0.32,0.547-0.417,0.918c-0.096,0.371-0.145,0.81-0.145,1.313
				c0,0.51,0.041,0.942,0.124,1.296c0.082,0.354,0.2,0.644,0.353,0.867s0.34,0.386,0.561,0.484c0.222,0.1,0.468,0.149,0.74,0.149
				c0.436,0,0.807-0.091,1.113-0.272s0.595-0.439,0.867-0.773V585.381z"/>
			<path fill="#FFFFFF" d="M645.46,587.778c0.034,0.447,0.113,0.834,0.238,1.16c0.124,0.326,0.289,0.595,0.493,0.808
				c0.203,0.212,0.445,0.371,0.727,0.476c0.28,0.105,0.591,0.157,0.931,0.157s0.634-0.039,0.88-0.119
				c0.246-0.079,0.461-0.167,0.646-0.264c0.184-0.096,0.345-0.184,0.484-0.263c0.139-0.08,0.273-0.119,0.403-0.119
				c0.175,0,0.306,0.065,0.392,0.195l0.604,0.765c-0.232,0.272-0.494,0.5-0.783,0.685s-0.59,0.331-0.904,0.442
				c-0.314,0.11-0.635,0.188-0.961,0.233c-0.326,0.045-0.642,0.068-0.947,0.068c-0.607,0-1.171-0.102-1.691-0.302
				c-0.521-0.201-0.975-0.499-1.361-0.893c-0.385-0.395-0.688-0.882-0.908-1.462c-0.222-0.581-0.332-1.254-0.332-2.02
				c0-0.595,0.096-1.154,0.289-1.679c0.192-0.523,0.469-0.979,0.828-1.368c0.36-0.388,0.799-0.695,1.318-0.922
				c0.518-0.227,1.104-0.341,1.755-0.341c0.55,0,1.057,0.088,1.521,0.264s0.864,0.433,1.198,0.77s0.597,0.751,0.787,1.241
				c0.189,0.49,0.284,1.05,0.284,1.679c0,0.317-0.034,0.531-0.103,0.642c-0.067,0.11-0.197,0.166-0.391,0.166H645.46z
				 M649.463,586.512c0-0.272-0.037-0.528-0.114-0.77c-0.076-0.241-0.19-0.452-0.345-0.633c-0.152-0.182-0.347-0.324-0.582-0.43
				c-0.234-0.104-0.508-0.157-0.82-0.157c-0.605,0-1.083,0.173-1.432,0.519s-0.57,0.836-0.668,1.471H649.463z"/>
			<path fill="#FFFFFF" d="M527.801,605.398c-0.063,0.08-0.124,0.143-0.184,0.188c-0.059,0.045-0.146,0.068-0.26,0.068
				c-0.107,0-0.212-0.033-0.314-0.099c-0.102-0.064-0.223-0.139-0.365-0.221c-0.141-0.082-0.311-0.155-0.506-0.221
				s-0.438-0.098-0.727-0.098c-0.368,0-0.691,0.066-0.969,0.199c-0.277,0.134-0.509,0.325-0.693,0.574
				c-0.184,0.249-0.32,0.551-0.412,0.905c-0.09,0.354-0.135,0.755-0.135,1.202c0,0.465,0.049,0.879,0.148,1.241
				c0.099,0.363,0.242,0.667,0.429,0.914c0.187,0.246,0.413,0.434,0.681,0.561c0.266,0.128,0.566,0.191,0.9,0.191
				s0.605-0.041,0.813-0.123c0.206-0.082,0.381-0.173,0.521-0.272c0.143-0.099,0.266-0.189,0.37-0.271s0.223-0.123,0.353-0.123
				c0.17,0,0.298,0.065,0.383,0.195l0.604,0.765c-0.232,0.272-0.484,0.5-0.756,0.685c-0.272,0.185-0.555,0.331-0.846,0.442
				c-0.293,0.11-0.593,0.188-0.901,0.233c-0.31,0.045-0.616,0.068-0.923,0.068c-0.538,0-1.045-0.102-1.521-0.302
				c-0.476-0.201-0.893-0.495-1.249-0.88c-0.356-0.386-0.64-0.857-0.846-1.416c-0.207-0.558-0.311-1.193-0.311-1.908
				c0-0.64,0.093-1.233,0.276-1.78s0.455-1.021,0.813-1.42c0.356-0.399,0.799-0.712,1.325-0.938
				c0.527-0.227,1.134-0.341,1.819-0.341c0.651,0,1.223,0.105,1.713,0.314c0.49,0.21,0.93,0.511,1.321,0.901L527.801,605.398z"/>
			<path fill="#FFFFFF" d="M531.727,605.067c0.272-0.521,0.596-0.931,0.969-1.229c0.375-0.297,0.816-0.446,1.326-0.446
				c0.402,0,0.726,0.088,0.97,0.264l-0.136,1.572c-0.029,0.103-0.07,0.175-0.123,0.217c-0.055,0.043-0.127,0.064-0.217,0.064
				c-0.086,0-0.212-0.015-0.379-0.043s-0.33-0.042-0.488-0.042c-0.232,0-0.439,0.033-0.621,0.102s-0.344,0.166-0.488,0.293
				c-0.145,0.128-0.272,0.282-0.383,0.464c-0.11,0.181-0.214,0.388-0.311,0.62v5.372h-2.1v-8.721h1.232
				c0.216,0,0.365,0.038,0.451,0.114c0.085,0.077,0.142,0.214,0.17,0.412L531.727,605.067z"/>
			<path fill="#FFFFFF" d="M539.7,603.418c0.646,0,1.234,0.105,1.764,0.314c0.53,0.21,0.984,0.508,1.36,0.893
				c0.377,0.386,0.667,0.856,0.872,1.411c0.203,0.556,0.305,1.176,0.305,1.861c0,0.691-0.102,1.315-0.305,1.87
				c-0.205,0.556-0.495,1.029-0.872,1.42c-0.376,0.391-0.83,0.691-1.36,0.901c-0.529,0.209-1.117,0.314-1.764,0.314
				c-0.651,0-1.244-0.105-1.775-0.314c-0.533-0.21-0.988-0.511-1.365-0.901s-0.668-0.864-0.875-1.42
				c-0.207-0.555-0.311-1.179-0.311-1.87c0-0.686,0.104-1.306,0.311-1.861c0.207-0.555,0.498-1.025,0.875-1.411
				c0.377-0.385,0.832-0.683,1.365-0.893C538.456,603.523,539.048,603.418,539.7,603.418z M539.7,610.788
				c0.726,0,1.263-0.244,1.611-0.731s0.522-1.201,0.522-2.142s-0.174-1.657-0.522-2.15s-0.886-0.74-1.611-0.74
				c-0.736,0-1.281,0.248-1.636,0.744s-0.531,1.211-0.531,2.146c0,0.935,0.177,1.647,0.531,2.138S538.963,610.788,539.7,610.788z"/>
			<path fill="#FFFFFF" d="M547.571,604.625c0.176-0.175,0.361-0.338,0.557-0.488c0.196-0.15,0.402-0.277,0.621-0.383
				c0.219-0.104,0.451-0.187,0.701-0.246s0.521-0.09,0.816-0.09c0.476,0,0.898,0.081,1.266,0.242
				c0.369,0.162,0.676,0.389,0.923,0.681s0.434,0.641,0.562,1.045c0.127,0.405,0.191,0.852,0.191,1.339v5.551h-2.1v-5.551
				c0-0.532-0.123-0.944-0.366-1.236s-0.614-0.438-1.113-0.438c-0.362,0-0.702,0.082-1.021,0.246
				c-0.316,0.164-0.617,0.389-0.9,0.672v6.307h-2.1v-8.721h1.283c0.271,0,0.451,0.127,0.535,0.382L547.571,604.625z"/>
			<path fill="#FFFFFF" d="M559.055,603.418c0.646,0,1.233,0.105,1.764,0.314c0.529,0.21,0.982,0.508,1.359,0.893
				c0.377,0.386,0.668,0.856,0.871,1.411c0.205,0.556,0.307,1.176,0.307,1.861c0,0.691-0.102,1.315-0.307,1.87
				c-0.203,0.556-0.494,1.029-0.871,1.42s-0.83,0.691-1.359,0.901c-0.53,0.209-1.118,0.314-1.764,0.314
				c-0.652,0-1.244-0.105-1.777-0.314c-0.532-0.21-0.987-0.511-1.363-0.901c-0.377-0.391-0.67-0.864-0.876-1.42
				c-0.207-0.555-0.311-1.179-0.311-1.87c0-0.686,0.104-1.306,0.311-1.861c0.206-0.555,0.499-1.025,0.876-1.411
				c0.376-0.385,0.831-0.683,1.363-0.893C557.811,603.523,558.403,603.418,559.055,603.418z M559.055,610.788
				c0.725,0,1.262-0.244,1.61-0.731s0.522-1.201,0.522-2.142s-0.174-1.657-0.522-2.15s-0.886-0.74-1.61-0.74
				c-0.737,0-1.283,0.248-1.637,0.744s-0.531,1.211-0.531,2.146c0,0.935,0.178,1.647,0.531,2.138S558.318,610.788,559.055,610.788z"
				/>
			<path fill="#FFFFFF" d="M566.951,604.744c0.356-0.402,0.763-0.728,1.216-0.978c0.453-0.249,0.986-0.374,1.598-0.374
				c0.477,0,0.911,0.1,1.305,0.298c0.395,0.198,0.734,0.486,1.02,0.862c0.287,0.377,0.508,0.842,0.664,1.395
				c0.155,0.553,0.233,1.186,0.233,1.899c0,0.652-0.088,1.256-0.264,1.811c-0.176,0.556-0.427,1.037-0.752,1.445
				c-0.326,0.408-0.72,0.727-1.182,0.956s-0.979,0.345-1.552,0.345c-0.486,0-0.903-0.075-1.249-0.226s-0.654-0.358-0.927-0.625v3.57
				h-2.1v-11.568h1.283c0.272,0,0.451,0.127,0.536,0.382L566.951,604.744z M567.061,610.015c0.238,0.289,0.498,0.493,0.777,0.611
				c0.281,0.119,0.586,0.179,0.914,0.179c0.318,0,0.604-0.06,0.859-0.179c0.254-0.118,0.471-0.3,0.65-0.544
				c0.178-0.243,0.314-0.551,0.412-0.922c0.096-0.371,0.145-0.809,0.145-1.313c0-0.51-0.041-0.941-0.124-1.296
				c-0.082-0.354-0.2-0.642-0.353-0.863c-0.152-0.221-0.339-0.382-0.557-0.484c-0.219-0.102-0.467-0.152-0.744-0.152
				c-0.436,0-0.807,0.092-1.113,0.275c-0.307,0.185-0.595,0.444-0.867,0.778V610.015z"/>
			<path fill="#FFFFFF" d="M577.083,601.013c0,0.182-0.037,0.352-0.109,0.51c-0.074,0.159-0.172,0.298-0.294,0.417
				s-0.265,0.214-0.429,0.285c-0.165,0.07-0.34,0.105-0.527,0.105c-0.182,0-0.354-0.035-0.514-0.105
				c-0.162-0.071-0.303-0.166-0.422-0.285s-0.213-0.258-0.284-0.417c-0.071-0.158-0.106-0.328-0.106-0.51
				c0-0.187,0.035-0.362,0.106-0.526c0.071-0.165,0.165-0.307,0.284-0.426s0.26-0.214,0.422-0.284
				c0.16-0.071,0.332-0.106,0.514-0.106c0.188,0,0.362,0.035,0.527,0.106c0.164,0.07,0.307,0.165,0.429,0.284
				s0.22,0.261,0.294,0.426C577.045,600.65,577.083,600.826,577.083,601.013z M576.793,603.555v8.721h-2.107v-8.721H576.793z"/>
			<path fill="#FFFFFF" d="M582.795,603.418c0.646,0,1.233,0.105,1.764,0.314c0.529,0.21,0.982,0.508,1.359,0.893
				c0.377,0.386,0.668,0.856,0.871,1.411c0.205,0.556,0.307,1.176,0.307,1.861c0,0.691-0.102,1.315-0.307,1.87
				c-0.203,0.556-0.494,1.029-0.871,1.42s-0.83,0.691-1.359,0.901c-0.53,0.209-1.118,0.314-1.764,0.314
				c-0.652,0-1.244-0.105-1.777-0.314c-0.532-0.21-0.987-0.511-1.363-0.901c-0.377-0.391-0.67-0.864-0.876-1.42
				c-0.207-0.555-0.311-1.179-0.311-1.87c0-0.686,0.104-1.306,0.311-1.861c0.206-0.555,0.499-1.025,0.876-1.411
				c0.376-0.385,0.831-0.683,1.363-0.893C581.551,603.523,582.143,603.418,582.795,603.418z M582.795,610.788
				c0.725,0,1.262-0.244,1.61-0.731s0.522-1.201,0.522-2.142s-0.174-1.657-0.522-2.15s-0.886-0.74-1.61-0.74
				c-0.737,0-1.283,0.248-1.637,0.744s-0.531,1.211-0.531,2.146c0,0.935,0.178,1.647,0.531,2.138S582.058,610.788,582.795,610.788z"
				/>
			<path fill="#FFFFFF" d="M594.023,605.254c-0.057,0.091-0.116,0.155-0.179,0.191c-0.063,0.037-0.142,0.056-0.238,0.056
				c-0.102,0-0.211-0.028-0.326-0.085c-0.117-0.057-0.252-0.12-0.404-0.191c-0.152-0.07-0.327-0.135-0.522-0.191
				c-0.196-0.057-0.427-0.085-0.692-0.085c-0.414,0-0.738,0.088-0.974,0.264s-0.353,0.405-0.353,0.688
				c0,0.187,0.061,0.345,0.182,0.472c0.123,0.128,0.284,0.239,0.485,0.336c0.2,0.097,0.429,0.183,0.685,0.259
				c0.254,0.077,0.514,0.16,0.777,0.251s0.522,0.194,0.777,0.311c0.256,0.116,0.483,0.264,0.685,0.441
				c0.201,0.179,0.362,0.393,0.484,0.643c0.122,0.249,0.183,0.549,0.183,0.9c0,0.42-0.074,0.807-0.225,1.16
				c-0.15,0.354-0.373,0.66-0.668,0.918s-0.658,0.459-1.092,0.604s-0.934,0.217-1.5,0.217c-0.301,0-0.594-0.026-0.88-0.08
				c-0.286-0.055-0.562-0.129-0.825-0.226s-0.507-0.21-0.73-0.34c-0.225-0.131-0.421-0.272-0.591-0.425l0.484-0.8
				c0.063-0.096,0.136-0.17,0.222-0.221c0.084-0.051,0.191-0.076,0.322-0.076s0.254,0.037,0.37,0.11s0.251,0.153,0.403,0.238
				c0.153,0.085,0.333,0.164,0.54,0.237c0.206,0.074,0.469,0.11,0.786,0.11c0.25,0,0.463-0.029,0.642-0.089s0.326-0.138,0.442-0.233
				c0.115-0.097,0.201-0.209,0.255-0.336c0.054-0.128,0.081-0.26,0.081-0.396c0-0.204-0.062-0.371-0.184-0.501
				c-0.121-0.131-0.283-0.244-0.484-0.341c-0.201-0.096-0.43-0.183-0.688-0.259c-0.259-0.076-0.521-0.16-0.791-0.251
				s-0.533-0.196-0.791-0.318s-0.486-0.276-0.688-0.464c-0.201-0.187-0.363-0.416-0.484-0.688c-0.123-0.271-0.184-0.601-0.184-0.985
				c0-0.357,0.07-0.697,0.213-1.021c0.141-0.322,0.35-0.604,0.625-0.846c0.274-0.24,0.617-0.434,1.027-0.578
				c0.412-0.145,0.886-0.217,1.424-0.217c0.602,0,1.148,0.1,1.641,0.298c0.494,0.198,0.904,0.459,1.232,0.782L594.023,605.254z"/>
			<path fill="#FFFFFF" d="M607.801,603.555l-4.751,11.118c-0.063,0.146-0.144,0.259-0.242,0.335
				c-0.099,0.077-0.251,0.115-0.454,0.115h-1.564l1.632-3.502l-3.528-8.066h1.846c0.164,0,0.293,0.039,0.387,0.119
				c0.094,0.079,0.162,0.17,0.208,0.271l1.853,4.522c0.063,0.152,0.115,0.306,0.158,0.459c0.042,0.152,0.083,0.309,0.123,0.467
				c0.051-0.158,0.102-0.315,0.152-0.472c0.051-0.155,0.107-0.31,0.17-0.463l1.752-4.514c0.045-0.113,0.119-0.207,0.225-0.28
				c0.104-0.073,0.223-0.11,0.353-0.11H607.801z"/>
			<path fill="#FFFFFF" d="M620.126,599.645v12.631h-1.283c-0.278,0-0.454-0.128-0.527-0.383l-0.179-0.841
				c-0.352,0.402-0.755,0.728-1.211,0.978c-0.456,0.249-0.987,0.374-1.594,0.374c-0.477,0-0.912-0.1-1.309-0.298
				s-0.738-0.486-1.024-0.863c-0.286-0.376-0.507-0.843-0.663-1.397c-0.156-0.556-0.234-1.19-0.234-1.904
				c0-0.646,0.088-1.247,0.264-1.802c0.176-0.556,0.428-1.037,0.757-1.445s0.723-0.727,1.182-0.956s0.975-0.345,1.547-0.345
				c0.487,0,0.903,0.077,1.249,0.229c0.346,0.153,0.654,0.36,0.928,0.621v-4.599H620.126z M618.028,605.781
				c-0.238-0.289-0.498-0.493-0.778-0.612c-0.28-0.118-0.583-0.178-0.905-0.178c-0.317,0-0.604,0.06-0.858,0.178
				c-0.255,0.119-0.474,0.3-0.655,0.54c-0.181,0.241-0.32,0.547-0.416,0.918s-0.145,0.81-0.145,1.313
				c0,0.51,0.041,0.942,0.123,1.296c0.082,0.354,0.2,0.644,0.354,0.867c0.152,0.224,0.34,0.386,0.561,0.484
				c0.221,0.1,0.467,0.149,0.739,0.149c0.437,0,0.808-0.091,1.114-0.272c0.306-0.182,0.594-0.439,0.867-0.773V605.781z"/>
			<path fill="#FFFFFF" d="M623.815,608.179c0.035,0.447,0.113,0.834,0.238,1.16s0.289,0.595,0.493,0.808
				c0.204,0.212,0.446,0.371,0.728,0.476c0.279,0.105,0.59,0.157,0.93,0.157s0.634-0.039,0.881-0.119
				c0.246-0.079,0.461-0.167,0.646-0.264c0.185-0.096,0.345-0.184,0.484-0.263c0.139-0.08,0.273-0.119,0.403-0.119
				c0.176,0,0.307,0.065,0.392,0.195l0.604,0.765c-0.232,0.272-0.493,0.5-0.782,0.685s-0.591,0.331-0.905,0.442
				c-0.314,0.11-0.635,0.188-0.96,0.233c-0.326,0.045-0.643,0.068-0.948,0.068c-0.606,0-1.171-0.102-1.691-0.302
				c-0.521-0.201-0.975-0.499-1.36-0.893c-0.385-0.395-0.688-0.882-0.909-1.462c-0.222-0.581-0.331-1.254-0.331-2.02
				c0-0.595,0.096-1.154,0.289-1.679c0.191-0.523,0.469-0.979,0.828-1.368c0.359-0.388,0.799-0.695,1.317-0.922
				s1.104-0.341,1.755-0.341c0.551,0,1.057,0.088,1.521,0.264s0.865,0.433,1.199,0.77s0.596,0.751,0.786,1.241
				s0.284,1.05,0.284,1.679c0,0.317-0.033,0.531-0.102,0.642s-0.198,0.166-0.391,0.166H623.815z M627.819,606.912
				c0-0.272-0.038-0.528-0.115-0.77c-0.076-0.241-0.19-0.452-0.344-0.633c-0.152-0.182-0.348-0.324-0.582-0.43
				c-0.235-0.104-0.509-0.157-0.82-0.157c-0.606,0-1.084,0.173-1.432,0.519c-0.35,0.346-0.571,0.836-0.668,1.471H627.819z"/>
			<path fill="#FFFFFF" d="M636.022,612.275v-7.14l-0.757-0.119c-0.165-0.034-0.296-0.092-0.396-0.175
				c-0.1-0.082-0.148-0.199-0.148-0.353v-0.858h1.301v-0.646c0-0.499,0.074-0.946,0.225-1.344c0.15-0.396,0.365-0.733,0.646-1.011
				c0.28-0.278,0.621-0.49,1.023-0.638s0.855-0.222,1.36-0.222c0.402,0,0.776,0.055,1.122,0.162l-0.043,1.054
				c-0.005,0.079-0.027,0.144-0.067,0.191s-0.093,0.085-0.157,0.11c-0.065,0.025-0.141,0.043-0.225,0.051
				c-0.086,0.009-0.176,0.013-0.272,0.013c-0.249,0-0.472,0.027-0.667,0.081s-0.361,0.147-0.498,0.28
				c-0.136,0.134-0.239,0.31-0.311,0.527c-0.07,0.218-0.105,0.488-0.105,0.812v0.578h2.27v1.496h-2.201v7.148H636.022z"/>
			<path fill="#FFFFFF" d="M641.274,604.77c1.004-0.918,2.211-1.377,3.621-1.377c0.51,0,0.967,0.084,1.369,0.251
				s0.742,0.399,1.02,0.697c0.277,0.297,0.488,0.653,0.633,1.066c0.145,0.414,0.217,0.867,0.217,1.36v5.508h-0.951
				c-0.199,0-0.352-0.029-0.459-0.089s-0.193-0.181-0.256-0.361l-0.187-0.629c-0.221,0.198-0.437,0.372-0.646,0.522
				c-0.21,0.15-0.428,0.276-0.654,0.378c-0.227,0.103-0.47,0.18-0.728,0.234c-0.258,0.054-0.542,0.08-0.854,0.08
				c-0.368,0-0.708-0.05-1.02-0.148c-0.312-0.1-0.581-0.248-0.808-0.446s-0.402-0.444-0.526-0.739
				c-0.125-0.295-0.188-0.638-0.188-1.028c0-0.222,0.037-0.441,0.11-0.659s0.194-0.427,0.361-0.625s0.384-0.385,0.65-0.561
				s0.593-0.329,0.981-0.459c0.389-0.131,0.84-0.236,1.355-0.319c0.516-0.082,1.105-0.132,1.769-0.148v-0.51
				c0-0.584-0.124-1.016-0.374-1.297c-0.25-0.28-0.609-0.42-1.08-0.42c-0.34,0-0.621,0.039-0.846,0.118
				c-0.224,0.08-0.42,0.169-0.59,0.269c-0.17,0.099-0.324,0.188-0.464,0.268c-0.139,0.079-0.293,0.119-0.463,0.119
				c-0.147,0-0.272-0.039-0.374-0.115s-0.184-0.166-0.246-0.268L641.274,604.77z M646.085,608.553
				c-0.606,0.028-1.116,0.08-1.53,0.157c-0.414,0.076-0.745,0.174-0.994,0.293c-0.25,0.119-0.428,0.258-0.535,0.416
				c-0.108,0.159-0.162,0.332-0.162,0.519c0,0.369,0.109,0.632,0.327,0.791c0.218,0.158,0.503,0.238,0.854,0.238
				c0.431,0,0.803-0.078,1.117-0.234c0.314-0.155,0.623-0.393,0.923-0.71V608.553z"/>
			<path fill="#FFFFFF" d="M650.106,612.275v-8.721h1.283c0.271,0,0.451,0.127,0.535,0.382l0.137,0.646
				c0.152-0.17,0.313-0.326,0.48-0.468c0.166-0.142,0.346-0.264,0.535-0.365c0.189-0.103,0.394-0.183,0.611-0.242
				c0.219-0.06,0.458-0.09,0.719-0.09c0.55,0,1.002,0.149,1.355,0.446c0.354,0.298,0.619,0.693,0.795,1.187
				c0.137-0.289,0.307-0.537,0.51-0.744c0.205-0.207,0.428-0.375,0.672-0.506c0.244-0.13,0.503-0.227,0.777-0.289
				c0.275-0.063,0.552-0.094,0.829-0.094c0.481,0,0.909,0.074,1.284,0.222c0.373,0.147,0.688,0.362,0.943,0.646
				c0.254,0.283,0.449,0.629,0.582,1.037s0.199,0.876,0.199,1.402v5.551h-2.1v-5.551c0-0.555-0.121-0.973-0.365-1.254
				c-0.244-0.28-0.601-0.42-1.07-0.42c-0.216,0-0.416,0.036-0.6,0.11c-0.185,0.073-0.346,0.18-0.484,0.318s-0.248,0.313-0.328,0.522
				c-0.078,0.21-0.118,0.451-0.118,0.723v5.551h-2.108v-5.551c0-0.583-0.117-1.008-0.353-1.274s-0.579-0.399-1.032-0.399
				c-0.307,0-0.592,0.075-0.855,0.225c-0.263,0.15-0.508,0.355-0.734,0.616v6.384H650.106z"/>
			<path fill="#FFFFFF" d="M664.139,604.77c1.003-0.918,2.21-1.377,3.621-1.377c0.51,0,0.966,0.084,1.368,0.251
				s0.743,0.399,1.021,0.697c0.277,0.297,0.488,0.653,0.633,1.066c0.145,0.414,0.217,0.867,0.217,1.36v5.508h-0.951
				c-0.199,0-0.352-0.029-0.459-0.089c-0.108-0.06-0.193-0.181-0.256-0.361l-0.188-0.629c-0.221,0.198-0.436,0.372-0.646,0.522
				s-0.428,0.276-0.654,0.378c-0.227,0.103-0.47,0.18-0.728,0.234c-0.258,0.054-0.542,0.08-0.854,0.08
				c-0.369,0-0.709-0.05-1.02-0.148c-0.313-0.1-0.582-0.248-0.809-0.446s-0.402-0.444-0.526-0.739s-0.187-0.638-0.187-1.028
				c0-0.222,0.036-0.441,0.109-0.659c0.074-0.218,0.195-0.427,0.361-0.625c0.168-0.198,0.385-0.385,0.65-0.561
				c0.267-0.176,0.594-0.329,0.982-0.459c0.388-0.131,0.84-0.236,1.355-0.319c0.516-0.082,1.105-0.132,1.768-0.148v-0.51
				c0-0.584-0.124-1.016-0.373-1.297c-0.25-0.28-0.609-0.42-1.08-0.42c-0.34,0-0.622,0.039-0.846,0.118
				c-0.225,0.08-0.421,0.169-0.591,0.269c-0.17,0.099-0.324,0.188-0.464,0.268c-0.139,0.079-0.293,0.119-0.463,0.119
				c-0.146,0-0.271-0.039-0.373-0.115c-0.103-0.076-0.185-0.166-0.247-0.268L664.139,604.77z M668.95,608.553
				c-0.605,0.028-1.116,0.08-1.529,0.157c-0.414,0.076-0.746,0.174-0.994,0.293c-0.25,0.119-0.429,0.258-0.536,0.416
				c-0.108,0.159-0.161,0.332-0.161,0.519c0,0.369,0.109,0.632,0.326,0.791c0.219,0.158,0.504,0.238,0.855,0.238
				c0.43,0,0.803-0.078,1.117-0.234c0.314-0.155,0.622-0.393,0.922-0.71V608.553z"/>
			<path fill="#FFFFFF" d="M678.292,605.254c-0.057,0.091-0.116,0.155-0.178,0.191c-0.063,0.037-0.143,0.056-0.238,0.056
				c-0.103,0-0.211-0.028-0.328-0.085c-0.115-0.057-0.25-0.12-0.403-0.191c-0.153-0.07-0.327-0.135-0.522-0.191
				s-0.427-0.085-0.693-0.085c-0.414,0-0.738,0.088-0.973,0.264c-0.235,0.176-0.354,0.405-0.354,0.688
				c0,0.187,0.062,0.345,0.184,0.472c0.121,0.128,0.283,0.239,0.484,0.336s0.43,0.183,0.684,0.259
				c0.256,0.077,0.515,0.16,0.778,0.251c0.263,0.091,0.522,0.194,0.778,0.311c0.254,0.116,0.482,0.264,0.684,0.441
				c0.201,0.179,0.363,0.393,0.484,0.643c0.122,0.249,0.184,0.549,0.184,0.9c0,0.42-0.076,0.807-0.227,1.16
				c-0.149,0.354-0.372,0.66-0.666,0.918c-0.295,0.258-0.659,0.459-1.093,0.604s-0.934,0.217-1.501,0.217
				c-0.3,0-0.594-0.026-0.879-0.08c-0.287-0.055-0.561-0.129-0.824-0.226s-0.508-0.21-0.731-0.34
				c-0.224-0.131-0.421-0.272-0.591-0.425l0.484-0.8c0.063-0.096,0.137-0.17,0.221-0.221c0.086-0.051,0.193-0.076,0.323-0.076
				s0.254,0.037,0.37,0.11c0.115,0.073,0.25,0.153,0.403,0.238s0.333,0.164,0.54,0.237c0.207,0.074,0.469,0.11,0.786,0.11
				c0.249,0,0.464-0.029,0.642-0.089c0.179-0.06,0.326-0.138,0.442-0.233c0.116-0.097,0.2-0.209,0.255-0.336
				c0.054-0.128,0.08-0.26,0.08-0.396c0-0.204-0.061-0.371-0.182-0.501c-0.123-0.131-0.283-0.244-0.484-0.341
				c-0.201-0.096-0.432-0.183-0.689-0.259s-0.521-0.16-0.79-0.251c-0.27-0.091-0.532-0.196-0.79-0.318s-0.488-0.276-0.689-0.464
				c-0.201-0.187-0.362-0.416-0.484-0.688c-0.121-0.271-0.183-0.601-0.183-0.985c0-0.357,0.071-0.697,0.212-1.021
				c0.143-0.322,0.351-0.604,0.625-0.846c0.275-0.24,0.618-0.434,1.029-0.578c0.41-0.145,0.885-0.217,1.424-0.217
				c0.6,0,1.146,0.1,1.641,0.298c0.492,0.198,0.903,0.459,1.232,0.782L678.292,605.254z"/>
			<path fill="#FFFFFF" d="M682.116,599.984v2.448l-0.187,1.326c-0.046,0.249-0.119,0.44-0.221,0.573
				c-0.103,0.134-0.272,0.2-0.511,0.2c-0.209,0-0.371-0.066-0.484-0.2c-0.113-0.133-0.192-0.324-0.238-0.573l-0.187-1.326v-2.448
				H682.116z M685.245,599.984v2.448l-0.188,1.326c-0.045,0.249-0.119,0.44-0.221,0.573c-0.102,0.134-0.271,0.2-0.51,0.2
				c-0.21,0-0.371-0.066-0.484-0.2c-0.113-0.133-0.193-0.324-0.238-0.573l-0.188-1.326v-2.448H685.245z"/>
		</g>
	</g>
	<g>
		<circle fill="#337C98" cx="438.044" cy="225.389" r="43.163"/>
	</g>
	<g>
		
			<line fill="none" stroke="#337C98" stroke-width="10" stroke-linecap="round" stroke-linejoin="round" stroke-miterlimit="10" x1="438.018" y1="341.4" x2="438.237" y2="284.624"/>
		
			<polyline fill="none" stroke="#337C98" stroke-width="10" stroke-linecap="round" stroke-linejoin="round" stroke-miterlimit="10" points="
			426.68,335.074 437.999,347.24 449.409,335.164 		"/>
	</g>
	<g>
		
			<line fill="none" stroke="#337C98" stroke-width="10" stroke-linecap="round" stroke-linejoin="round" stroke-miterlimit="10" x1="393.32" y1="174.317" x2="325.044" y2="105.732"/>
		
			<polyline fill="none" stroke="#337C98" stroke-width="10" stroke-linecap="round" stroke-linejoin="round" stroke-miterlimit="10" points="
			380.83,177.861 397.436,178.461 396.964,161.854 		"/>
	</g>
	<g>
		<g>
			<path fill="#FFFFFF" d="M461.854,300.522l-0.045,16.739l-2.783-0.008l0.046-16.739L461.854,300.522z"/>
			<path fill="#FFFFFF" d="M467.898,302.353c-0.001,0.24-0.05,0.466-0.148,0.676c-0.099,0.209-0.228,0.394-0.39,0.55
				c-0.162,0.158-0.352,0.283-0.57,0.377c-0.218,0.093-0.451,0.14-0.699,0.139c-0.24-0.001-0.467-0.048-0.681-0.143
				s-0.399-0.221-0.557-0.379s-0.282-0.343-0.376-0.554c-0.094-0.21-0.139-0.436-0.139-0.676c0-0.248,0.049-0.48,0.143-0.698
				c0.094-0.217,0.221-0.405,0.379-0.562c0.158-0.157,0.345-0.283,0.559-0.376c0.215-0.093,0.441-0.141,0.682-0.14
				c0.248,0.001,0.48,0.049,0.698,0.144c0.218,0.094,0.407,0.221,0.567,0.378c0.162,0.158,0.291,0.347,0.388,0.565
				C467.85,301.872,467.899,302.104,467.898,302.353z M467.506,305.72l-0.031,11.558l-2.795-0.008l0.031-11.558L467.506,305.72z"/>
			<path fill="#FFFFFF" d="M473.124,307.153c0.467-0.485,0.984-0.873,1.552-1.161c0.567-0.287,1.216-0.431,1.944-0.429
				c0.668,0.002,1.271,0.136,1.807,0.399c0.537,0.265,0.994,0.644,1.371,1.136c0.379,0.493,0.668,1.09,0.869,1.788
				c0.2,0.699,0.3,1.484,0.297,2.355c-0.002,0.938-0.121,1.791-0.355,2.556c-0.235,0.766-0.569,1.42-1.002,1.964
				c-0.434,0.543-0.955,0.964-1.564,1.263s-1.285,0.447-2.029,0.445c-0.359-0.001-0.687-0.038-0.979-0.11
				c-0.293-0.072-0.563-0.172-0.811-0.3c-0.248-0.129-0.475-0.285-0.681-0.47s-0.403-0.39-0.589-0.616l-0.127,0.777
				c-0.045,0.195-0.123,0.334-0.232,0.416c-0.109,0.083-0.258,0.123-0.445,0.123l-1.836-0.005l0.046-16.739l2.782,0.007
				L473.124,307.153z M473.104,314.296c0.314,0.384,0.657,0.655,1.028,0.813c0.371,0.159,0.764,0.238,1.177,0.24
				c0.428,0.001,0.813-0.074,1.154-0.228c0.343-0.153,0.635-0.393,0.875-0.719c0.242-0.326,0.427-0.743,0.557-1.249
				c0.129-0.507,0.193-1.113,0.195-1.819c0.004-1.269-0.204-2.187-0.623-2.755c-0.418-0.569-1.022-0.854-1.811-0.855
				c-0.533-0.002-1,0.119-1.398,0.362s-0.779,0.585-1.141,1.026L473.104,314.296z"/>
			<path fill="#FFFFFF" d="M485.749,307.774c0.363-0.689,0.793-1.231,1.289-1.625c0.496-0.393,1.084-0.588,1.76-0.586
				c0.533,0.001,0.96,0.119,1.283,0.353l-0.187,2.083c-0.038,0.136-0.093,0.231-0.165,0.288c-0.07,0.055-0.166,0.083-0.287,0.083
				c-0.112-0.001-0.279-0.02-0.501-0.059c-0.221-0.037-0.437-0.057-0.647-0.057c-0.308-0.001-0.582,0.043-0.822,0.132
				c-0.241,0.09-0.457,0.219-0.648,0.388c-0.192,0.168-0.361,0.373-0.51,0.612c-0.146,0.24-0.285,0.514-0.412,0.821l-0.02,7.119
				l-2.783-0.008l0.031-11.558l1.634,0.005c0.285,0.001,0.484,0.052,0.597,0.153s0.188,0.284,0.224,0.547L485.749,307.774z"/>
			<path fill="#FFFFFF" d="M496.321,305.617c0.856,0.002,1.635,0.144,2.337,0.423c0.701,0.28,1.301,0.677,1.799,1.188
				c0.498,0.513,0.882,1.138,1.149,1.874c0.269,0.736,0.401,1.56,0.398,2.468c-0.002,0.917-0.139,1.742-0.411,2.478
				s-0.659,1.361-1.16,1.878s-1.103,0.913-1.806,1.188c-0.703,0.276-1.482,0.413-2.339,0.411c-0.863-0.003-1.647-0.144-2.353-0.424
				c-0.705-0.279-1.307-0.679-1.805-1.198s-0.883-1.147-1.155-1.885c-0.272-0.736-0.407-1.563-0.405-2.479
				c0.003-0.908,0.143-1.73,0.418-2.466c0.276-0.734,0.665-1.357,1.166-1.867c0.5-0.508,1.104-0.901,1.811-1.178
				C494.672,305.752,495.458,305.614,496.321,305.617z M496.294,315.384c0.962,0.003,1.674-0.318,2.138-0.963
				c0.463-0.645,0.697-1.59,0.7-2.837c0.003-1.246-0.226-2.197-0.685-2.852c-0.461-0.655-1.171-0.982-2.133-0.985
				c-0.976-0.003-1.699,0.323-2.171,0.979s-0.708,1.604-0.712,2.842c-0.003,1.239,0.229,2.185,0.697,2.836
				C494.596,315.055,495.319,315.381,496.294,315.384z"/>
			<path fill="#FFFFFF" d="M511.196,308.091c-0.076,0.12-0.154,0.205-0.238,0.253c-0.082,0.049-0.188,0.072-0.314,0.072
				c-0.136-0.001-0.28-0.038-0.434-0.114c-0.154-0.075-0.332-0.16-0.535-0.254c-0.201-0.095-0.433-0.18-0.691-0.256
				s-0.564-0.114-0.918-0.115c-0.549-0.001-0.979,0.114-1.291,0.346c-0.313,0.232-0.469,0.536-0.47,0.912
				c-0.001,0.247,0.079,0.456,0.241,0.625c0.16,0.17,0.374,0.318,0.641,0.446c0.266,0.129,0.568,0.244,0.905,0.347
				c0.338,0.102,0.681,0.214,1.03,0.335c0.349,0.121,0.691,0.259,1.029,0.414c0.338,0.154,0.639,0.351,0.905,0.588
				c0.267,0.238,0.479,0.521,0.64,0.853s0.24,0.729,0.239,1.194c-0.002,0.556-0.103,1.068-0.303,1.537s-0.497,0.874-0.888,1.214
				c-0.392,0.341-0.875,0.606-1.449,0.796c-0.575,0.19-1.238,0.285-1.99,0.282c-0.397-0.001-0.786-0.038-1.164-0.11
				c-0.38-0.072-0.744-0.173-1.093-0.302c-0.349-0.128-0.671-0.279-0.968-0.453c-0.296-0.173-0.557-0.361-0.781-0.565l0.645-1.057
				c0.084-0.128,0.182-0.225,0.295-0.292c0.112-0.067,0.255-0.101,0.428-0.101c0.173,0.001,0.336,0.05,0.49,0.147
				c0.153,0.099,0.331,0.204,0.533,0.317c0.203,0.112,0.441,0.219,0.715,0.317s0.621,0.148,1.041,0.149
				c0.331,0.001,0.615-0.037,0.852-0.116c0.236-0.078,0.432-0.182,0.586-0.308c0.154-0.128,0.268-0.275,0.34-0.444
				s0.107-0.344,0.108-0.523c0.001-0.271-0.079-0.492-0.241-0.666c-0.16-0.173-0.374-0.324-0.641-0.451
				c-0.266-0.129-0.57-0.244-0.911-0.347c-0.342-0.103-0.69-0.214-1.046-0.335c-0.357-0.121-0.706-0.264-1.047-0.426
				c-0.342-0.162-0.646-0.368-0.911-0.616c-0.267-0.248-0.479-0.554-0.64-0.914c-0.16-0.361-0.24-0.797-0.238-1.308
				c0.001-0.474,0.096-0.924,0.285-1.351c0.189-0.428,0.466-0.801,0.831-1.119c0.364-0.318,0.819-0.571,1.364-0.762
				s1.174-0.285,1.889-0.283c0.795,0.003,1.52,0.137,2.172,0.4c0.653,0.265,1.197,0.612,1.631,1.041L511.196,308.091z"/>
		</g>
	</g>
</g>
</svg>
